<?xml version="1.0" encoding="utf-8"?>
<svg xmlns="http://www.w3.org/2000/svg" xmlns:xlink="http://www.w3.org/1999/xlink" width="600" height="400" viewBox="0 0 2400 1600">
<defs>
  <clipPath id="clip770">
    <rect x="0" y="0" width="2400" height="1600"/>
  </clipPath>
</defs>
<path clip-path="url(#clip770)" d="M0 1600 L2400 1600 L2400 8.88178e-14 L0 8.88178e-14  Z" fill="#ffffff" fill-rule="evenodd" fill-opacity="1"/>
<defs>
  <clipPath id="clip771">
    <rect x="480" y="0" width="1681" height="1600"/>
  </clipPath>
</defs>
<path clip-path="url(#clip770)" d="M265.445 1423.18 L2352.76 1423.18 L2352.76 183.952 L265.445 183.952  Z" fill="#ffffff" fill-rule="evenodd" fill-opacity="1"/>
<defs>
  <clipPath id="clip772">
    <rect x="265" y="183" width="2088" height="1240"/>
  </clipPath>
</defs>
<polyline clip-path="url(#clip772)" style="stroke:#000000; stroke-linecap:round; stroke-linejoin:round; stroke-width:2; stroke-opacity:0.1; fill:none" points="543.315,1423.18 543.315,183.952 "/>
<polyline clip-path="url(#clip772)" style="stroke:#000000; stroke-linecap:round; stroke-linejoin:round; stroke-width:2; stroke-opacity:0.1; fill:none" points="980.907,1423.18 980.907,183.952 "/>
<polyline clip-path="url(#clip772)" style="stroke:#000000; stroke-linecap:round; stroke-linejoin:round; stroke-width:2; stroke-opacity:0.1; fill:none" points="1418.5,1423.18 1418.5,183.952 "/>
<polyline clip-path="url(#clip772)" style="stroke:#000000; stroke-linecap:round; stroke-linejoin:round; stroke-width:2; stroke-opacity:0.1; fill:none" points="1856.09,1423.18 1856.09,183.952 "/>
<polyline clip-path="url(#clip772)" style="stroke:#000000; stroke-linecap:round; stroke-linejoin:round; stroke-width:2; stroke-opacity:0.1; fill:none" points="2293.68,1423.18 2293.68,183.952 "/>
<polyline clip-path="url(#clip772)" style="stroke:#000000; stroke-linecap:round; stroke-linejoin:round; stroke-width:2; stroke-opacity:0.1; fill:none" points="265.445,1390.3 2352.76,1390.3 "/>
<polyline clip-path="url(#clip772)" style="stroke:#000000; stroke-linecap:round; stroke-linejoin:round; stroke-width:2; stroke-opacity:0.1; fill:none" points="265.445,1101.99 2352.76,1101.99 "/>
<polyline clip-path="url(#clip772)" style="stroke:#000000; stroke-linecap:round; stroke-linejoin:round; stroke-width:2; stroke-opacity:0.1; fill:none" points="265.445,813.688 2352.76,813.688 "/>
<polyline clip-path="url(#clip772)" style="stroke:#000000; stroke-linecap:round; stroke-linejoin:round; stroke-width:2; stroke-opacity:0.1; fill:none" points="265.445,525.38 2352.76,525.38 "/>
<polyline clip-path="url(#clip772)" style="stroke:#000000; stroke-linecap:round; stroke-linejoin:round; stroke-width:2; stroke-opacity:0.1; fill:none" points="265.445,237.073 2352.76,237.073 "/>
<polyline clip-path="url(#clip770)" style="stroke:#000000; stroke-linecap:round; stroke-linejoin:round; stroke-width:4; stroke-opacity:1; fill:none" points="265.445,1423.18 2352.76,1423.18 "/>
<polyline clip-path="url(#clip770)" style="stroke:#000000; stroke-linecap:round; stroke-linejoin:round; stroke-width:4; stroke-opacity:1; fill:none" points="543.315,1423.18 543.315,1404.28 "/>
<polyline clip-path="url(#clip770)" style="stroke:#000000; stroke-linecap:round; stroke-linejoin:round; stroke-width:4; stroke-opacity:1; fill:none" points="980.907,1423.18 980.907,1404.28 "/>
<polyline clip-path="url(#clip770)" style="stroke:#000000; stroke-linecap:round; stroke-linejoin:round; stroke-width:4; stroke-opacity:1; fill:none" points="1418.5,1423.18 1418.5,1404.28 "/>
<polyline clip-path="url(#clip770)" style="stroke:#000000; stroke-linecap:round; stroke-linejoin:round; stroke-width:4; stroke-opacity:1; fill:none" points="1856.09,1423.18 1856.09,1404.28 "/>
<polyline clip-path="url(#clip770)" style="stroke:#000000; stroke-linecap:round; stroke-linejoin:round; stroke-width:4; stroke-opacity:1; fill:none" points="2293.68,1423.18 2293.68,1404.28 "/>
<path clip-path="url(#clip770)" d="M491.927 1481.64 L508.246 1481.64 L508.246 1485.58 L486.302 1485.58 L486.302 1481.64 Q488.964 1478.89 493.547 1474.26 Q498.153 1469.61 499.334 1468.27 Q501.579 1465.74 502.459 1464.01 Q503.362 1462.25 503.362 1460.56 Q503.362 1457.8 501.417 1456.07 Q499.496 1454.33 496.394 1454.33 Q494.195 1454.33 491.741 1455.09 Q489.311 1455.86 486.533 1457.41 L486.533 1452.69 Q489.357 1451.55 491.811 1450.97 Q494.265 1450.39 496.302 1450.39 Q501.672 1450.39 504.866 1453.08 Q508.061 1455.77 508.061 1460.26 Q508.061 1462.39 507.251 1464.31 Q506.464 1466.2 504.357 1468.8 Q503.778 1469.47 500.677 1472.69 Q497.575 1475.88 491.927 1481.64 Z" fill="#000000" fill-rule="nonzero" fill-opacity="1" /><path clip-path="url(#clip770)" d="M528.061 1454.1 Q524.45 1454.1 522.621 1457.66 Q520.815 1461.2 520.815 1468.33 Q520.815 1475.44 522.621 1479.01 Q524.45 1482.55 528.061 1482.55 Q531.695 1482.55 533.501 1479.01 Q535.329 1475.44 535.329 1468.33 Q535.329 1461.2 533.501 1457.66 Q531.695 1454.1 528.061 1454.1 M528.061 1450.39 Q533.871 1450.39 536.926 1455 Q540.005 1459.58 540.005 1468.33 Q540.005 1477.06 536.926 1481.67 Q533.871 1486.25 528.061 1486.25 Q522.251 1486.25 519.172 1481.67 Q516.116 1477.06 516.116 1468.33 Q516.116 1459.58 519.172 1455 Q522.251 1450.39 528.061 1450.39 Z" fill="#000000" fill-rule="nonzero" fill-opacity="1" /><path clip-path="url(#clip770)" d="M558.223 1454.1 Q554.612 1454.1 552.783 1457.66 Q550.977 1461.2 550.977 1468.33 Q550.977 1475.44 552.783 1479.01 Q554.612 1482.55 558.223 1482.55 Q561.857 1482.55 563.662 1479.01 Q565.491 1475.44 565.491 1468.33 Q565.491 1461.2 563.662 1457.66 Q561.857 1454.1 558.223 1454.1 M558.223 1450.39 Q564.033 1450.39 567.088 1455 Q570.167 1459.58 570.167 1468.33 Q570.167 1477.06 567.088 1481.67 Q564.033 1486.25 558.223 1486.25 Q552.412 1486.25 549.334 1481.67 Q546.278 1477.06 546.278 1468.33 Q546.278 1459.58 549.334 1455 Q552.412 1450.39 558.223 1450.39 Z" fill="#000000" fill-rule="nonzero" fill-opacity="1" /><path clip-path="url(#clip770)" d="M588.384 1454.1 Q584.773 1454.1 582.945 1457.66 Q581.139 1461.2 581.139 1468.33 Q581.139 1475.44 582.945 1479.01 Q584.773 1482.55 588.384 1482.55 Q592.019 1482.55 593.824 1479.01 Q595.653 1475.44 595.653 1468.33 Q595.653 1461.2 593.824 1457.66 Q592.019 1454.1 588.384 1454.1 M588.384 1450.39 Q594.195 1450.39 597.25 1455 Q600.329 1459.58 600.329 1468.33 Q600.329 1477.06 597.25 1481.67 Q594.195 1486.25 588.384 1486.25 Q582.574 1486.25 579.496 1481.67 Q576.44 1477.06 576.44 1468.33 Q576.44 1459.58 579.496 1455 Q582.574 1450.39 588.384 1450.39 Z" fill="#000000" fill-rule="nonzero" fill-opacity="1" /><path clip-path="url(#clip770)" d="M938.916 1455.09 L927.111 1473.54 L938.916 1473.54 L938.916 1455.09 M937.689 1451.02 L943.569 1451.02 L943.569 1473.54 L948.499 1473.54 L948.499 1477.43 L943.569 1477.43 L943.569 1485.58 L938.916 1485.58 L938.916 1477.43 L923.314 1477.43 L923.314 1472.92 L937.689 1451.02 Z" fill="#000000" fill-rule="nonzero" fill-opacity="1" /><path clip-path="url(#clip770)" d="M966.231 1454.1 Q962.62 1454.1 960.791 1457.66 Q958.986 1461.2 958.986 1468.33 Q958.986 1475.44 960.791 1479.01 Q962.62 1482.55 966.231 1482.55 Q969.865 1482.55 971.671 1479.01 Q973.499 1475.44 973.499 1468.33 Q973.499 1461.2 971.671 1457.66 Q969.865 1454.1 966.231 1454.1 M966.231 1450.39 Q972.041 1450.39 975.097 1455 Q978.175 1459.58 978.175 1468.33 Q978.175 1477.06 975.097 1481.67 Q972.041 1486.25 966.231 1486.25 Q960.421 1486.25 957.342 1481.67 Q954.287 1477.06 954.287 1468.33 Q954.287 1459.58 957.342 1455 Q960.421 1450.39 966.231 1450.39 Z" fill="#000000" fill-rule="nonzero" fill-opacity="1" /><path clip-path="url(#clip770)" d="M996.393 1454.1 Q992.782 1454.1 990.953 1457.66 Q989.147 1461.2 989.147 1468.33 Q989.147 1475.44 990.953 1479.01 Q992.782 1482.55 996.393 1482.55 Q1000.03 1482.55 1001.83 1479.01 Q1003.66 1475.44 1003.66 1468.33 Q1003.66 1461.2 1001.83 1457.66 Q1000.03 1454.1 996.393 1454.1 M996.393 1450.39 Q1002.2 1450.39 1005.26 1455 Q1008.34 1459.58 1008.34 1468.33 Q1008.34 1477.06 1005.26 1481.67 Q1002.2 1486.25 996.393 1486.25 Q990.583 1486.25 987.504 1481.67 Q984.448 1477.06 984.448 1468.33 Q984.448 1459.58 987.504 1455 Q990.583 1450.39 996.393 1450.39 Z" fill="#000000" fill-rule="nonzero" fill-opacity="1" /><path clip-path="url(#clip770)" d="M1026.55 1454.1 Q1022.94 1454.1 1021.11 1457.66 Q1019.31 1461.2 1019.31 1468.33 Q1019.31 1475.44 1021.11 1479.01 Q1022.94 1482.55 1026.55 1482.55 Q1030.19 1482.55 1031.99 1479.01 Q1033.82 1475.44 1033.82 1468.33 Q1033.82 1461.2 1031.99 1457.66 Q1030.19 1454.1 1026.55 1454.1 M1026.55 1450.39 Q1032.36 1450.39 1035.42 1455 Q1038.5 1459.58 1038.5 1468.33 Q1038.5 1477.06 1035.42 1481.67 Q1032.36 1486.25 1026.55 1486.25 Q1020.74 1486.25 1017.67 1481.67 Q1014.61 1477.06 1014.61 1468.33 Q1014.61 1459.58 1017.67 1455 Q1020.74 1450.39 1026.55 1450.39 Z" fill="#000000" fill-rule="nonzero" fill-opacity="1" /><path clip-path="url(#clip770)" d="M1373.74 1466.44 Q1370.59 1466.44 1368.74 1468.59 Q1366.91 1470.74 1366.91 1474.49 Q1366.91 1478.22 1368.74 1480.39 Q1370.59 1482.55 1373.74 1482.55 Q1376.89 1482.55 1378.72 1480.39 Q1380.57 1478.22 1380.57 1474.49 Q1380.57 1470.74 1378.72 1468.59 Q1376.89 1466.44 1373.74 1466.44 M1383.02 1451.78 L1383.02 1456.04 Q1381.26 1455.21 1379.46 1454.77 Q1377.68 1454.33 1375.92 1454.33 Q1371.29 1454.33 1368.83 1457.45 Q1366.4 1460.58 1366.06 1466.9 Q1367.42 1464.89 1369.48 1463.82 Q1371.54 1462.73 1374.02 1462.73 Q1379.23 1462.73 1382.24 1465.9 Q1385.27 1469.05 1385.27 1474.49 Q1385.27 1479.82 1382.12 1483.03 Q1378.97 1486.25 1373.74 1486.25 Q1367.75 1486.25 1364.57 1481.67 Q1361.4 1477.06 1361.4 1468.33 Q1361.4 1460.14 1365.29 1455.28 Q1369.18 1450.39 1375.73 1450.39 Q1377.49 1450.39 1379.27 1450.74 Q1381.08 1451.09 1383.02 1451.78 Z" fill="#000000" fill-rule="nonzero" fill-opacity="1" /><path clip-path="url(#clip770)" d="M1403.32 1454.1 Q1399.71 1454.1 1397.88 1457.66 Q1396.08 1461.2 1396.08 1468.33 Q1396.08 1475.44 1397.88 1479.01 Q1399.71 1482.55 1403.32 1482.55 Q1406.96 1482.55 1408.76 1479.01 Q1410.59 1475.44 1410.59 1468.33 Q1410.59 1461.2 1408.76 1457.66 Q1406.96 1454.1 1403.32 1454.1 M1403.32 1450.39 Q1409.13 1450.39 1412.19 1455 Q1415.27 1459.58 1415.27 1468.33 Q1415.27 1477.06 1412.19 1481.67 Q1409.13 1486.25 1403.32 1486.25 Q1397.51 1486.25 1394.44 1481.67 Q1391.38 1477.06 1391.38 1468.33 Q1391.38 1459.58 1394.44 1455 Q1397.51 1450.39 1403.32 1450.39 Z" fill="#000000" fill-rule="nonzero" fill-opacity="1" /><path clip-path="url(#clip770)" d="M1433.49 1454.1 Q1429.88 1454.1 1428.05 1457.66 Q1426.24 1461.2 1426.24 1468.33 Q1426.24 1475.44 1428.05 1479.01 Q1429.88 1482.55 1433.49 1482.55 Q1437.12 1482.55 1438.93 1479.01 Q1440.76 1475.44 1440.76 1468.33 Q1440.76 1461.2 1438.93 1457.66 Q1437.12 1454.1 1433.49 1454.1 M1433.49 1450.39 Q1439.3 1450.39 1442.35 1455 Q1445.43 1459.58 1445.43 1468.33 Q1445.43 1477.06 1442.35 1481.67 Q1439.3 1486.25 1433.49 1486.25 Q1427.68 1486.25 1424.6 1481.67 Q1421.54 1477.06 1421.54 1468.33 Q1421.54 1459.58 1424.6 1455 Q1427.68 1450.39 1433.49 1450.39 Z" fill="#000000" fill-rule="nonzero" fill-opacity="1" /><path clip-path="url(#clip770)" d="M1463.65 1454.1 Q1460.04 1454.1 1458.21 1457.66 Q1456.4 1461.2 1456.4 1468.33 Q1456.4 1475.44 1458.21 1479.01 Q1460.04 1482.55 1463.65 1482.55 Q1467.28 1482.55 1469.09 1479.01 Q1470.92 1475.44 1470.92 1468.33 Q1470.92 1461.2 1469.09 1457.66 Q1467.28 1454.1 1463.65 1454.1 M1463.65 1450.39 Q1469.46 1450.39 1472.51 1455 Q1475.59 1459.58 1475.59 1468.33 Q1475.59 1477.06 1472.51 1481.67 Q1469.46 1486.25 1463.65 1486.25 Q1457.84 1486.25 1454.76 1481.67 Q1451.7 1477.06 1451.7 1468.33 Q1451.7 1459.58 1454.76 1455 Q1457.84 1450.39 1463.65 1450.39 Z" fill="#000000" fill-rule="nonzero" fill-opacity="1" /><path clip-path="url(#clip770)" d="M1810.8 1469.17 Q1807.47 1469.17 1805.55 1470.95 Q1803.65 1472.73 1803.65 1475.86 Q1803.65 1478.98 1805.55 1480.77 Q1807.47 1482.55 1810.8 1482.55 Q1814.13 1482.55 1816.06 1480.77 Q1817.98 1478.96 1817.98 1475.86 Q1817.98 1472.73 1816.06 1470.95 Q1814.16 1469.17 1810.8 1469.17 M1806.12 1467.18 Q1803.12 1466.44 1801.43 1464.38 Q1799.76 1462.32 1799.76 1459.35 Q1799.76 1455.21 1802.7 1452.8 Q1805.66 1450.39 1810.8 1450.39 Q1815.96 1450.39 1818.9 1452.8 Q1821.84 1455.21 1821.84 1459.35 Q1821.84 1462.32 1820.15 1464.38 Q1818.49 1466.44 1815.5 1467.18 Q1818.88 1467.96 1820.75 1470.26 Q1822.65 1472.55 1822.65 1475.86 Q1822.65 1480.88 1819.57 1483.57 Q1816.52 1486.25 1810.8 1486.25 Q1805.08 1486.25 1802 1483.57 Q1798.95 1480.88 1798.95 1475.86 Q1798.95 1472.55 1800.85 1470.26 Q1802.74 1467.96 1806.12 1467.18 M1804.41 1459.79 Q1804.41 1462.48 1806.08 1463.98 Q1807.77 1465.49 1810.8 1465.49 Q1813.81 1465.49 1815.5 1463.98 Q1817.21 1462.48 1817.21 1459.79 Q1817.21 1457.11 1815.5 1455.6 Q1813.81 1454.1 1810.8 1454.1 Q1807.77 1454.1 1806.08 1455.6 Q1804.41 1457.11 1804.41 1459.79 Z" fill="#000000" fill-rule="nonzero" fill-opacity="1" /><path clip-path="url(#clip770)" d="M1840.96 1454.1 Q1837.35 1454.1 1835.52 1457.66 Q1833.72 1461.2 1833.72 1468.33 Q1833.72 1475.44 1835.52 1479.01 Q1837.35 1482.55 1840.96 1482.55 Q1844.6 1482.55 1846.4 1479.01 Q1848.23 1475.44 1848.23 1468.33 Q1848.23 1461.2 1846.4 1457.66 Q1844.6 1454.1 1840.96 1454.1 M1840.96 1450.39 Q1846.77 1450.39 1849.83 1455 Q1852.91 1459.58 1852.91 1468.33 Q1852.91 1477.06 1849.83 1481.67 Q1846.77 1486.25 1840.96 1486.25 Q1835.15 1486.25 1832.07 1481.67 Q1829.02 1477.06 1829.02 1468.33 Q1829.02 1459.58 1832.07 1455 Q1835.15 1450.39 1840.96 1450.39 Z" fill="#000000" fill-rule="nonzero" fill-opacity="1" /><path clip-path="url(#clip770)" d="M1871.12 1454.1 Q1867.51 1454.1 1865.68 1457.66 Q1863.88 1461.2 1863.88 1468.33 Q1863.88 1475.44 1865.68 1479.01 Q1867.51 1482.55 1871.12 1482.55 Q1874.76 1482.55 1876.56 1479.01 Q1878.39 1475.44 1878.39 1468.33 Q1878.39 1461.2 1876.56 1457.66 Q1874.76 1454.1 1871.12 1454.1 M1871.12 1450.39 Q1876.93 1450.39 1879.99 1455 Q1883.07 1459.58 1883.07 1468.33 Q1883.07 1477.06 1879.99 1481.67 Q1876.93 1486.25 1871.12 1486.25 Q1865.31 1486.25 1862.24 1481.67 Q1859.18 1477.06 1859.18 1468.33 Q1859.18 1459.58 1862.24 1455 Q1865.31 1450.39 1871.12 1450.39 Z" fill="#000000" fill-rule="nonzero" fill-opacity="1" /><path clip-path="url(#clip770)" d="M1901.29 1454.1 Q1897.68 1454.1 1895.85 1457.66 Q1894.04 1461.2 1894.04 1468.33 Q1894.04 1475.44 1895.85 1479.01 Q1897.68 1482.55 1901.29 1482.55 Q1904.92 1482.55 1906.73 1479.01 Q1908.55 1475.44 1908.55 1468.33 Q1908.55 1461.2 1906.73 1457.66 Q1904.92 1454.1 1901.29 1454.1 M1901.29 1450.39 Q1907.1 1450.39 1910.15 1455 Q1913.23 1459.58 1913.23 1468.33 Q1913.23 1477.06 1910.15 1481.67 Q1907.1 1486.25 1901.29 1486.25 Q1895.48 1486.25 1892.4 1481.67 Q1889.34 1477.06 1889.34 1468.33 Q1889.34 1459.58 1892.4 1455 Q1895.48 1450.39 1901.29 1450.39 Z" fill="#000000" fill-rule="nonzero" fill-opacity="1" /><path clip-path="url(#clip770)" d="M2223.13 1481.64 L2230.76 1481.64 L2230.76 1455.28 L2222.45 1456.95 L2222.45 1452.69 L2230.72 1451.02 L2235.39 1451.02 L2235.39 1481.64 L2243.03 1481.64 L2243.03 1485.58 L2223.13 1485.58 L2223.13 1481.64 Z" fill="#000000" fill-rule="nonzero" fill-opacity="1" /><path clip-path="url(#clip770)" d="M2262.48 1454.1 Q2258.87 1454.1 2257.04 1457.66 Q2255.23 1461.2 2255.23 1468.33 Q2255.23 1475.44 2257.04 1479.01 Q2258.87 1482.55 2262.48 1482.55 Q2266.11 1482.55 2267.92 1479.01 Q2269.75 1475.44 2269.75 1468.33 Q2269.75 1461.2 2267.92 1457.66 Q2266.11 1454.1 2262.48 1454.1 M2262.48 1450.39 Q2268.29 1450.39 2271.34 1455 Q2274.42 1459.58 2274.42 1468.33 Q2274.42 1477.06 2271.34 1481.67 Q2268.29 1486.25 2262.48 1486.25 Q2256.67 1486.25 2253.59 1481.67 Q2250.53 1477.06 2250.53 1468.33 Q2250.53 1459.58 2253.59 1455 Q2256.67 1450.39 2262.48 1450.39 Z" fill="#000000" fill-rule="nonzero" fill-opacity="1" /><path clip-path="url(#clip770)" d="M2292.64 1454.1 Q2289.03 1454.1 2287.2 1457.66 Q2285.39 1461.2 2285.39 1468.33 Q2285.39 1475.44 2287.2 1479.01 Q2289.03 1482.55 2292.64 1482.55 Q2296.27 1482.55 2298.08 1479.01 Q2299.91 1475.44 2299.91 1468.33 Q2299.91 1461.2 2298.08 1457.66 Q2296.27 1454.1 2292.64 1454.1 M2292.64 1450.39 Q2298.45 1450.39 2301.51 1455 Q2304.58 1459.58 2304.58 1468.33 Q2304.58 1477.06 2301.51 1481.67 Q2298.45 1486.25 2292.64 1486.25 Q2286.83 1486.25 2283.75 1481.67 Q2280.7 1477.06 2280.7 1468.33 Q2280.7 1459.58 2283.75 1455 Q2286.83 1450.39 2292.64 1450.39 Z" fill="#000000" fill-rule="nonzero" fill-opacity="1" /><path clip-path="url(#clip770)" d="M2322.8 1454.1 Q2319.19 1454.1 2317.36 1457.66 Q2315.56 1461.2 2315.56 1468.33 Q2315.56 1475.44 2317.36 1479.01 Q2319.19 1482.55 2322.8 1482.55 Q2326.44 1482.55 2328.24 1479.01 Q2330.07 1475.44 2330.07 1468.33 Q2330.07 1461.2 2328.24 1457.66 Q2326.44 1454.1 2322.8 1454.1 M2322.8 1450.39 Q2328.61 1450.39 2331.67 1455 Q2334.75 1459.58 2334.75 1468.33 Q2334.75 1477.06 2331.67 1481.67 Q2328.61 1486.25 2322.8 1486.25 Q2316.99 1486.25 2313.91 1481.67 Q2310.86 1477.06 2310.86 1468.33 Q2310.86 1459.58 2313.91 1455 Q2316.99 1450.39 2322.8 1450.39 Z" fill="#000000" fill-rule="nonzero" fill-opacity="1" /><path clip-path="url(#clip770)" d="M2352.96 1454.1 Q2349.35 1454.1 2347.52 1457.66 Q2345.72 1461.2 2345.72 1468.33 Q2345.72 1475.44 2347.52 1479.01 Q2349.35 1482.55 2352.96 1482.55 Q2356.6 1482.55 2358.4 1479.01 Q2360.23 1475.44 2360.23 1468.33 Q2360.23 1461.2 2358.4 1457.66 Q2356.6 1454.1 2352.96 1454.1 M2352.96 1450.39 Q2358.77 1450.39 2361.83 1455 Q2364.91 1459.58 2364.91 1468.33 Q2364.91 1477.06 2361.83 1481.67 Q2358.77 1486.25 2352.96 1486.25 Q2347.15 1486.25 2344.07 1481.67 Q2341.02 1477.06 2341.02 1468.33 Q2341.02 1459.58 2344.07 1455 Q2347.15 1450.39 2352.96 1450.39 Z" fill="#000000" fill-rule="nonzero" fill-opacity="1" /><path clip-path="url(#clip770)" d="M1291.12 1520.52 L1299.77 1520.52 L1320.85 1560.28 L1320.85 1520.52 L1327.08 1520.52 L1327.08 1568.04 L1318.43 1568.04 L1297.36 1528.29 L1297.36 1568.04 L1291.12 1568.04 L1291.12 1520.52 Z" fill="#000000" fill-rule="nonzero" fill-opacity="1" /><polyline clip-path="url(#clip770)" style="stroke:#000000; stroke-linecap:round; stroke-linejoin:round; stroke-width:4; stroke-opacity:1; fill:none" points="265.445,1423.18 265.445,183.952 "/>
<polyline clip-path="url(#clip770)" style="stroke:#000000; stroke-linecap:round; stroke-linejoin:round; stroke-width:4; stroke-opacity:1; fill:none" points="265.445,1390.3 284.342,1390.3 "/>
<polyline clip-path="url(#clip770)" style="stroke:#000000; stroke-linecap:round; stroke-linejoin:round; stroke-width:4; stroke-opacity:1; fill:none" points="265.445,1101.99 284.342,1101.99 "/>
<polyline clip-path="url(#clip770)" style="stroke:#000000; stroke-linecap:round; stroke-linejoin:round; stroke-width:4; stroke-opacity:1; fill:none" points="265.445,813.688 284.342,813.688 "/>
<polyline clip-path="url(#clip770)" style="stroke:#000000; stroke-linecap:round; stroke-linejoin:round; stroke-width:4; stroke-opacity:1; fill:none" points="265.445,525.38 284.342,525.38 "/>
<polyline clip-path="url(#clip770)" style="stroke:#000000; stroke-linecap:round; stroke-linejoin:round; stroke-width:4; stroke-opacity:1; fill:none" points="265.445,237.073 284.342,237.073 "/>
<path clip-path="url(#clip770)" d="M217.5 1376.1 Q213.889 1376.1 212.061 1379.67 Q210.255 1383.21 210.255 1390.34 Q210.255 1397.44 212.061 1401.01 Q213.889 1404.55 217.5 1404.55 Q221.135 1404.55 222.94 1401.01 Q224.769 1397.44 224.769 1390.34 Q224.769 1383.21 222.94 1379.67 Q221.135 1376.1 217.5 1376.1 M217.5 1372.4 Q223.31 1372.4 226.366 1377 Q229.445 1381.59 229.445 1390.34 Q229.445 1399.06 226.366 1403.67 Q223.31 1408.25 217.5 1408.25 Q211.69 1408.25 208.612 1403.67 Q205.556 1399.06 205.556 1390.34 Q205.556 1381.59 208.612 1377 Q211.69 1372.4 217.5 1372.4 Z" fill="#000000" fill-rule="nonzero" fill-opacity="1" /><path clip-path="url(#clip770)" d="M117.825 1115.34 L125.464 1115.34 L125.464 1088.97 L117.154 1090.64 L117.154 1086.38 L125.418 1084.71 L130.093 1084.71 L130.093 1115.34 L137.732 1115.34 L137.732 1119.27 L117.825 1119.27 L117.825 1115.34 Z" fill="#000000" fill-rule="nonzero" fill-opacity="1" /><path clip-path="url(#clip770)" d="M157.177 1087.79 Q153.566 1087.79 151.737 1091.36 Q149.931 1094.9 149.931 1102.03 Q149.931 1109.14 151.737 1112.7 Q153.566 1116.24 157.177 1116.24 Q160.811 1116.24 162.616 1112.7 Q164.445 1109.14 164.445 1102.03 Q164.445 1094.9 162.616 1091.36 Q160.811 1087.79 157.177 1087.79 M157.177 1084.09 Q162.987 1084.09 166.042 1088.7 Q169.121 1093.28 169.121 1102.03 Q169.121 1110.76 166.042 1115.36 Q162.987 1119.95 157.177 1119.95 Q151.366 1119.95 148.288 1115.36 Q145.232 1110.76 145.232 1102.03 Q145.232 1093.28 148.288 1088.7 Q151.366 1084.09 157.177 1084.09 Z" fill="#000000" fill-rule="nonzero" fill-opacity="1" /><path clip-path="url(#clip770)" d="M187.338 1087.79 Q183.727 1087.79 181.899 1091.36 Q180.093 1094.9 180.093 1102.03 Q180.093 1109.14 181.899 1112.7 Q183.727 1116.24 187.338 1116.24 Q190.973 1116.24 192.778 1112.7 Q194.607 1109.14 194.607 1102.03 Q194.607 1094.9 192.778 1091.36 Q190.973 1087.79 187.338 1087.79 M187.338 1084.09 Q193.149 1084.09 196.204 1088.7 Q199.283 1093.28 199.283 1102.03 Q199.283 1110.76 196.204 1115.36 Q193.149 1119.95 187.338 1119.95 Q181.528 1119.95 178.45 1115.36 Q175.394 1110.76 175.394 1102.03 Q175.394 1093.28 178.45 1088.7 Q181.528 1084.09 187.338 1084.09 Z" fill="#000000" fill-rule="nonzero" fill-opacity="1" /><path clip-path="url(#clip770)" d="M217.5 1087.79 Q213.889 1087.79 212.061 1091.36 Q210.255 1094.9 210.255 1102.03 Q210.255 1109.14 212.061 1112.7 Q213.889 1116.24 217.5 1116.24 Q221.135 1116.24 222.94 1112.7 Q224.769 1109.14 224.769 1102.03 Q224.769 1094.9 222.94 1091.36 Q221.135 1087.79 217.5 1087.79 M217.5 1084.09 Q223.31 1084.09 226.366 1088.7 Q229.445 1093.28 229.445 1102.03 Q229.445 1110.76 226.366 1115.36 Q223.31 1119.95 217.5 1119.95 Q211.69 1119.95 208.612 1115.36 Q205.556 1110.76 205.556 1102.03 Q205.556 1093.28 208.612 1088.7 Q211.69 1084.09 217.5 1084.09 Z" fill="#000000" fill-rule="nonzero" fill-opacity="1" /><path clip-path="url(#clip770)" d="M121.043 827.032 L137.362 827.032 L137.362 830.968 L115.418 830.968 L115.418 827.032 Q118.08 824.278 122.663 819.648 Q127.269 814.995 128.45 813.653 Q130.695 811.13 131.575 809.394 Q132.478 807.634 132.478 805.945 Q132.478 803.19 130.533 801.454 Q128.612 799.718 125.51 799.718 Q123.311 799.718 120.857 800.482 Q118.427 801.245 115.649 802.796 L115.649 798.074 Q118.473 796.94 120.927 796.361 Q123.38 795.783 125.418 795.783 Q130.788 795.783 133.982 798.468 Q137.177 801.153 137.177 805.644 Q137.177 807.773 136.367 809.695 Q135.579 811.593 133.473 814.185 Q132.894 814.857 129.792 818.074 Q126.691 821.269 121.043 827.032 Z" fill="#000000" fill-rule="nonzero" fill-opacity="1" /><path clip-path="url(#clip770)" d="M157.177 799.486 Q153.566 799.486 151.737 803.051 Q149.931 806.593 149.931 813.722 Q149.931 820.829 151.737 824.393 Q153.566 827.935 157.177 827.935 Q160.811 827.935 162.616 824.393 Q164.445 820.829 164.445 813.722 Q164.445 806.593 162.616 803.051 Q160.811 799.486 157.177 799.486 M157.177 795.783 Q162.987 795.783 166.042 800.389 Q169.121 804.972 169.121 813.722 Q169.121 822.449 166.042 827.056 Q162.987 831.639 157.177 831.639 Q151.366 831.639 148.288 827.056 Q145.232 822.449 145.232 813.722 Q145.232 804.972 148.288 800.389 Q151.366 795.783 157.177 795.783 Z" fill="#000000" fill-rule="nonzero" fill-opacity="1" /><path clip-path="url(#clip770)" d="M187.338 799.486 Q183.727 799.486 181.899 803.051 Q180.093 806.593 180.093 813.722 Q180.093 820.829 181.899 824.393 Q183.727 827.935 187.338 827.935 Q190.973 827.935 192.778 824.393 Q194.607 820.829 194.607 813.722 Q194.607 806.593 192.778 803.051 Q190.973 799.486 187.338 799.486 M187.338 795.783 Q193.149 795.783 196.204 800.389 Q199.283 804.972 199.283 813.722 Q199.283 822.449 196.204 827.056 Q193.149 831.639 187.338 831.639 Q181.528 831.639 178.45 827.056 Q175.394 822.449 175.394 813.722 Q175.394 804.972 178.45 800.389 Q181.528 795.783 187.338 795.783 Z" fill="#000000" fill-rule="nonzero" fill-opacity="1" /><path clip-path="url(#clip770)" d="M217.5 799.486 Q213.889 799.486 212.061 803.051 Q210.255 806.593 210.255 813.722 Q210.255 820.829 212.061 824.393 Q213.889 827.935 217.5 827.935 Q221.135 827.935 222.94 824.393 Q224.769 820.829 224.769 813.722 Q224.769 806.593 222.94 803.051 Q221.135 799.486 217.5 799.486 M217.5 795.783 Q223.31 795.783 226.366 800.389 Q229.445 804.972 229.445 813.722 Q229.445 822.449 226.366 827.056 Q223.31 831.639 217.5 831.639 Q211.69 831.639 208.612 827.056 Q205.556 822.449 205.556 813.722 Q205.556 804.972 208.612 800.389 Q211.69 795.783 217.5 795.783 Z" fill="#000000" fill-rule="nonzero" fill-opacity="1" /><path clip-path="url(#clip770)" d="M131.181 524.026 Q134.538 524.744 136.413 527.012 Q138.311 529.281 138.311 532.614 Q138.311 537.73 134.792 540.53 Q131.274 543.331 124.793 543.331 Q122.617 543.331 120.302 542.892 Q118.01 542.475 115.556 541.618 L115.556 537.105 Q117.501 538.239 119.816 538.818 Q122.13 539.396 124.654 539.396 Q129.052 539.396 131.343 537.66 Q133.658 535.924 133.658 532.614 Q133.658 529.558 131.505 527.845 Q129.376 526.109 125.556 526.109 L121.529 526.109 L121.529 522.267 L125.742 522.267 Q129.191 522.267 131.019 520.901 Q132.848 519.512 132.848 516.919 Q132.848 514.257 130.95 512.845 Q129.075 511.41 125.556 511.41 Q123.635 511.41 121.436 511.827 Q119.237 512.244 116.598 513.123 L116.598 508.957 Q119.26 508.216 121.575 507.845 Q123.913 507.475 125.973 507.475 Q131.297 507.475 134.399 509.906 Q137.501 512.313 137.501 516.433 Q137.501 519.304 135.857 521.294 Q134.214 523.262 131.181 524.026 Z" fill="#000000" fill-rule="nonzero" fill-opacity="1" /><path clip-path="url(#clip770)" d="M157.177 511.179 Q153.566 511.179 151.737 514.744 Q149.931 518.285 149.931 525.415 Q149.931 532.521 151.737 536.086 Q153.566 539.628 157.177 539.628 Q160.811 539.628 162.616 536.086 Q164.445 532.521 164.445 525.415 Q164.445 518.285 162.616 514.744 Q160.811 511.179 157.177 511.179 M157.177 507.475 Q162.987 507.475 166.042 512.082 Q169.121 516.665 169.121 525.415 Q169.121 534.142 166.042 538.748 Q162.987 543.331 157.177 543.331 Q151.366 543.331 148.288 538.748 Q145.232 534.142 145.232 525.415 Q145.232 516.665 148.288 512.082 Q151.366 507.475 157.177 507.475 Z" fill="#000000" fill-rule="nonzero" fill-opacity="1" /><path clip-path="url(#clip770)" d="M187.338 511.179 Q183.727 511.179 181.899 514.744 Q180.093 518.285 180.093 525.415 Q180.093 532.521 181.899 536.086 Q183.727 539.628 187.338 539.628 Q190.973 539.628 192.778 536.086 Q194.607 532.521 194.607 525.415 Q194.607 518.285 192.778 514.744 Q190.973 511.179 187.338 511.179 M187.338 507.475 Q193.149 507.475 196.204 512.082 Q199.283 516.665 199.283 525.415 Q199.283 534.142 196.204 538.748 Q193.149 543.331 187.338 543.331 Q181.528 543.331 178.45 538.748 Q175.394 534.142 175.394 525.415 Q175.394 516.665 178.45 512.082 Q181.528 507.475 187.338 507.475 Z" fill="#000000" fill-rule="nonzero" fill-opacity="1" /><path clip-path="url(#clip770)" d="M217.5 511.179 Q213.889 511.179 212.061 514.744 Q210.255 518.285 210.255 525.415 Q210.255 532.521 212.061 536.086 Q213.889 539.628 217.5 539.628 Q221.135 539.628 222.94 536.086 Q224.769 532.521 224.769 525.415 Q224.769 518.285 222.94 514.744 Q221.135 511.179 217.5 511.179 M217.5 507.475 Q223.31 507.475 226.366 512.082 Q229.445 516.665 229.445 525.415 Q229.445 534.142 226.366 538.748 Q223.31 543.331 217.5 543.331 Q211.69 543.331 208.612 538.748 Q205.556 534.142 205.556 525.415 Q205.556 516.665 208.612 512.082 Q211.69 507.475 217.5 507.475 Z" fill="#000000" fill-rule="nonzero" fill-opacity="1" /><path clip-path="url(#clip770)" d="M129.862 223.867 L118.056 242.316 L129.862 242.316 L129.862 223.867 M128.635 219.793 L134.515 219.793 L134.515 242.316 L139.445 242.316 L139.445 246.205 L134.515 246.205 L134.515 254.353 L129.862 254.353 L129.862 246.205 L114.26 246.205 L114.26 241.691 L128.635 219.793 Z" fill="#000000" fill-rule="nonzero" fill-opacity="1" /><path clip-path="url(#clip770)" d="M157.177 222.871 Q153.566 222.871 151.737 226.436 Q149.931 229.978 149.931 237.107 Q149.931 244.214 151.737 247.779 Q153.566 251.32 157.177 251.32 Q160.811 251.32 162.616 247.779 Q164.445 244.214 164.445 237.107 Q164.445 229.978 162.616 226.436 Q160.811 222.871 157.177 222.871 M157.177 219.168 Q162.987 219.168 166.042 223.774 Q169.121 228.357 169.121 237.107 Q169.121 245.834 166.042 250.441 Q162.987 255.024 157.177 255.024 Q151.366 255.024 148.288 250.441 Q145.232 245.834 145.232 237.107 Q145.232 228.357 148.288 223.774 Q151.366 219.168 157.177 219.168 Z" fill="#000000" fill-rule="nonzero" fill-opacity="1" /><path clip-path="url(#clip770)" d="M187.338 222.871 Q183.727 222.871 181.899 226.436 Q180.093 229.978 180.093 237.107 Q180.093 244.214 181.899 247.779 Q183.727 251.32 187.338 251.32 Q190.973 251.32 192.778 247.779 Q194.607 244.214 194.607 237.107 Q194.607 229.978 192.778 226.436 Q190.973 222.871 187.338 222.871 M187.338 219.168 Q193.149 219.168 196.204 223.774 Q199.283 228.357 199.283 237.107 Q199.283 245.834 196.204 250.441 Q193.149 255.024 187.338 255.024 Q181.528 255.024 178.45 250.441 Q175.394 245.834 175.394 237.107 Q175.394 228.357 178.45 223.774 Q181.528 219.168 187.338 219.168 Z" fill="#000000" fill-rule="nonzero" fill-opacity="1" /><path clip-path="url(#clip770)" d="M217.5 222.871 Q213.889 222.871 212.061 226.436 Q210.255 229.978 210.255 237.107 Q210.255 244.214 212.061 247.779 Q213.889 251.32 217.5 251.32 Q221.135 251.32 222.94 247.779 Q224.769 244.214 224.769 237.107 Q224.769 229.978 222.94 226.436 Q221.135 222.871 217.5 222.871 M217.5 219.168 Q223.31 219.168 226.366 223.774 Q229.445 228.357 229.445 237.107 Q229.445 245.834 226.366 250.441 Q223.31 255.024 217.5 255.024 Q211.69 255.024 208.612 250.441 Q205.556 245.834 205.556 237.107 Q205.556 228.357 208.612 223.774 Q211.69 219.168 217.5 219.168 Z" fill="#000000" fill-rule="nonzero" fill-opacity="1" /><path clip-path="url(#clip770)" d="M20.1444 1146.23 L26.9239 1146.23 Q23.9002 1149.48 22.4043 1153.17 Q20.9083 1156.83 20.9083 1160.97 Q20.9083 1169.12 25.9054 1173.45 Q30.8707 1177.77 40.2919 1177.77 Q49.6813 1177.77 54.6784 1173.45 Q59.6436 1169.12 59.6436 1160.97 Q59.6436 1156.83 58.1477 1153.17 Q56.6518 1149.48 53.6281 1146.23 L60.3439 1146.23 Q62.6355 1149.61 63.7814 1153.39 Q64.9272 1157.15 64.9272 1161.35 Q64.9272 1172.14 58.3387 1178.35 Q51.7183 1184.55 40.2919 1184.55 Q28.8336 1184.55 22.2451 1178.35 Q15.6248 1172.14 15.6248 1161.35 Q15.6248 1157.09 16.7706 1153.33 Q17.8846 1149.54 20.1444 1146.23 Z" fill="#000000" fill-rule="nonzero" fill-opacity="1" /><path clip-path="url(#clip770)" d="M32.4621 1122.74 Q32.4621 1127.45 36.1542 1130.19 Q39.8145 1132.93 46.212 1132.93 Q52.6095 1132.93 56.3017 1130.22 Q59.9619 1127.48 59.9619 1122.74 Q59.9619 1118.06 56.2698 1115.33 Q52.5777 1112.59 46.212 1112.59 Q39.8781 1112.59 36.186 1115.33 Q32.4621 1118.06 32.4621 1122.74 M27.4968 1122.74 Q27.4968 1115.1 32.4621 1110.74 Q37.4273 1106.38 46.212 1106.38 Q54.9649 1106.38 59.9619 1110.74 Q64.9272 1115.1 64.9272 1122.74 Q64.9272 1130.41 59.9619 1134.77 Q54.9649 1139.1 46.212 1139.1 Q37.4273 1139.1 32.4621 1134.77 Q27.4968 1130.41 27.4968 1122.74 Z" fill="#000000" fill-rule="nonzero" fill-opacity="1" /><path clip-path="url(#clip770)" d="M35.1993 1068.92 Q31.2526 1066.72 29.3747 1063.67 Q27.4968 1060.61 27.4968 1056.48 Q27.4968 1050.91 31.4117 1047.88 Q35.2948 1044.86 42.4881 1044.86 L64.0042 1044.86 L64.0042 1050.75 L42.679 1050.75 Q37.5546 1050.75 35.072 1052.56 Q32.5894 1054.37 32.5894 1058.1 Q32.5894 1062.65 35.6131 1065.29 Q38.6368 1067.93 43.8567 1067.93 L64.0042 1067.93 L64.0042 1073.82 L42.679 1073.82 Q37.5228 1073.82 35.072 1075.64 Q32.5894 1077.45 32.5894 1081.24 Q32.5894 1085.73 35.6449 1088.37 Q38.6686 1091.01 43.8567 1091.01 L64.0042 1091.01 L64.0042 1096.9 L28.3562 1096.9 L28.3562 1091.01 L33.8944 1091.01 Q30.616 1089 29.0564 1086.2 Q27.4968 1083.4 27.4968 1079.55 Q27.4968 1075.67 29.4702 1072.96 Q31.4436 1070.23 35.1993 1068.92 Z" fill="#000000" fill-rule="nonzero" fill-opacity="1" /><path clip-path="url(#clip770)" d="M58.657 1027.51 L77.5631 1027.51 L77.5631 1033.4 L28.3562 1033.4 L28.3562 1027.51 L33.7671 1027.51 Q30.5842 1025.67 29.0564 1022.86 Q27.4968 1020.03 27.4968 1016.12 Q27.4968 1009.62 32.6531 1005.58 Q37.8093 1001.51 46.212 1001.51 Q54.6147 1001.51 59.771 1005.58 Q64.9272 1009.62 64.9272 1016.12 Q64.9272 1020.03 63.3994 1022.86 Q61.8398 1025.67 58.657 1027.51 M46.212 1007.59 Q39.7508 1007.59 36.0905 1010.26 Q32.3984 1012.9 32.3984 1017.55 Q32.3984 1022.2 36.0905 1024.87 Q39.7508 1027.51 46.212 1027.51 Q52.6732 1027.51 56.3653 1024.87 Q60.0256 1022.2 60.0256 1017.55 Q60.0256 1012.9 56.3653 1010.26 Q52.6732 1007.59 46.212 1007.59 Z" fill="#000000" fill-rule="nonzero" fill-opacity="1" /><path clip-path="url(#clip770)" d="M49.9359 992.405 L28.3562 992.405 L28.3562 986.548 L49.7131 986.548 Q54.7739 986.548 57.3202 984.575 Q59.8346 982.601 59.8346 978.655 Q59.8346 973.912 56.8109 971.175 Q53.7872 968.406 48.5673 968.406 L28.3562 968.406 L28.3562 962.55 L64.0042 962.55 L64.0042 968.406 L58.5296 968.406 Q61.7762 970.538 63.3676 973.371 Q64.9272 976.172 64.9272 979.896 Q64.9272 986.039 61.1078 989.222 Q57.2883 992.405 49.9359 992.405 M27.4968 977.668 L27.4968 977.668 Z" fill="#000000" fill-rule="nonzero" fill-opacity="1" /><path clip-path="url(#clip770)" d="M18.2347 944.694 L28.3562 944.694 L28.3562 932.631 L32.9077 932.631 L32.9077 944.694 L52.2594 944.694 Q56.6199 944.694 57.8613 943.516 Q59.1026 942.307 59.1026 938.646 L59.1026 932.631 L64.0042 932.631 L64.0042 938.646 Q64.0042 945.426 61.4897 948.004 Q58.9434 950.582 52.2594 950.582 L32.9077 950.582 L32.9077 954.879 L28.3562 954.879 L28.3562 950.582 L18.2347 950.582 L18.2347 944.694 Z" fill="#000000" fill-rule="nonzero" fill-opacity="1" /><path clip-path="url(#clip770)" d="M46.0847 908.727 Q46.0847 915.825 47.7079 918.562 Q49.3312 921.3 53.2461 921.3 Q56.3653 921.3 58.2114 919.263 Q60.0256 917.194 60.0256 913.661 Q60.0256 908.791 56.5881 905.863 Q53.1188 902.903 47.3897 902.903 L46.0847 902.903 L46.0847 908.727 M43.6657 897.046 L64.0042 897.046 L64.0042 902.903 L58.5933 902.903 Q61.8398 904.908 63.3994 907.9 Q64.9272 910.892 64.9272 915.22 Q64.9272 920.695 61.8716 923.941 Q58.7843 927.156 53.6281 927.156 Q47.6125 927.156 44.5569 923.146 Q41.5014 919.104 41.5014 911.115 L41.5014 902.903 L40.9285 902.903 Q36.8862 902.903 34.6901 905.576 Q32.4621 908.218 32.4621 913.024 Q32.4621 916.08 33.1941 918.976 Q33.9262 921.873 35.3903 924.546 L29.9795 924.546 Q28.7381 921.332 28.1334 918.308 Q27.4968 915.284 27.4968 912.42 Q27.4968 904.685 31.5072 900.866 Q35.5176 897.046 43.6657 897.046 Z" fill="#000000" fill-rule="nonzero" fill-opacity="1" /><path clip-path="url(#clip770)" d="M18.2347 879.191 L28.3562 879.191 L28.3562 867.128 L32.9077 867.128 L32.9077 879.191 L52.2594 879.191 Q56.6199 879.191 57.8613 878.013 Q59.1026 876.803 59.1026 873.143 L59.1026 867.128 L64.0042 867.128 L64.0042 873.143 Q64.0042 879.923 61.4897 882.501 Q58.9434 885.079 52.2594 885.079 L32.9077 885.079 L32.9077 889.376 L28.3562 889.376 L28.3562 885.079 L18.2347 885.079 L18.2347 879.191 Z" fill="#000000" fill-rule="nonzero" fill-opacity="1" /><path clip-path="url(#clip770)" d="M28.3562 859.425 L28.3562 853.569 L64.0042 853.569 L64.0042 859.425 L28.3562 859.425 M14.479 859.425 L14.479 853.569 L21.895 853.569 L21.895 859.425 L14.479 859.425 Z" fill="#000000" fill-rule="nonzero" fill-opacity="1" /><path clip-path="url(#clip770)" d="M32.4621 827.501 Q32.4621 832.212 36.1542 834.949 Q39.8145 837.686 46.212 837.686 Q52.6095 837.686 56.3017 834.981 Q59.9619 832.243 59.9619 827.501 Q59.9619 822.822 56.2698 820.085 Q52.5777 817.348 46.212 817.348 Q39.8781 817.348 36.186 820.085 Q32.4621 822.822 32.4621 827.501 M27.4968 827.501 Q27.4968 819.862 32.4621 815.502 Q37.4273 811.141 46.212 811.141 Q54.9649 811.141 59.9619 815.502 Q64.9272 819.862 64.9272 827.501 Q64.9272 835.172 59.9619 839.532 Q54.9649 843.861 46.212 843.861 Q37.4273 843.861 32.4621 839.532 Q27.4968 835.172 27.4968 827.501 Z" fill="#000000" fill-rule="nonzero" fill-opacity="1" /><path clip-path="url(#clip770)" d="M42.4881 771.801 L64.0042 771.801 L64.0042 777.658 L42.679 777.658 Q37.6183 777.658 35.1038 779.631 Q32.5894 781.604 32.5894 785.551 Q32.5894 790.293 35.6131 793.031 Q38.6368 795.768 43.8567 795.768 L64.0042 795.768 L64.0042 801.656 L28.3562 801.656 L28.3562 795.768 L33.8944 795.768 Q30.6797 793.667 29.0883 790.835 Q27.4968 787.97 27.4968 784.246 Q27.4968 778.103 31.3163 774.952 Q35.1038 771.801 42.4881 771.801 Z" fill="#000000" fill-rule="nonzero" fill-opacity="1" /><path clip-path="url(#clip770)" d="M16.4842 745.734 L16.4842 705.534 L21.895 705.534 L21.895 722.403 L64.0042 722.403 L64.0042 728.864 L21.895 728.864 L21.895 745.734 L16.4842 745.734 Z" fill="#000000" fill-rule="nonzero" fill-opacity="1" /><path clip-path="url(#clip770)" d="M28.3562 701.587 L28.3562 695.731 L64.0042 695.731 L64.0042 701.587 L28.3562 701.587 M14.479 701.587 L14.479 695.731 L21.895 695.731 L21.895 701.587 L14.479 701.587 Z" fill="#000000" fill-rule="nonzero" fill-opacity="1" /><path clip-path="url(#clip770)" d="M35.1993 655.722 Q31.2526 653.526 29.3747 650.471 Q27.4968 647.415 27.4968 643.277 Q27.4968 637.707 31.4117 634.684 Q35.2948 631.66 42.4881 631.66 L64.0042 631.66 L64.0042 637.548 L42.679 637.548 Q37.5546 637.548 35.072 639.363 Q32.5894 641.177 32.5894 644.901 Q32.5894 649.452 35.6131 652.094 Q38.6368 654.736 43.8567 654.736 L64.0042 654.736 L64.0042 660.624 L42.679 660.624 Q37.5228 660.624 35.072 662.438 Q32.5894 664.252 32.5894 668.04 Q32.5894 672.528 35.6449 675.17 Q38.6686 677.811 43.8567 677.811 L64.0042 677.811 L64.0042 683.7 L28.3562 683.7 L28.3562 677.811 L33.8944 677.811 Q30.616 675.806 29.0564 673.005 Q27.4968 670.204 27.4968 666.353 Q27.4968 662.47 29.4702 659.765 Q31.4436 657.027 35.1993 655.722 Z" fill="#000000" fill-rule="nonzero" fill-opacity="1" /><path clip-path="url(#clip770)" d="M44.7161 589.487 L47.5806 589.487 L47.5806 616.414 Q53.6281 616.032 56.8109 612.786 Q59.9619 609.507 59.9619 603.683 Q59.9619 600.309 59.1344 597.158 Q58.3069 593.975 56.6518 590.856 L62.1899 590.856 Q63.5267 594.007 64.227 597.317 Q64.9272 600.627 64.9272 604.033 Q64.9272 612.563 59.9619 617.56 Q54.9967 622.525 46.5303 622.525 Q37.7774 622.525 32.6531 617.815 Q27.4968 613.072 27.4968 605.051 Q27.4968 597.858 32.1438 593.689 Q36.7589 589.487 44.7161 589.487 M42.9973 595.344 Q38.1912 595.407 35.3266 598.049 Q32.4621 600.659 32.4621 604.988 Q32.4621 609.889 35.2312 612.849 Q38.0002 615.778 43.0292 616.223 L42.9973 595.344 Z" fill="#000000" fill-rule="nonzero" fill-opacity="1" /><path clip-path="url(#clip770)" d="M14.479 559.696 L14.479 546.2 L19.0304 546.2 L19.0304 553.839 L68.0464 553.839 L68.0464 546.2 L72.5979 546.2 L72.5979 559.696 L14.479 559.696 Z" fill="#000000" fill-rule="nonzero" fill-opacity="1" /><path clip-path="url(#clip770)" d="M35.1993 505.969 Q31.2526 503.773 29.3747 500.717 Q27.4968 497.662 27.4968 493.524 Q27.4968 487.954 31.4117 484.931 Q35.2948 481.907 42.4881 481.907 L64.0042 481.907 L64.0042 487.795 L42.679 487.795 Q37.5546 487.795 35.072 489.609 Q32.5894 491.424 32.5894 495.147 Q32.5894 499.699 35.6131 502.341 Q38.6368 504.983 43.8567 504.983 L64.0042 504.983 L64.0042 510.871 L42.679 510.871 Q37.5228 510.871 35.072 512.685 Q32.5894 514.499 32.5894 518.287 Q32.5894 522.775 35.6449 525.416 Q38.6686 528.058 43.8567 528.058 L64.0042 528.058 L64.0042 533.946 L28.3562 533.946 L28.3562 528.058 L33.8944 528.058 Q30.616 526.053 29.0564 523.252 Q27.4968 520.451 27.4968 516.6 Q27.4968 512.717 29.4702 510.011 Q31.4436 507.274 35.1993 505.969 Z" fill="#000000" fill-rule="nonzero" fill-opacity="1" /><path clip-path="url(#clip770)" d="M29.4065 447.5 L34.9447 447.5 Q33.6716 449.983 33.035 452.656 Q32.3984 455.33 32.3984 458.195 Q32.3984 462.555 33.7352 464.751 Q35.072 466.916 37.7456 466.916 Q39.7826 466.916 40.9603 465.356 Q42.1061 463.796 43.1565 459.086 L43.6021 457.081 Q44.9389 450.842 47.3897 448.232 Q49.8086 445.59 54.1691 445.59 Q59.1344 445.59 62.0308 449.537 Q64.9272 453.452 64.9272 460.327 Q64.9272 463.192 64.3543 466.311 Q63.8132 469.398 62.6992 472.836 L56.6518 472.836 Q58.3387 469.589 59.198 466.438 Q60.0256 463.287 60.0256 460.2 Q60.0256 456.062 58.6251 453.834 Q57.1929 451.606 54.6147 451.606 Q52.2276 451.606 50.9545 453.229 Q49.6813 454.821 48.5037 460.263 L48.0262 462.3 Q46.8804 467.743 44.5251 470.162 Q42.138 472.581 38.0002 472.581 Q32.9713 472.581 30.2341 469.016 Q27.4968 465.451 27.4968 458.895 Q27.4968 455.648 27.9743 452.784 Q28.4517 449.919 29.4065 447.5 Z" fill="#000000" fill-rule="nonzero" fill-opacity="1" /><path clip-path="url(#clip770)" d="M14.479 422.578 L72.5979 422.578 L72.5979 436.074 L68.0464 436.074 L68.0464 428.467 L19.0304 428.467 L19.0304 436.074 L14.479 436.074 L14.479 422.578 Z" fill="#000000" fill-rule="nonzero" fill-opacity="1" /><path clip-path="url(#clip770)" d="M796.033 65.3877 Q798.666 66.2789 801.137 69.1955 Q803.649 72.1122 806.16 77.2163 L814.465 93.744 L805.674 93.744 L797.937 78.229 Q794.939 72.1527 792.104 70.1677 Q789.309 68.1828 784.447 68.1828 L775.535 68.1828 L775.535 93.744 L767.353 93.744 L767.353 33.264 L785.825 33.264 Q796.195 33.264 801.299 37.5985 Q806.403 41.9329 806.403 50.6829 Q806.403 56.3947 803.73 60.162 Q801.097 63.9293 796.033 65.3877 M775.535 39.9885 L775.535 61.4583 L785.825 61.4583 Q791.739 61.4583 794.737 58.7442 Q797.775 55.9896 797.775 50.6829 Q797.775 45.3762 794.737 42.7026 Q791.739 39.9885 785.825 39.9885 L775.535 39.9885 Z" fill="#000000" fill-rule="nonzero" fill-opacity="1" /><path clip-path="url(#clip770)" d="M824.673 48.3739 L832.127 48.3739 L832.127 93.744 L824.673 93.744 L824.673 48.3739 M824.673 30.7119 L832.127 30.7119 L832.127 40.1505 L824.673 40.1505 L824.673 30.7119 Z" fill="#000000" fill-rule="nonzero" fill-opacity="1" /><path clip-path="url(#clip770)" d="M885.436 66.3599 L885.436 93.744 L877.983 93.744 L877.983 66.6029 Q877.983 60.162 875.471 56.9618 Q872.96 53.7616 867.937 53.7616 Q861.901 53.7616 858.417 57.6099 Q854.933 61.4583 854.933 68.1018 L854.933 93.744 L847.439 93.744 L847.439 48.3739 L854.933 48.3739 L854.933 55.4224 Q857.607 51.331 861.212 49.3056 Q864.858 47.2801 869.597 47.2801 Q877.416 47.2801 881.426 52.1412 Q885.436 56.9618 885.436 66.3599 Z" fill="#000000" fill-rule="nonzero" fill-opacity="1" /><path clip-path="url(#clip770)" d="M930.158 70.5323 Q930.158 62.4305 926.796 57.9745 Q923.474 53.5185 917.439 53.5185 Q911.443 53.5185 908.081 57.9745 Q904.759 62.4305 904.759 70.5323 Q904.759 78.5936 908.081 83.0496 Q911.443 87.5056 917.439 87.5056 Q923.474 87.5056 926.796 83.0496 Q930.158 78.5936 930.158 70.5323 M937.612 88.1132 Q937.612 99.6988 932.467 105.33 Q927.323 111.001 916.709 111.001 Q912.78 111.001 909.296 110.393 Q905.813 109.826 902.531 108.611 L902.531 101.36 Q905.813 103.142 909.013 103.993 Q912.213 104.843 915.535 104.843 Q922.867 104.843 926.513 100.995 Q930.158 97.1873 930.158 89.45 L930.158 85.7637 Q927.849 89.7741 924.244 91.7591 Q920.639 93.744 915.616 93.744 Q907.271 93.744 902.167 87.3841 Q897.063 81.0242 897.063 70.5323 Q897.063 60 902.167 53.64 Q907.271 47.2801 915.616 47.2801 Q920.639 47.2801 924.244 49.2651 Q927.849 51.25 930.158 55.2604 L930.158 48.3739 L937.612 48.3739 L937.612 88.1132 Z" fill="#000000" fill-rule="nonzero" fill-opacity="1" /><path clip-path="url(#clip770)" d="M1015.92 35.2489 L1015.92 43.2292 Q1011.26 41.0012 1007.13 39.9075 Q1002.99 38.8137 999.145 38.8137 Q992.461 38.8137 988.816 41.4063 Q985.21 43.9989 985.21 48.779 Q985.21 52.7894 987.6 54.8553 Q990.031 56.8808 996.755 58.1366 L1001.7 59.1493 Q1010.85 60.8912 1015.19 65.3067 Q1019.56 69.6816 1019.56 77.0543 Q1019.56 85.8447 1013.65 90.3817 Q1007.77 94.9188 996.391 94.9188 Q992.097 94.9188 987.236 93.9465 Q982.415 92.9743 977.23 91.0704 L977.23 82.6445 Q982.213 85.4396 986.993 86.8575 Q991.773 88.2753 996.391 88.2753 Q1003.4 88.2753 1007.21 85.5207 Q1011.01 82.766 1011.01 77.6619 Q1011.01 73.2059 1008.26 70.6944 Q1005.55 68.1828 999.307 66.927 L994.325 65.9548 Q985.17 64.1319 981.078 60.243 Q976.987 56.3542 976.987 49.4271 Q976.987 41.4063 982.618 36.7883 Q988.289 32.1703 998.214 32.1703 Q1002.47 32.1703 1006.88 32.9399 Q1011.3 33.7096 1015.92 35.2489 Z" fill="#000000" fill-rule="nonzero" fill-opacity="1" /><path clip-path="url(#clip770)" d="M1049.58 53.5995 Q1043.58 53.5995 1040.1 58.2986 Q1036.62 62.9571 1036.62 71.0994 Q1036.62 79.2418 1040.06 83.9408 Q1043.54 88.5994 1049.58 88.5994 Q1055.53 88.5994 1059.02 83.9003 Q1062.5 79.2013 1062.5 71.0994 Q1062.5 63.0381 1059.02 58.3391 Q1055.53 53.5995 1049.58 53.5995 M1049.58 47.2801 Q1059.3 47.2801 1064.85 53.5995 Q1070.4 59.9189 1070.4 71.0994 Q1070.4 82.2394 1064.85 88.5994 Q1059.3 94.9188 1049.58 94.9188 Q1039.82 94.9188 1034.27 88.5994 Q1028.76 82.2394 1028.76 71.0994 Q1028.76 59.9189 1034.27 53.5995 Q1039.82 47.2801 1049.58 47.2801 Z" fill="#000000" fill-rule="nonzero" fill-opacity="1" /><path clip-path="url(#clip770)" d="M1081.99 75.839 L1081.99 48.3739 L1089.44 48.3739 L1089.44 75.5554 Q1089.44 81.9964 1091.95 85.2371 Q1094.46 88.4373 1099.49 88.4373 Q1105.52 88.4373 1109.01 84.589 Q1112.53 80.7406 1112.53 74.0971 L1112.53 48.3739 L1119.98 48.3739 L1119.98 93.744 L1112.53 93.744 L1112.53 86.7764 Q1109.82 90.9084 1106.21 92.9338 Q1102.65 94.9188 1097.91 94.9188 Q1090.09 94.9188 1086.04 90.0577 Q1081.99 85.1966 1081.99 75.839 M1100.74 47.2801 L1100.74 47.2801 Z" fill="#000000" fill-rule="nonzero" fill-opacity="1" /><path clip-path="url(#clip770)" d="M1161.63 55.3414 Q1160.37 54.6123 1158.87 54.2882 Q1157.41 53.9236 1155.63 53.9236 Q1149.31 53.9236 1145.91 58.0555 Q1142.55 62.1469 1142.55 69.8437 L1142.55 93.744 L1135.05 93.744 L1135.05 48.3739 L1142.55 48.3739 L1142.55 55.4224 Q1144.9 51.2905 1148.66 49.3056 Q1152.43 47.2801 1157.82 47.2801 Q1158.59 47.2801 1159.52 47.4017 Q1160.45 47.4827 1161.59 47.6852 L1161.63 55.3414 Z" fill="#000000" fill-rule="nonzero" fill-opacity="1" /><path clip-path="url(#clip770)" d="M1200.27 50.1158 L1200.27 57.0833 Q1197.11 55.3414 1193.91 54.4907 Q1190.75 53.5995 1187.51 53.5995 Q1180.26 53.5995 1176.25 58.2176 Q1172.24 62.7951 1172.24 71.0994 Q1172.24 79.4038 1176.25 84.0218 Q1180.26 88.5994 1187.51 88.5994 Q1190.75 88.5994 1193.91 87.7487 Q1197.11 86.8575 1200.27 85.1156 L1200.27 92.0021 Q1197.15 93.4604 1193.79 94.1896 Q1190.47 94.9188 1186.7 94.9188 Q1176.45 94.9188 1170.42 88.4778 Q1164.38 82.0369 1164.38 71.0994 Q1164.38 60 1170.46 53.64 Q1176.57 47.2801 1187.19 47.2801 Q1190.63 47.2801 1193.91 48.0093 Q1197.19 48.6979 1200.27 50.1158 Z" fill="#000000" fill-rule="nonzero" fill-opacity="1" /><path clip-path="url(#clip770)" d="M1252.04 69.1955 L1252.04 72.8413 L1217.77 72.8413 Q1218.26 80.5381 1222.39 84.589 Q1226.56 88.5994 1233.98 88.5994 Q1238.27 88.5994 1242.28 87.5461 Q1246.33 86.4929 1250.3 84.3864 L1250.3 91.435 Q1246.29 93.1364 1242.08 94.0276 Q1237.87 94.9188 1233.53 94.9188 Q1222.67 94.9188 1216.31 88.5994 Q1209.99 82.2799 1209.99 71.5045 Q1209.99 60.3645 1215.99 53.8426 Q1222.03 47.2801 1232.23 47.2801 Q1241.39 47.2801 1246.7 53.1944 Q1252.04 59.0683 1252.04 69.1955 M1244.59 67.008 Q1244.51 60.8912 1241.15 57.2454 Q1237.82 53.5995 1232.32 53.5995 Q1226.08 53.5995 1222.31 57.1238 Q1218.58 60.6481 1218.02 67.0485 L1244.59 67.008 Z" fill="#000000" fill-rule="nonzero" fill-opacity="1" /><path clip-path="url(#clip770)" d="M1286.88 67.6967 L1308.72 67.6967 L1308.72 74.3402 L1286.88 74.3402 L1286.88 67.6967 Z" fill="#000000" fill-rule="nonzero" fill-opacity="1" /><path clip-path="url(#clip770)" d="M1355.46 64.8611 L1355.46 87.0195 L1368.59 87.0195 Q1375.19 87.0195 1378.35 84.3054 Q1381.55 81.5508 1381.55 75.92 Q1381.55 70.2488 1378.35 67.5752 Q1375.19 64.8611 1368.59 64.8611 L1355.46 64.8611 M1355.46 39.9885 L1355.46 58.2176 L1367.58 58.2176 Q1373.57 58.2176 1376.49 55.9896 Q1379.44 53.7211 1379.44 49.103 Q1379.44 44.5255 1376.49 42.257 Q1373.57 39.9885 1367.58 39.9885 L1355.46 39.9885 M1347.28 33.264 L1368.18 33.264 Q1377.54 33.264 1382.6 37.1529 Q1387.67 41.0417 1387.67 48.2118 Q1387.67 53.7616 1385.08 57.0428 Q1382.48 60.324 1377.46 61.1342 Q1383.5 62.4305 1386.82 66.5624 Q1390.18 70.6538 1390.18 76.8112 Q1390.18 84.913 1384.67 89.3285 Q1379.16 93.744 1368.99 93.744 L1347.28 93.744 L1347.28 33.264 Z" fill="#000000" fill-rule="nonzero" fill-opacity="1" /><path clip-path="url(#clip770)" d="M1442.68 69.1955 L1442.68 72.8413 L1408.41 72.8413 Q1408.89 80.5381 1413.03 84.589 Q1417.2 88.5994 1424.61 88.5994 Q1428.91 88.5994 1432.92 87.5461 Q1436.97 86.4929 1440.94 84.3864 L1440.94 91.435 Q1436.93 93.1364 1432.71 94.0276 Q1428.5 94.9188 1424.17 94.9188 Q1413.31 94.9188 1406.95 88.5994 Q1400.63 82.2799 1400.63 71.5045 Q1400.63 60.3645 1406.63 53.8426 Q1412.66 47.2801 1422.87 47.2801 Q1432.03 47.2801 1437.33 53.1944 Q1442.68 59.0683 1442.68 69.1955 M1435.23 67.008 Q1435.14 60.8912 1431.78 57.2454 Q1428.46 53.5995 1422.95 53.5995 Q1416.71 53.5995 1412.95 57.1238 Q1409.22 60.6481 1408.65 67.0485 L1435.23 67.008 Z" fill="#000000" fill-rule="nonzero" fill-opacity="1" /><path clip-path="url(#clip770)" d="M1492.63 66.3599 L1492.63 93.744 L1485.17 93.744 L1485.17 66.6029 Q1485.17 60.162 1482.66 56.9618 Q1480.15 53.7616 1475.13 53.7616 Q1469.09 53.7616 1465.61 57.6099 Q1462.12 61.4583 1462.12 68.1018 L1462.12 93.744 L1454.63 93.744 L1454.63 48.3739 L1462.12 48.3739 L1462.12 55.4224 Q1464.8 51.331 1468.4 49.3056 Q1472.05 47.2801 1476.79 47.2801 Q1484.61 47.2801 1488.62 52.1412 Q1492.63 56.9618 1492.63 66.3599 Z" fill="#000000" fill-rule="nonzero" fill-opacity="1" /><path clip-path="url(#clip770)" d="M1540.14 50.1158 L1540.14 57.0833 Q1536.98 55.3414 1533.78 54.4907 Q1530.62 53.5995 1527.38 53.5995 Q1520.13 53.5995 1516.12 58.2176 Q1512.11 62.7951 1512.11 71.0994 Q1512.11 79.4038 1516.12 84.0218 Q1520.13 88.5994 1527.38 88.5994 Q1530.62 88.5994 1533.78 87.7487 Q1536.98 86.8575 1540.14 85.1156 L1540.14 92.0021 Q1537.02 93.4604 1533.66 94.1896 Q1530.34 94.9188 1526.57 94.9188 Q1516.32 94.9188 1510.29 88.4778 Q1504.25 82.0369 1504.25 71.0994 Q1504.25 60 1510.33 53.64 Q1516.45 47.2801 1527.06 47.2801 Q1530.5 47.2801 1533.78 48.0093 Q1537.06 48.6979 1540.14 50.1158 Z" fill="#000000" fill-rule="nonzero" fill-opacity="1" /><path clip-path="url(#clip770)" d="M1590.82 66.3599 L1590.82 93.744 L1583.37 93.744 L1583.37 66.6029 Q1583.37 60.162 1580.86 56.9618 Q1578.34 53.7616 1573.32 53.7616 Q1567.28 53.7616 1563.8 57.6099 Q1560.32 61.4583 1560.32 68.1018 L1560.32 93.744 L1552.82 93.744 L1552.82 30.7119 L1560.32 30.7119 L1560.32 55.4224 Q1562.99 51.331 1566.6 49.3056 Q1570.24 47.2801 1574.98 47.2801 Q1582.8 47.2801 1586.81 52.1412 Q1590.82 56.9618 1590.82 66.3599 Z" fill="#000000" fill-rule="nonzero" fill-opacity="1" /><path clip-path="url(#clip770)" d="M1641.01 57.0833 Q1643.81 52.0602 1647.7 49.6702 Q1651.58 47.2801 1656.85 47.2801 Q1663.94 47.2801 1667.79 52.2627 Q1671.64 57.2048 1671.64 66.3599 L1671.64 93.744 L1664.14 93.744 L1664.14 66.6029 Q1664.14 60.081 1661.83 56.9213 Q1659.52 53.7616 1654.78 53.7616 Q1648.99 53.7616 1645.63 57.6099 Q1642.27 61.4583 1642.27 68.1018 L1642.27 93.744 L1634.77 93.744 L1634.77 66.6029 Q1634.77 60.0405 1632.46 56.9213 Q1630.15 53.7616 1625.33 53.7616 Q1619.62 53.7616 1616.26 57.6504 Q1612.9 61.4988 1612.9 68.1018 L1612.9 93.744 L1605.4 93.744 L1605.4 48.3739 L1612.9 48.3739 L1612.9 55.4224 Q1615.45 51.25 1619.01 49.2651 Q1622.58 47.2801 1627.48 47.2801 Q1632.42 47.2801 1635.87 49.7917 Q1639.35 52.3032 1641.01 57.0833 Z" fill="#000000" fill-rule="nonzero" fill-opacity="1" /><path clip-path="url(#clip770)" d="M1707.12 70.9374 Q1698.09 70.9374 1694.6 73.0034 Q1691.12 75.0693 1691.12 80.0519 Q1691.12 84.0218 1693.71 86.3714 Q1696.35 88.6804 1700.84 88.6804 Q1707.04 88.6804 1710.77 84.3054 Q1714.54 79.8899 1714.54 72.5983 L1714.54 70.9374 L1707.12 70.9374 M1721.99 67.8587 L1721.99 93.744 L1714.54 93.744 L1714.54 86.8575 Q1711.98 90.9894 1708.18 92.9743 Q1704.37 94.9188 1698.86 94.9188 Q1691.89 94.9188 1687.76 91.0299 Q1683.67 87.1005 1683.67 80.5381 Q1683.67 72.8818 1688.77 68.993 Q1693.92 65.1041 1704.08 65.1041 L1714.54 65.1041 L1714.54 64.3749 Q1714.54 59.2303 1711.13 56.4352 Q1707.77 53.5995 1701.65 53.5995 Q1697.76 53.5995 1694.08 54.5312 Q1690.39 55.463 1686.99 57.3264 L1686.99 50.4398 Q1691.08 48.86 1694.93 48.0903 Q1698.78 47.2801 1702.42 47.2801 Q1712.27 47.2801 1717.13 52.3843 Q1721.99 57.4884 1721.99 67.8587 Z" fill="#000000" fill-rule="nonzero" fill-opacity="1" /><path clip-path="url(#clip770)" d="M1763.63 55.3414 Q1762.38 54.6123 1760.88 54.2882 Q1759.42 53.9236 1757.64 53.9236 Q1751.32 53.9236 1747.91 58.0555 Q1744.55 62.1469 1744.55 69.8437 L1744.55 93.744 L1737.06 93.744 L1737.06 48.3739 L1744.55 48.3739 L1744.55 55.4224 Q1746.9 51.2905 1750.67 49.3056 Q1754.44 47.2801 1759.82 47.2801 Q1760.59 47.2801 1761.53 47.4017 Q1762.46 47.4827 1763.59 47.6852 L1763.63 55.3414 Z" fill="#000000" fill-rule="nonzero" fill-opacity="1" /><path clip-path="url(#clip770)" d="M1771.17 30.7119 L1778.66 30.7119 L1778.66 67.9397 L1800.9 48.3739 L1810.42 48.3739 L1786.36 69.6006 L1811.43 93.744 L1801.71 93.744 L1778.66 71.5856 L1778.66 93.744 L1771.17 93.744 L1771.17 30.7119 Z" fill="#000000" fill-rule="nonzero" fill-opacity="1" /><path clip-path="url(#clip770)" d="M1848.42 49.7107 L1848.42 56.7592 Q1845.26 55.1389 1841.85 54.3287 Q1838.45 53.5185 1834.81 53.5185 Q1829.26 53.5185 1826.46 55.2199 Q1823.71 56.9213 1823.71 60.324 Q1823.71 62.9166 1825.69 64.4155 Q1827.68 65.8738 1833.67 67.2106 L1836.22 67.7777 Q1844.16 69.4791 1847.49 72.5983 Q1850.85 75.677 1850.85 81.2267 Q1850.85 87.5461 1845.82 91.2324 Q1840.84 94.9188 1832.09 94.9188 Q1828.45 94.9188 1824.48 94.1896 Q1820.55 93.5009 1816.17 92.0831 L1816.17 84.3864 Q1820.3 86.5334 1824.31 87.6271 Q1828.32 88.6804 1832.25 88.6804 Q1837.52 88.6804 1840.36 86.898 Q1843.19 85.0751 1843.19 81.7938 Q1843.19 78.7557 1841.13 77.1353 Q1839.1 75.5149 1832.17 74.0161 L1829.58 73.4085 Q1822.65 71.9501 1819.58 68.9525 Q1816.5 65.9143 1816.5 60.6481 Q1816.5 54.2477 1821.03 50.7639 Q1825.57 47.2801 1833.92 47.2801 Q1838.05 47.2801 1841.69 47.8878 Q1845.34 48.4954 1848.42 49.7107 Z" fill="#000000" fill-rule="nonzero" fill-opacity="1" /><path clip-path="url(#clip770)" d="M777.237 121.513 Q771.809 130.83 769.176 139.945 Q766.542 149.059 766.542 158.417 Q766.542 167.774 769.176 176.97 Q771.849 186.125 777.237 195.401 L770.755 195.401 Q764.679 185.882 761.641 176.686 Q758.643 167.491 758.643 158.417 Q758.643 149.383 761.641 140.228 Q764.639 131.073 770.755 121.513 L777.237 121.513 Z" fill="#000000" fill-rule="nonzero" fill-opacity="1" /><path clip-path="url(#clip770)" d="M809.279 144.32 Q803.284 144.32 799.8 149.019 Q796.317 153.677 796.317 161.819 Q796.317 169.962 799.76 174.661 Q803.244 179.319 809.279 179.319 Q815.234 179.319 818.718 174.62 Q822.202 169.921 822.202 161.819 Q822.202 153.758 818.718 149.059 Q815.234 144.32 809.279 144.32 M809.279 138 Q819.002 138 824.551 144.32 Q830.101 150.639 830.101 161.819 Q830.101 172.959 824.551 179.319 Q819.002 185.639 809.279 185.639 Q799.517 185.639 793.967 179.319 Q788.458 172.959 788.458 161.819 Q788.458 150.639 793.967 144.32 Q799.517 138 809.279 138 Z" fill="#000000" fill-rule="nonzero" fill-opacity="1" /><path clip-path="url(#clip770)" d="M880.17 157.08 L880.17 184.464 L872.717 184.464 L872.717 157.323 Q872.717 150.882 870.205 147.682 Q867.694 144.482 862.67 144.482 Q856.635 144.482 853.151 148.33 Q849.667 152.178 849.667 158.822 L849.667 184.464 L842.173 184.464 L842.173 139.094 L849.667 139.094 L849.667 146.142 Q852.341 142.051 855.946 140.026 Q859.592 138 864.331 138 Q872.15 138 876.16 142.861 Q880.17 147.682 880.17 157.08 Z" fill="#000000" fill-rule="nonzero" fill-opacity="1" /><path clip-path="url(#clip770)" d="M929.51 177.577 L958.069 177.577 L958.069 184.464 L919.667 184.464 L919.667 177.577 Q924.325 172.757 932.346 164.655 Q940.407 156.513 942.473 154.163 Q946.403 149.748 947.942 146.71 Q949.522 143.631 949.522 140.674 Q949.522 135.853 946.119 132.815 Q942.757 129.777 937.329 129.777 Q933.48 129.777 929.186 131.114 Q924.933 132.45 920.072 135.164 L920.072 126.901 Q925.014 124.916 929.308 123.903 Q933.602 122.89 937.167 122.89 Q946.565 122.89 952.155 127.589 Q957.745 132.288 957.745 140.147 Q957.745 143.874 956.327 147.236 Q954.95 150.558 951.264 155.095 Q950.251 156.27 944.823 161.9 Q939.395 167.491 929.51 177.577 Z" fill="#000000" fill-rule="nonzero" fill-opacity="1" /><path clip-path="url(#clip770)" d="M992.745 129.372 Q986.426 129.372 983.225 135.61 Q980.066 141.808 980.066 154.285 Q980.066 166.721 983.225 172.959 Q986.426 179.157 992.745 179.157 Q999.105 179.157 1002.26 172.959 Q1005.46 166.721 1005.46 154.285 Q1005.46 141.808 1002.26 135.61 Q999.105 129.372 992.745 129.372 M992.745 122.89 Q1002.91 122.89 1008.26 130.952 Q1013.65 138.972 1013.65 154.285 Q1013.65 169.557 1008.26 177.618 Q1002.91 185.639 992.745 185.639 Q982.577 185.639 977.189 177.618 Q971.842 169.557 971.842 154.285 Q971.842 138.972 977.189 130.952 Q982.577 122.89 992.745 122.89 Z" fill="#000000" fill-rule="nonzero" fill-opacity="1" /><path clip-path="url(#clip770)" d="M1035.08 177.577 L1063.64 177.577 L1063.64 184.464 L1025.23 184.464 L1025.23 177.577 Q1029.89 172.757 1037.91 164.655 Q1045.97 156.513 1048.04 154.163 Q1051.97 149.748 1053.51 146.71 Q1055.09 143.631 1055.09 140.674 Q1055.09 135.853 1051.69 132.815 Q1048.32 129.777 1042.9 129.777 Q1039.05 129.777 1034.75 131.114 Q1030.5 132.45 1025.64 135.164 L1025.64 126.901 Q1030.58 124.916 1034.87 123.903 Q1039.17 122.89 1042.73 122.89 Q1052.13 122.89 1057.72 127.589 Q1063.31 132.288 1063.31 140.147 Q1063.31 143.874 1061.89 147.236 Q1060.52 150.558 1056.83 155.095 Q1055.82 156.27 1050.39 161.9 Q1044.96 167.491 1035.08 177.577 Z" fill="#000000" fill-rule="nonzero" fill-opacity="1" /><path clip-path="url(#clip770)" d="M1082.23 177.577 L1095.6 177.577 L1095.6 131.438 L1081.05 134.354 L1081.05 126.901 L1095.52 123.984 L1103.7 123.984 L1103.7 177.577 L1117.07 177.577 L1117.07 184.464 L1082.23 184.464 L1082.23 177.577 Z" fill="#000000" fill-rule="nonzero" fill-opacity="1" /><path clip-path="url(#clip770)" d="M1159.24 123.984 L1171.43 123.984 L1186.86 165.141 L1202.38 123.984 L1214.57 123.984 L1214.57 184.464 L1206.59 184.464 L1206.59 131.357 L1191 172.838 L1182.77 172.838 L1167.18 131.357 L1167.18 184.464 L1159.24 184.464 L1159.24 123.984 Z" fill="#000000" fill-rule="nonzero" fill-opacity="1" /><path clip-path="url(#clip770)" d="M1232.96 177.577 L1246.33 177.577 L1246.33 131.438 L1231.79 134.354 L1231.79 126.901 L1246.25 123.984 L1254.43 123.984 L1254.43 177.577 L1267.8 177.577 L1267.8 184.464 L1232.96 184.464 L1232.96 177.577 Z" fill="#000000" fill-rule="nonzero" fill-opacity="1" /><path clip-path="url(#clip770)" d="M1309.97 123.984 L1322.16 123.984 L1337.6 165.141 L1353.11 123.984 L1365.31 123.984 L1365.31 184.464 L1357.33 184.464 L1357.33 131.357 L1341.73 172.838 L1333.51 172.838 L1317.91 131.357 L1317.91 184.464 L1309.97 184.464 L1309.97 123.984 Z" fill="#000000" fill-rule="nonzero" fill-opacity="1" /><path clip-path="url(#clip770)" d="M1401.85 161.657 Q1392.81 161.657 1389.33 163.723 Q1385.84 165.789 1385.84 170.772 Q1385.84 174.742 1388.44 177.091 Q1391.07 179.4 1395.57 179.4 Q1401.76 179.4 1405.49 175.025 Q1409.26 170.61 1409.26 163.318 L1409.26 161.657 L1401.85 161.657 M1416.71 158.579 L1416.71 184.464 L1409.26 184.464 L1409.26 177.577 Q1406.71 181.709 1402.9 183.694 Q1399.09 185.639 1393.58 185.639 Q1386.61 185.639 1382.48 181.75 Q1378.39 177.821 1378.39 171.258 Q1378.39 163.602 1383.5 159.713 Q1388.64 155.824 1398.81 155.824 L1409.26 155.824 L1409.26 155.095 Q1409.26 149.95 1405.86 147.155 Q1402.49 144.32 1396.38 144.32 Q1392.49 144.32 1388.8 145.251 Q1385.12 146.183 1381.71 148.046 L1381.71 141.16 Q1385.8 139.58 1389.65 138.81 Q1393.5 138 1397.15 138 Q1406.99 138 1411.85 143.104 Q1416.71 148.208 1416.71 158.579 Z" fill="#000000" fill-rule="nonzero" fill-opacity="1" /><path clip-path="url(#clip770)" d="M1464.72 140.836 L1464.72 147.803 Q1461.56 146.061 1458.36 145.211 Q1455.2 144.32 1451.96 144.32 Q1444.7 144.32 1440.69 148.938 Q1436.68 153.515 1436.68 161.819 Q1436.68 170.124 1440.69 174.742 Q1444.7 179.319 1451.96 179.319 Q1455.2 179.319 1458.36 178.469 Q1461.56 177.577 1464.72 175.836 L1464.72 182.722 Q1461.6 184.18 1458.23 184.91 Q1454.91 185.639 1451.15 185.639 Q1440.9 185.639 1434.86 179.198 Q1428.82 172.757 1428.82 161.819 Q1428.82 150.72 1434.9 144.36 Q1441.02 138 1451.63 138 Q1455.07 138 1458.36 138.729 Q1461.64 139.418 1464.72 140.836 Z" fill="#000000" fill-rule="nonzero" fill-opacity="1" /><path clip-path="url(#clip770)" d="M1486.19 155.581 L1486.19 177.739 L1499.31 177.739 Q1505.91 177.739 1509.07 175.025 Q1512.27 172.271 1512.27 166.64 Q1512.27 160.969 1509.07 158.295 Q1505.91 155.581 1499.31 155.581 L1486.19 155.581 M1486.19 130.709 L1486.19 148.938 L1498.3 148.938 Q1504.29 148.938 1507.21 146.71 Q1510.17 144.441 1510.17 139.823 Q1510.17 135.246 1507.21 132.977 Q1504.29 130.709 1498.3 130.709 L1486.19 130.709 M1478 123.984 L1498.91 123.984 Q1508.26 123.984 1513.33 127.873 Q1518.39 131.762 1518.39 138.932 Q1518.39 144.482 1515.8 147.763 Q1513.21 151.044 1508.18 151.854 Q1514.22 153.151 1517.54 157.282 Q1520.9 161.374 1520.9 167.531 Q1520.9 175.633 1515.39 180.049 Q1509.88 184.464 1499.72 184.464 L1478 184.464 L1478 123.984 Z" fill="#000000" fill-rule="nonzero" fill-opacity="1" /><path clip-path="url(#clip770)" d="M1552.17 144.32 Q1546.18 144.32 1542.7 149.019 Q1539.21 153.677 1539.21 161.819 Q1539.21 169.962 1542.66 174.661 Q1546.14 179.319 1552.17 179.319 Q1558.13 179.319 1561.61 174.62 Q1565.1 169.921 1565.1 161.819 Q1565.1 153.758 1561.61 149.059 Q1558.13 144.32 1552.17 144.32 M1552.17 138 Q1561.9 138 1567.45 144.32 Q1573 150.639 1573 161.819 Q1573 172.959 1567.45 179.319 Q1561.9 185.639 1552.17 185.639 Q1542.41 185.639 1536.86 179.319 Q1531.35 172.959 1531.35 161.819 Q1531.35 150.639 1536.86 144.32 Q1542.41 138 1552.17 138 Z" fill="#000000" fill-rule="nonzero" fill-opacity="1" /><path clip-path="url(#clip770)" d="M1602.93 144.32 Q1596.94 144.32 1593.45 149.019 Q1589.97 153.677 1589.97 161.819 Q1589.97 169.962 1593.41 174.661 Q1596.9 179.319 1602.93 179.319 Q1608.89 179.319 1612.37 174.62 Q1615.86 169.921 1615.86 161.819 Q1615.86 153.758 1612.37 149.059 Q1608.89 144.32 1602.93 144.32 M1602.93 138 Q1612.65 138 1618.2 144.32 Q1623.75 150.639 1623.75 161.819 Q1623.75 172.959 1618.2 179.319 Q1612.65 185.639 1602.93 185.639 Q1593.17 185.639 1587.62 179.319 Q1582.11 172.959 1582.11 161.819 Q1582.11 150.639 1587.62 144.32 Q1593.17 138 1602.93 138 Z" fill="#000000" fill-rule="nonzero" fill-opacity="1" /><path clip-path="url(#clip770)" d="M1635.83 121.432 L1643.32 121.432 L1643.32 158.66 L1665.56 139.094 L1675.08 139.094 L1651.02 160.321 L1676.09 184.464 L1666.37 184.464 L1643.32 162.306 L1643.32 184.464 L1635.83 184.464 L1635.83 121.432 Z" fill="#000000" fill-rule="nonzero" fill-opacity="1" /><path clip-path="url(#clip770)" d="M1719.03 130.709 L1719.03 153.434 L1729.32 153.434 Q1735.03 153.434 1738.15 150.477 Q1741.27 147.52 1741.27 142.051 Q1741.27 136.623 1738.15 133.666 Q1735.03 130.709 1729.32 130.709 L1719.03 130.709 M1710.85 123.984 L1729.32 123.984 Q1739.49 123.984 1744.67 128.602 Q1749.9 133.18 1749.9 142.051 Q1749.9 151.004 1744.67 155.581 Q1739.49 160.159 1729.32 160.159 L1719.03 160.159 L1719.03 184.464 L1710.85 184.464 L1710.85 123.984 Z" fill="#000000" fill-rule="nonzero" fill-opacity="1" /><path clip-path="url(#clip770)" d="M1785.39 146.061 Q1784.13 145.332 1782.63 145.008 Q1781.17 144.644 1779.39 144.644 Q1773.07 144.644 1769.67 148.776 Q1766.31 152.867 1766.31 160.564 L1766.31 184.464 L1758.81 184.464 L1758.81 139.094 L1766.31 139.094 L1766.31 146.142 Q1768.66 142.011 1772.42 140.026 Q1776.19 138 1781.58 138 Q1782.35 138 1783.28 138.122 Q1784.21 138.203 1785.34 138.405 L1785.39 146.061 Z" fill="#000000" fill-rule="nonzero" fill-opacity="1" /><path clip-path="url(#clip770)" d="M1808.96 144.32 Q1802.97 144.32 1799.48 149.019 Q1796 153.677 1796 161.819 Q1796 169.962 1799.44 174.661 Q1802.93 179.319 1808.96 179.319 Q1814.92 179.319 1818.4 174.62 Q1821.88 169.921 1821.88 161.819 Q1821.88 153.758 1818.4 149.059 Q1814.92 144.32 1808.96 144.32 M1808.96 138 Q1818.68 138 1824.23 144.32 Q1829.78 150.639 1829.78 161.819 Q1829.78 172.959 1824.23 179.319 Q1818.68 185.639 1808.96 185.639 Q1799.2 185.639 1793.65 179.319 Q1788.14 172.959 1788.14 161.819 Q1788.14 150.639 1793.65 144.32 Q1799.2 138 1808.96 138 Z" fill="#000000" fill-rule="nonzero" fill-opacity="1" /><path clip-path="url(#clip770)" d="M1840.96 121.513 L1847.45 121.513 Q1853.52 131.073 1856.52 140.228 Q1859.56 149.383 1859.56 158.417 Q1859.56 167.491 1856.52 176.686 Q1853.52 185.882 1847.45 195.401 L1840.96 195.401 Q1846.35 186.125 1848.98 176.97 Q1851.66 167.774 1851.66 158.417 Q1851.66 149.059 1848.98 139.945 Q1846.35 130.83 1840.96 121.513 Z" fill="#000000" fill-rule="nonzero" fill-opacity="1" /><polyline clip-path="url(#clip772)" style="stroke:#009af9; stroke-linecap:round; stroke-linejoin:round; stroke-width:4; stroke-opacity:1; fill:none" points="324.52,1378.35 543.315,1342.94 980.907,1207.24 1856.09,650.431 2293.68,219.025 "/>
<polyline clip-path="url(#clip772)" style="stroke:#e26f46; stroke-linecap:round; stroke-linejoin:round; stroke-width:4; stroke-opacity:1; fill:none" points="324.52,1384.03 543.315,1366.49 980.907,1294.61 1856.09,1022.64 2293.68,820.013 "/>
<polyline clip-path="url(#clip772)" style="stroke:#3da44d; stroke-linecap:round; stroke-linejoin:round; stroke-width:4; stroke-opacity:1; fill:none" points="324.52,1387.2 543.315,1377.93 980.907,1340.86 1856.09,1195.28 2293.68,1085.32 "/>
<polyline clip-path="url(#clip772)" style="stroke:#c271d2; stroke-linecap:round; stroke-linejoin:round; stroke-width:4; stroke-opacity:1; fill:none" points="324.52,1388.11 543.315,1382.04 980.907,1356.83 1856.09,1258.32 2293.68,1184.43 "/>
<path clip-path="url(#clip770)" d="M335.022 484.46 L660.373 484.46 L660.373 225.26 L335.022 225.26  Z" fill="#ffffff" fill-rule="evenodd" fill-opacity="1"/>
<polyline clip-path="url(#clip770)" style="stroke:#000000; stroke-linecap:round; stroke-linejoin:round; stroke-width:4; stroke-opacity:1; fill:none" points="335.022,484.46 660.373,484.46 660.373,225.26 335.022,225.26 335.022,484.46 "/>
<polyline clip-path="url(#clip770)" style="stroke:#009af9; stroke-linecap:round; stroke-linejoin:round; stroke-width:4; stroke-opacity:1; fill:none" points="358.214,277.1 497.368,277.1 "/>
<path clip-path="url(#clip770)" d="M520.561 259.82 L526.857 259.82 L542.181 288.732 L542.181 259.82 L546.718 259.82 L546.718 294.38 L540.422 294.38 L525.098 265.468 L525.098 294.38 L520.561 294.38 L520.561 259.82 Z" fill="#000000" fill-rule="nonzero" fill-opacity="1" /><path clip-path="url(#clip770)" d="M560.051 261.093 L560.051 268.454 L568.824 268.454 L568.824 271.764 L560.051 271.764 L560.051 285.838 Q560.051 289.009 560.908 289.912 Q561.787 290.815 564.449 290.815 L568.824 290.815 L568.824 294.38 L564.449 294.38 Q559.519 294.38 557.644 292.551 Q555.769 290.699 555.769 285.838 L555.769 271.764 L552.644 271.764 L552.644 268.454 L555.769 268.454 L555.769 261.093 L560.051 261.093 Z" fill="#000000" fill-rule="nonzero" fill-opacity="1" /><path clip-path="url(#clip770)" d="M574.982 272.852 L604.657 272.852 L604.657 276.741 L574.982 276.741 L574.982 272.852 M574.982 282.296 L604.657 282.296 L604.657 286.232 L574.982 286.232 L574.982 282.296 Z" fill="#000000" fill-rule="nonzero" fill-opacity="1" /><path clip-path="url(#clip770)" d="M615.56 290.445 L623.199 290.445 L623.199 264.079 L614.889 265.746 L614.889 261.486 L623.153 259.82 L627.828 259.82 L627.828 290.445 L635.467 290.445 L635.467 294.38 L615.56 294.38 L615.56 290.445 Z" fill="#000000" fill-rule="nonzero" fill-opacity="1" /><polyline clip-path="url(#clip770)" style="stroke:#e26f46; stroke-linecap:round; stroke-linejoin:round; stroke-width:4; stroke-opacity:1; fill:none" points="358.214,328.94 497.368,328.94 "/>
<path clip-path="url(#clip770)" d="M520.561 311.66 L526.857 311.66 L542.181 340.572 L542.181 311.66 L546.718 311.66 L546.718 346.22 L540.422 346.22 L525.098 317.308 L525.098 346.22 L520.561 346.22 L520.561 311.66 Z" fill="#000000" fill-rule="nonzero" fill-opacity="1" /><path clip-path="url(#clip770)" d="M560.051 312.933 L560.051 320.294 L568.824 320.294 L568.824 323.604 L560.051 323.604 L560.051 337.678 Q560.051 340.849 560.908 341.752 Q561.787 342.655 564.449 342.655 L568.824 342.655 L568.824 346.22 L564.449 346.22 Q559.519 346.22 557.644 344.391 Q555.769 342.539 555.769 337.678 L555.769 323.604 L552.644 323.604 L552.644 320.294 L555.769 320.294 L555.769 312.933 L560.051 312.933 Z" fill="#000000" fill-rule="nonzero" fill-opacity="1" /><path clip-path="url(#clip770)" d="M574.982 324.692 L604.657 324.692 L604.657 328.581 L574.982 328.581 L574.982 324.692 M574.982 334.136 L604.657 334.136 L604.657 338.072 L574.982 338.072 L574.982 334.136 Z" fill="#000000" fill-rule="nonzero" fill-opacity="1" /><path clip-path="url(#clip770)" d="M618.778 342.285 L635.097 342.285 L635.097 346.22 L613.153 346.22 L613.153 342.285 Q615.815 339.53 620.398 334.9 Q625.004 330.248 626.185 328.905 Q628.43 326.382 629.31 324.646 Q630.213 322.887 630.213 321.197 Q630.213 318.442 628.268 316.706 Q626.347 314.97 623.245 314.97 Q621.046 314.97 618.592 315.734 Q616.162 316.498 613.384 318.049 L613.384 313.326 Q616.208 312.192 618.662 311.613 Q621.116 311.035 623.153 311.035 Q628.523 311.035 631.717 313.72 Q634.912 316.405 634.912 320.896 Q634.912 323.025 634.102 324.947 Q633.315 326.845 631.208 329.437 Q630.629 330.109 627.528 333.326 Q624.426 336.521 618.778 342.285 Z" fill="#000000" fill-rule="nonzero" fill-opacity="1" /><polyline clip-path="url(#clip770)" style="stroke:#3da44d; stroke-linecap:round; stroke-linejoin:round; stroke-width:4; stroke-opacity:1; fill:none" points="358.214,380.78 497.368,380.78 "/>
<path clip-path="url(#clip770)" d="M520.561 363.5 L526.857 363.5 L542.181 392.412 L542.181 363.5 L546.718 363.5 L546.718 398.06 L540.422 398.06 L525.098 369.148 L525.098 398.06 L520.561 398.06 L520.561 363.5 Z" fill="#000000" fill-rule="nonzero" fill-opacity="1" /><path clip-path="url(#clip770)" d="M560.051 364.773 L560.051 372.134 L568.824 372.134 L568.824 375.444 L560.051 375.444 L560.051 389.518 Q560.051 392.689 560.908 393.592 Q561.787 394.495 564.449 394.495 L568.824 394.495 L568.824 398.06 L564.449 398.06 Q559.519 398.06 557.644 396.231 Q555.769 394.379 555.769 389.518 L555.769 375.444 L552.644 375.444 L552.644 372.134 L555.769 372.134 L555.769 364.773 L560.051 364.773 Z" fill="#000000" fill-rule="nonzero" fill-opacity="1" /><path clip-path="url(#clip770)" d="M574.982 376.532 L604.657 376.532 L604.657 380.421 L574.982 380.421 L574.982 376.532 M574.982 385.976 L604.657 385.976 L604.657 389.912 L574.982 389.912 L574.982 385.976 Z" fill="#000000" fill-rule="nonzero" fill-opacity="1" /><path clip-path="url(#clip770)" d="M627.597 367.574 L615.792 386.023 L627.597 386.023 L627.597 367.574 M626.37 363.5 L632.25 363.5 L632.25 386.023 L637.18 386.023 L637.18 389.912 L632.25 389.912 L632.25 398.06 L627.597 398.06 L627.597 389.912 L611.995 389.912 L611.995 385.398 L626.37 363.5 Z" fill="#000000" fill-rule="nonzero" fill-opacity="1" /><polyline clip-path="url(#clip770)" style="stroke:#c271d2; stroke-linecap:round; stroke-linejoin:round; stroke-width:4; stroke-opacity:1; fill:none" points="358.214,432.62 497.368,432.62 "/>
<path clip-path="url(#clip770)" d="M520.561 415.34 L526.857 415.34 L542.181 444.252 L542.181 415.34 L546.718 415.34 L546.718 449.9 L540.422 449.9 L525.098 420.988 L525.098 449.9 L520.561 449.9 L520.561 415.34 Z" fill="#000000" fill-rule="nonzero" fill-opacity="1" /><path clip-path="url(#clip770)" d="M560.051 416.613 L560.051 423.974 L568.824 423.974 L568.824 427.284 L560.051 427.284 L560.051 441.358 Q560.051 444.529 560.908 445.432 Q561.787 446.335 564.449 446.335 L568.824 446.335 L568.824 449.9 L564.449 449.9 Q559.519 449.9 557.644 448.071 Q555.769 446.219 555.769 441.358 L555.769 427.284 L552.644 427.284 L552.644 423.974 L555.769 423.974 L555.769 416.613 L560.051 416.613 Z" fill="#000000" fill-rule="nonzero" fill-opacity="1" /><path clip-path="url(#clip770)" d="M574.982 428.372 L604.657 428.372 L604.657 432.261 L574.982 432.261 L574.982 428.372 M574.982 437.816 L604.657 437.816 L604.657 441.752 L574.982 441.752 L574.982 437.816 Z" fill="#000000" fill-rule="nonzero" fill-opacity="1" /><path clip-path="url(#clip770)" d="M625.328 430.756 Q622.18 430.756 620.329 432.909 Q618.5 435.062 618.5 438.812 Q618.5 442.539 620.329 444.715 Q622.18 446.867 625.328 446.867 Q628.477 446.867 630.305 444.715 Q632.157 442.539 632.157 438.812 Q632.157 435.062 630.305 432.909 Q628.477 430.756 625.328 430.756 M634.611 416.104 L634.611 420.363 Q632.852 419.53 631.046 419.09 Q629.264 418.65 627.504 418.65 Q622.875 418.65 620.421 421.775 Q617.991 424.9 617.643 431.219 Q619.009 429.205 621.069 428.141 Q623.129 427.053 625.606 427.053 Q630.815 427.053 633.824 430.224 Q636.856 433.372 636.856 438.812 Q636.856 444.136 633.708 447.353 Q630.56 450.571 625.328 450.571 Q619.333 450.571 616.162 445.988 Q612.991 441.381 612.991 432.654 Q612.991 424.46 616.879 419.599 Q620.768 414.715 627.319 414.715 Q629.078 414.715 630.861 415.062 Q632.666 415.409 634.611 416.104 Z" fill="#000000" fill-rule="nonzero" fill-opacity="1" /></svg>
