<?xml version="1.0" encoding="utf-8"?>
<svg xmlns="http://www.w3.org/2000/svg" xmlns:xlink="http://www.w3.org/1999/xlink" width="600" height="400" viewBox="0 0 2400 1600">
<defs>
  <clipPath id="clip530">
    <rect x="0" y="0" width="2400" height="1600"/>
  </clipPath>
</defs>
<path clip-path="url(#clip530)" d="M0 1600 L2400 1600 L2400 8.88178e-14 L0 8.88178e-14  Z" fill="#ffffff" fill-rule="evenodd" fill-opacity="1"/>
<defs>
  <clipPath id="clip531">
    <rect x="480" y="0" width="1681" height="1600"/>
  </clipPath>
</defs>
<path clip-path="url(#clip530)" d="M309.866 1423.18 L2352.76 1423.18 L2352.76 47.2441 L309.866 47.2441  Z" fill="#ffffff" fill-rule="evenodd" fill-opacity="1"/>
<defs>
  <clipPath id="clip532">
    <rect x="309" y="47" width="2044" height="1377"/>
  </clipPath>
</defs>
<polyline clip-path="url(#clip532)" style="stroke:#000000; stroke-linecap:round; stroke-linejoin:round; stroke-width:2; stroke-opacity:0.1; fill:none" points="367.683,1423.18 367.683,47.2441 "/>
<polyline clip-path="url(#clip532)" style="stroke:#000000; stroke-linecap:round; stroke-linejoin:round; stroke-width:2; stroke-opacity:0.1; fill:none" points="849.497,1423.18 849.497,47.2441 "/>
<polyline clip-path="url(#clip532)" style="stroke:#000000; stroke-linecap:round; stroke-linejoin:round; stroke-width:2; stroke-opacity:0.1; fill:none" points="1331.31,1423.18 1331.31,47.2441 "/>
<polyline clip-path="url(#clip532)" style="stroke:#000000; stroke-linecap:round; stroke-linejoin:round; stroke-width:2; stroke-opacity:0.1; fill:none" points="1813.12,1423.18 1813.12,47.2441 "/>
<polyline clip-path="url(#clip532)" style="stroke:#000000; stroke-linecap:round; stroke-linejoin:round; stroke-width:2; stroke-opacity:0.1; fill:none" points="2294.94,1423.18 2294.94,47.2441 "/>
<polyline clip-path="url(#clip532)" style="stroke:#000000; stroke-linecap:round; stroke-linejoin:round; stroke-width:2; stroke-opacity:0.1; fill:none" points="309.866,1384.24 2352.76,1384.24 "/>
<polyline clip-path="url(#clip532)" style="stroke:#000000; stroke-linecap:round; stroke-linejoin:round; stroke-width:2; stroke-opacity:0.1; fill:none" points="309.866,1059.4 2352.76,1059.4 "/>
<polyline clip-path="url(#clip532)" style="stroke:#000000; stroke-linecap:round; stroke-linejoin:round; stroke-width:2; stroke-opacity:0.1; fill:none" points="309.866,734.562 2352.76,734.562 "/>
<polyline clip-path="url(#clip532)" style="stroke:#000000; stroke-linecap:round; stroke-linejoin:round; stroke-width:2; stroke-opacity:0.1; fill:none" points="309.866,409.724 2352.76,409.724 "/>
<polyline clip-path="url(#clip532)" style="stroke:#000000; stroke-linecap:round; stroke-linejoin:round; stroke-width:2; stroke-opacity:0.1; fill:none" points="309.866,84.8863 2352.76,84.8863 "/>
<polyline clip-path="url(#clip530)" style="stroke:#000000; stroke-linecap:round; stroke-linejoin:round; stroke-width:4; stroke-opacity:1; fill:none" points="309.866,1423.18 2352.76,1423.18 "/>
<polyline clip-path="url(#clip530)" style="stroke:#000000; stroke-linecap:round; stroke-linejoin:round; stroke-width:4; stroke-opacity:1; fill:none" points="367.683,1423.18 367.683,1404.28 "/>
<polyline clip-path="url(#clip530)" style="stroke:#000000; stroke-linecap:round; stroke-linejoin:round; stroke-width:4; stroke-opacity:1; fill:none" points="849.497,1423.18 849.497,1404.28 "/>
<polyline clip-path="url(#clip530)" style="stroke:#000000; stroke-linecap:round; stroke-linejoin:round; stroke-width:4; stroke-opacity:1; fill:none" points="1331.31,1423.18 1331.31,1404.28 "/>
<polyline clip-path="url(#clip530)" style="stroke:#000000; stroke-linecap:round; stroke-linejoin:round; stroke-width:4; stroke-opacity:1; fill:none" points="1813.12,1423.18 1813.12,1404.28 "/>
<polyline clip-path="url(#clip530)" style="stroke:#000000; stroke-linecap:round; stroke-linejoin:round; stroke-width:4; stroke-opacity:1; fill:none" points="2294.94,1423.18 2294.94,1404.28 "/>
<path clip-path="url(#clip530)" d="M314.906 1454.1 Q311.295 1454.1 309.466 1457.66 Q307.661 1461.2 307.661 1468.33 Q307.661 1475.44 309.466 1479.01 Q311.295 1482.55 314.906 1482.55 Q318.54 1482.55 320.346 1479.01 Q322.174 1475.44 322.174 1468.33 Q322.174 1461.2 320.346 1457.66 Q318.54 1454.1 314.906 1454.1 M314.906 1450.39 Q320.716 1450.39 323.772 1455 Q326.85 1459.58 326.85 1468.33 Q326.85 1477.06 323.772 1481.67 Q320.716 1486.25 314.906 1486.25 Q309.096 1486.25 306.017 1481.67 Q302.962 1477.06 302.962 1468.33 Q302.962 1459.58 306.017 1455 Q309.096 1450.39 314.906 1450.39 Z" fill="#000000" fill-rule="nonzero" fill-opacity="1" /><path clip-path="url(#clip530)" d="M335.068 1479.7 L339.952 1479.7 L339.952 1485.58 L335.068 1485.58 L335.068 1479.7 Z" fill="#000000" fill-rule="nonzero" fill-opacity="1" /><path clip-path="url(#clip530)" d="M360.137 1454.1 Q356.526 1454.1 354.697 1457.66 Q352.892 1461.2 352.892 1468.33 Q352.892 1475.44 354.697 1479.01 Q356.526 1482.55 360.137 1482.55 Q363.771 1482.55 365.577 1479.01 Q367.406 1475.44 367.406 1468.33 Q367.406 1461.2 365.577 1457.66 Q363.771 1454.1 360.137 1454.1 M360.137 1450.39 Q365.947 1450.39 369.003 1455 Q372.082 1459.58 372.082 1468.33 Q372.082 1477.06 369.003 1481.67 Q365.947 1486.25 360.137 1486.25 Q354.327 1486.25 351.248 1481.67 Q348.193 1477.06 348.193 1468.33 Q348.193 1459.58 351.248 1455 Q354.327 1450.39 360.137 1450.39 Z" fill="#000000" fill-rule="nonzero" fill-opacity="1" /><path clip-path="url(#clip530)" d="M390.299 1454.1 Q386.688 1454.1 384.859 1457.66 Q383.054 1461.2 383.054 1468.33 Q383.054 1475.44 384.859 1479.01 Q386.688 1482.55 390.299 1482.55 Q393.933 1482.55 395.739 1479.01 Q397.568 1475.44 397.568 1468.33 Q397.568 1461.2 395.739 1457.66 Q393.933 1454.1 390.299 1454.1 M390.299 1450.39 Q396.109 1450.39 399.165 1455 Q402.243 1459.58 402.243 1468.33 Q402.243 1477.06 399.165 1481.67 Q396.109 1486.25 390.299 1486.25 Q384.489 1486.25 381.41 1481.67 Q378.355 1477.06 378.355 1468.33 Q378.355 1459.58 381.41 1455 Q384.489 1450.39 390.299 1450.39 Z" fill="#000000" fill-rule="nonzero" fill-opacity="1" /><path clip-path="url(#clip530)" d="M420.461 1454.1 Q416.85 1454.1 415.021 1457.66 Q413.216 1461.2 413.216 1468.33 Q413.216 1475.44 415.021 1479.01 Q416.85 1482.55 420.461 1482.55 Q424.095 1482.55 425.901 1479.01 Q427.729 1475.44 427.729 1468.33 Q427.729 1461.2 425.901 1457.66 Q424.095 1454.1 420.461 1454.1 M420.461 1450.39 Q426.271 1450.39 429.327 1455 Q432.405 1459.58 432.405 1468.33 Q432.405 1477.06 429.327 1481.67 Q426.271 1486.25 420.461 1486.25 Q414.651 1486.25 411.572 1481.67 Q408.517 1477.06 408.517 1468.33 Q408.517 1459.58 411.572 1455 Q414.651 1450.39 420.461 1450.39 Z" fill="#000000" fill-rule="nonzero" fill-opacity="1" /><path clip-path="url(#clip530)" d="M797.217 1454.1 Q793.606 1454.1 791.778 1457.66 Q789.972 1461.2 789.972 1468.33 Q789.972 1475.44 791.778 1479.01 Q793.606 1482.55 797.217 1482.55 Q800.852 1482.55 802.657 1479.01 Q804.486 1475.44 804.486 1468.33 Q804.486 1461.2 802.657 1457.66 Q800.852 1454.1 797.217 1454.1 M797.217 1450.39 Q803.027 1450.39 806.083 1455 Q809.162 1459.58 809.162 1468.33 Q809.162 1477.06 806.083 1481.67 Q803.027 1486.25 797.217 1486.25 Q791.407 1486.25 788.328 1481.67 Q785.273 1477.06 785.273 1468.33 Q785.273 1459.58 788.328 1455 Q791.407 1450.39 797.217 1450.39 Z" fill="#000000" fill-rule="nonzero" fill-opacity="1" /><path clip-path="url(#clip530)" d="M817.379 1479.7 L822.263 1479.7 L822.263 1485.58 L817.379 1485.58 L817.379 1479.7 Z" fill="#000000" fill-rule="nonzero" fill-opacity="1" /><path clip-path="url(#clip530)" d="M842.449 1454.1 Q838.837 1454.1 837.009 1457.66 Q835.203 1461.2 835.203 1468.33 Q835.203 1475.44 837.009 1479.01 Q838.837 1482.55 842.449 1482.55 Q846.083 1482.55 847.888 1479.01 Q849.717 1475.44 849.717 1468.33 Q849.717 1461.2 847.888 1457.66 Q846.083 1454.1 842.449 1454.1 M842.449 1450.39 Q848.259 1450.39 851.314 1455 Q854.393 1459.58 854.393 1468.33 Q854.393 1477.06 851.314 1481.67 Q848.259 1486.25 842.449 1486.25 Q836.638 1486.25 833.56 1481.67 Q830.504 1477.06 830.504 1468.33 Q830.504 1459.58 833.56 1455 Q836.638 1450.39 842.449 1450.39 Z" fill="#000000" fill-rule="nonzero" fill-opacity="1" /><path clip-path="url(#clip530)" d="M866.638 1481.64 L882.958 1481.64 L882.958 1485.58 L861.013 1485.58 L861.013 1481.64 Q863.675 1478.89 868.259 1474.26 Q872.865 1469.61 874.046 1468.27 Q876.291 1465.74 877.171 1464.01 Q878.073 1462.25 878.073 1460.56 Q878.073 1457.8 876.129 1456.07 Q874.208 1454.33 871.106 1454.33 Q868.907 1454.33 866.453 1455.09 Q864.023 1455.86 861.245 1457.41 L861.245 1452.69 Q864.069 1451.55 866.523 1450.97 Q868.976 1450.39 871.013 1450.39 Q876.384 1450.39 879.578 1453.08 Q882.772 1455.77 882.772 1460.26 Q882.772 1462.39 881.962 1464.31 Q881.175 1466.2 879.069 1468.8 Q878.49 1469.47 875.388 1472.69 Q872.286 1475.88 866.638 1481.64 Z" fill="#000000" fill-rule="nonzero" fill-opacity="1" /><path clip-path="url(#clip530)" d="M892.819 1451.02 L911.175 1451.02 L911.175 1454.96 L897.101 1454.96 L897.101 1463.43 Q898.12 1463.08 899.138 1462.92 Q900.157 1462.73 901.175 1462.73 Q906.962 1462.73 910.342 1465.9 Q913.721 1469.08 913.721 1474.49 Q913.721 1480.07 910.249 1483.17 Q906.777 1486.25 900.458 1486.25 Q898.282 1486.25 896.013 1485.88 Q893.768 1485.51 891.36 1484.77 L891.36 1480.07 Q893.444 1481.2 895.666 1481.76 Q897.888 1482.32 900.365 1482.32 Q904.37 1482.32 906.707 1480.21 Q909.045 1478.1 909.045 1474.49 Q909.045 1470.88 906.707 1468.77 Q904.37 1466.67 900.365 1466.67 Q898.49 1466.67 896.615 1467.08 Q894.763 1467.5 892.819 1468.38 L892.819 1451.02 Z" fill="#000000" fill-rule="nonzero" fill-opacity="1" /><path clip-path="url(#clip530)" d="M1278.53 1454.1 Q1274.92 1454.1 1273.09 1457.66 Q1271.29 1461.2 1271.29 1468.33 Q1271.29 1475.44 1273.09 1479.01 Q1274.92 1482.55 1278.53 1482.55 Q1282.17 1482.55 1283.97 1479.01 Q1285.8 1475.44 1285.8 1468.33 Q1285.8 1461.2 1283.97 1457.66 Q1282.17 1454.1 1278.53 1454.1 M1278.53 1450.39 Q1284.34 1450.39 1287.4 1455 Q1290.48 1459.58 1290.48 1468.33 Q1290.48 1477.06 1287.4 1481.67 Q1284.34 1486.25 1278.53 1486.25 Q1272.72 1486.25 1269.64 1481.67 Q1266.59 1477.06 1266.59 1468.33 Q1266.59 1459.58 1269.64 1455 Q1272.72 1450.39 1278.53 1450.39 Z" fill="#000000" fill-rule="nonzero" fill-opacity="1" /><path clip-path="url(#clip530)" d="M1298.7 1479.7 L1303.58 1479.7 L1303.58 1485.58 L1298.7 1485.58 L1298.7 1479.7 Z" fill="#000000" fill-rule="nonzero" fill-opacity="1" /><path clip-path="url(#clip530)" d="M1323.76 1454.1 Q1320.15 1454.1 1318.32 1457.66 Q1316.52 1461.2 1316.52 1468.33 Q1316.52 1475.44 1318.32 1479.01 Q1320.15 1482.55 1323.76 1482.55 Q1327.4 1482.55 1329.2 1479.01 Q1331.03 1475.44 1331.03 1468.33 Q1331.03 1461.2 1329.2 1457.66 Q1327.4 1454.1 1323.76 1454.1 M1323.76 1450.39 Q1329.57 1450.39 1332.63 1455 Q1335.71 1459.58 1335.71 1468.33 Q1335.71 1477.06 1332.63 1481.67 Q1329.57 1486.25 1323.76 1486.25 Q1317.95 1486.25 1314.88 1481.67 Q1311.82 1477.06 1311.82 1468.33 Q1311.82 1459.58 1314.88 1455 Q1317.95 1450.39 1323.76 1450.39 Z" fill="#000000" fill-rule="nonzero" fill-opacity="1" /><path clip-path="url(#clip530)" d="M1343.97 1451.02 L1362.33 1451.02 L1362.33 1454.96 L1348.26 1454.96 L1348.26 1463.43 Q1349.27 1463.08 1350.29 1462.92 Q1351.31 1462.73 1352.33 1462.73 Q1358.12 1462.73 1361.5 1465.9 Q1364.88 1469.08 1364.88 1474.49 Q1364.88 1480.07 1361.4 1483.17 Q1357.93 1486.25 1351.61 1486.25 Q1349.44 1486.25 1347.17 1485.88 Q1344.92 1485.51 1342.51 1484.77 L1342.51 1480.07 Q1344.6 1481.2 1346.82 1481.76 Q1349.04 1482.32 1351.52 1482.32 Q1355.52 1482.32 1357.86 1480.21 Q1360.2 1478.1 1360.2 1474.49 Q1360.2 1470.88 1357.86 1468.77 Q1355.52 1466.67 1351.52 1466.67 Q1349.64 1466.67 1347.77 1467.08 Q1345.92 1467.5 1343.97 1468.38 L1343.97 1451.02 Z" fill="#000000" fill-rule="nonzero" fill-opacity="1" /><path clip-path="url(#clip530)" d="M1384.09 1454.1 Q1380.48 1454.1 1378.65 1457.66 Q1376.84 1461.2 1376.84 1468.33 Q1376.84 1475.44 1378.65 1479.01 Q1380.48 1482.55 1384.09 1482.55 Q1387.72 1482.55 1389.53 1479.01 Q1391.36 1475.44 1391.36 1468.33 Q1391.36 1461.2 1389.53 1457.66 Q1387.72 1454.1 1384.09 1454.1 M1384.09 1450.39 Q1389.9 1450.39 1392.95 1455 Q1396.03 1459.58 1396.03 1468.33 Q1396.03 1477.06 1392.95 1481.67 Q1389.9 1486.25 1384.09 1486.25 Q1378.28 1486.25 1375.2 1481.67 Q1372.14 1477.06 1372.14 1468.33 Q1372.14 1459.58 1375.2 1455 Q1378.28 1450.39 1384.09 1450.39 Z" fill="#000000" fill-rule="nonzero" fill-opacity="1" /><path clip-path="url(#clip530)" d="M1760.84 1454.1 Q1757.23 1454.1 1755.4 1457.66 Q1753.6 1461.2 1753.6 1468.33 Q1753.6 1475.44 1755.4 1479.01 Q1757.23 1482.55 1760.84 1482.55 Q1764.48 1482.55 1766.28 1479.01 Q1768.11 1475.44 1768.11 1468.33 Q1768.11 1461.2 1766.28 1457.66 Q1764.48 1454.1 1760.84 1454.1 M1760.84 1450.39 Q1766.65 1450.39 1769.71 1455 Q1772.79 1459.58 1772.79 1468.33 Q1772.79 1477.06 1769.71 1481.67 Q1766.65 1486.25 1760.84 1486.25 Q1755.03 1486.25 1751.96 1481.67 Q1748.9 1477.06 1748.9 1468.33 Q1748.9 1459.58 1751.96 1455 Q1755.03 1450.39 1760.84 1450.39 Z" fill="#000000" fill-rule="nonzero" fill-opacity="1" /><path clip-path="url(#clip530)" d="M1781.01 1479.7 L1785.89 1479.7 L1785.89 1485.58 L1781.01 1485.58 L1781.01 1479.7 Z" fill="#000000" fill-rule="nonzero" fill-opacity="1" /><path clip-path="url(#clip530)" d="M1806.08 1454.1 Q1802.46 1454.1 1800.64 1457.66 Q1798.83 1461.2 1798.83 1468.33 Q1798.83 1475.44 1800.64 1479.01 Q1802.46 1482.55 1806.08 1482.55 Q1809.71 1482.55 1811.52 1479.01 Q1813.34 1475.44 1813.34 1468.33 Q1813.34 1461.2 1811.52 1457.66 Q1809.71 1454.1 1806.08 1454.1 M1806.08 1450.39 Q1811.89 1450.39 1814.94 1455 Q1818.02 1459.58 1818.02 1468.33 Q1818.02 1477.06 1814.94 1481.67 Q1811.89 1486.25 1806.08 1486.25 Q1800.27 1486.25 1797.19 1481.67 Q1794.13 1477.06 1794.13 1468.33 Q1794.13 1459.58 1797.19 1455 Q1800.27 1450.39 1806.08 1450.39 Z" fill="#000000" fill-rule="nonzero" fill-opacity="1" /><path clip-path="url(#clip530)" d="M1825.06 1451.02 L1847.28 1451.02 L1847.28 1453.01 L1834.73 1485.58 L1829.85 1485.58 L1841.65 1454.96 L1825.06 1454.96 L1825.06 1451.02 Z" fill="#000000" fill-rule="nonzero" fill-opacity="1" /><path clip-path="url(#clip530)" d="M1856.45 1451.02 L1874.8 1451.02 L1874.8 1454.96 L1860.73 1454.96 L1860.73 1463.43 Q1861.75 1463.08 1862.77 1462.92 Q1863.78 1462.73 1864.8 1462.73 Q1870.59 1462.73 1873.97 1465.9 Q1877.35 1469.08 1877.35 1474.49 Q1877.35 1480.07 1873.88 1483.17 Q1870.4 1486.25 1864.08 1486.25 Q1861.91 1486.25 1859.64 1485.88 Q1857.4 1485.51 1854.99 1484.77 L1854.99 1480.07 Q1857.07 1481.2 1859.29 1481.76 Q1861.52 1482.32 1863.99 1482.32 Q1868 1482.32 1870.33 1480.21 Q1872.67 1478.1 1872.67 1474.49 Q1872.67 1470.88 1870.33 1468.77 Q1868 1466.67 1863.99 1466.67 Q1862.12 1466.67 1860.24 1467.08 Q1858.39 1467.5 1856.45 1468.38 L1856.45 1451.02 Z" fill="#000000" fill-rule="nonzero" fill-opacity="1" /><path clip-path="url(#clip530)" d="M2242.16 1454.1 Q2238.55 1454.1 2236.72 1457.66 Q2234.92 1461.2 2234.92 1468.33 Q2234.92 1475.44 2236.72 1479.01 Q2238.55 1482.55 2242.16 1482.55 Q2245.8 1482.55 2247.6 1479.01 Q2249.43 1475.44 2249.43 1468.33 Q2249.43 1461.2 2247.6 1457.66 Q2245.8 1454.1 2242.16 1454.1 M2242.16 1450.39 Q2247.97 1450.39 2251.03 1455 Q2254.11 1459.58 2254.11 1468.33 Q2254.11 1477.06 2251.03 1481.67 Q2247.97 1486.25 2242.16 1486.25 Q2236.35 1486.25 2233.27 1481.67 Q2230.22 1477.06 2230.22 1468.33 Q2230.22 1459.58 2233.27 1455 Q2236.35 1450.39 2242.16 1450.39 Z" fill="#000000" fill-rule="nonzero" fill-opacity="1" /><path clip-path="url(#clip530)" d="M2262.32 1479.7 L2267.21 1479.7 L2267.21 1485.58 L2262.32 1485.58 L2262.32 1479.7 Z" fill="#000000" fill-rule="nonzero" fill-opacity="1" /><path clip-path="url(#clip530)" d="M2278.2 1481.64 L2285.84 1481.64 L2285.84 1455.28 L2277.53 1456.95 L2277.53 1452.69 L2285.79 1451.02 L2290.47 1451.02 L2290.47 1481.64 L2298.11 1481.64 L2298.11 1485.58 L2278.2 1485.58 L2278.2 1481.64 Z" fill="#000000" fill-rule="nonzero" fill-opacity="1" /><path clip-path="url(#clip530)" d="M2317.55 1454.1 Q2313.94 1454.1 2312.11 1457.66 Q2310.31 1461.2 2310.31 1468.33 Q2310.31 1475.44 2312.11 1479.01 Q2313.94 1482.55 2317.55 1482.55 Q2321.19 1482.55 2322.99 1479.01 Q2324.82 1475.44 2324.82 1468.33 Q2324.82 1461.2 2322.99 1457.66 Q2321.19 1454.1 2317.55 1454.1 M2317.55 1450.39 Q2323.36 1450.39 2326.42 1455 Q2329.5 1459.58 2329.5 1468.33 Q2329.5 1477.06 2326.42 1481.67 Q2323.36 1486.25 2317.55 1486.25 Q2311.74 1486.25 2308.67 1481.67 Q2305.61 1477.06 2305.61 1468.33 Q2305.61 1459.58 2308.67 1455 Q2311.74 1450.39 2317.55 1450.39 Z" fill="#000000" fill-rule="nonzero" fill-opacity="1" /><path clip-path="url(#clip530)" d="M2347.72 1454.1 Q2344.1 1454.1 2342.28 1457.66 Q2340.47 1461.2 2340.47 1468.33 Q2340.47 1475.44 2342.28 1479.01 Q2344.1 1482.55 2347.72 1482.55 Q2351.35 1482.55 2353.16 1479.01 Q2354.98 1475.44 2354.98 1468.33 Q2354.98 1461.2 2353.16 1457.66 Q2351.35 1454.1 2347.72 1454.1 M2347.72 1450.39 Q2353.53 1450.39 2356.58 1455 Q2359.66 1459.58 2359.66 1468.33 Q2359.66 1477.06 2356.58 1481.67 Q2353.53 1486.25 2347.72 1486.25 Q2341.91 1486.25 2338.83 1481.67 Q2335.77 1477.06 2335.77 1468.33 Q2335.77 1459.58 2338.83 1455 Q2341.91 1450.39 2347.72 1450.39 Z" fill="#000000" fill-rule="nonzero" fill-opacity="1" /><path clip-path="url(#clip530)" d="M725.884 1525.81 L725.884 1562.76 L733.651 1562.76 Q743.486 1562.76 748.037 1558.3 Q752.62 1553.85 752.62 1544.24 Q752.62 1534.69 748.037 1530.26 Q743.486 1525.81 733.651 1525.81 L725.884 1525.81 M719.455 1520.52 L732.664 1520.52 Q746.477 1520.52 752.939 1526.28 Q759.4 1532.01 759.4 1544.24 Q759.4 1556.52 752.907 1562.28 Q746.414 1568.04 732.664 1568.04 L719.455 1568.04 L719.455 1520.52 Z" fill="#000000" fill-rule="nonzero" fill-opacity="1" /><path clip-path="url(#clip530)" d="M769.394 1532.4 L775.25 1532.4 L775.25 1568.04 L769.394 1568.04 L769.394 1532.4 M769.394 1518.52 L775.25 1518.52 L775.25 1525.93 L769.394 1525.93 L769.394 1518.52 Z" fill="#000000" fill-rule="nonzero" fill-opacity="1" /><path clip-path="url(#clip530)" d="M810.23 1533.45 L810.23 1538.98 Q807.747 1537.71 805.074 1537.07 Q802.4 1536.44 799.536 1536.44 Q795.175 1536.44 792.979 1537.77 Q790.815 1539.11 790.815 1541.79 Q790.815 1543.82 792.374 1545 Q793.934 1546.15 798.644 1547.2 L800.65 1547.64 Q806.888 1548.98 809.498 1551.43 Q812.14 1553.85 812.14 1558.21 Q812.14 1563.17 808.193 1566.07 Q804.278 1568.97 797.403 1568.97 Q794.539 1568.97 791.419 1568.39 Q788.332 1567.85 784.895 1566.74 L784.895 1560.69 Q788.141 1562.38 791.292 1563.24 Q794.443 1564.07 797.53 1564.07 Q801.668 1564.07 803.896 1562.66 Q806.124 1561.23 806.124 1558.65 Q806.124 1556.27 804.501 1554.99 Q802.909 1553.72 797.467 1552.54 L795.43 1552.07 Q789.987 1550.92 787.568 1548.56 Q785.149 1546.18 785.149 1542.04 Q785.149 1537.01 788.714 1534.27 Q792.279 1531.54 798.835 1531.54 Q802.082 1531.54 804.946 1532.01 Q807.811 1532.49 810.23 1533.45 Z" fill="#000000" fill-rule="nonzero" fill-opacity="1" /><path clip-path="url(#clip530)" d="M827.258 1522.27 L827.258 1532.4 L839.321 1532.4 L839.321 1536.95 L827.258 1536.95 L827.258 1556.3 Q827.258 1560.66 828.436 1561.9 Q829.645 1563.14 833.306 1563.14 L839.321 1563.14 L839.321 1568.04 L833.306 1568.04 Q826.526 1568.04 823.948 1565.53 Q821.37 1562.98 821.37 1556.3 L821.37 1536.95 L817.073 1536.95 L817.073 1532.4 L821.37 1532.4 L821.37 1522.27 L827.258 1522.27 Z" fill="#000000" fill-rule="nonzero" fill-opacity="1" /><path clip-path="url(#clip530)" d="M863.225 1550.12 Q856.127 1550.12 853.39 1551.75 Q850.652 1553.37 850.652 1557.29 Q850.652 1560.4 852.689 1562.25 Q854.758 1564.07 858.291 1564.07 Q863.161 1564.07 866.089 1560.63 Q869.049 1557.16 869.049 1551.43 L869.049 1550.12 L863.225 1550.12 M874.906 1547.71 L874.906 1568.04 L869.049 1568.04 L869.049 1562.63 Q867.044 1565.88 864.052 1567.44 Q861.06 1568.97 856.732 1568.97 Q851.257 1568.97 848.01 1565.91 Q844.796 1562.82 844.796 1557.67 Q844.796 1551.65 848.806 1548.6 Q852.848 1545.54 860.837 1545.54 L869.049 1545.54 L869.049 1544.97 Q869.049 1540.93 866.376 1538.73 Q863.734 1536.5 858.928 1536.5 Q855.872 1536.5 852.976 1537.23 Q850.079 1537.97 847.406 1539.43 L847.406 1534.02 Q850.62 1532.78 853.644 1532.17 Q856.668 1531.54 859.532 1531.54 Q867.267 1531.54 871.086 1535.55 Q874.906 1539.56 874.906 1547.71 Z" fill="#000000" fill-rule="nonzero" fill-opacity="1" /><path clip-path="url(#clip530)" d="M916.601 1546.53 L916.601 1568.04 L910.745 1568.04 L910.745 1546.72 Q910.745 1541.66 908.771 1539.14 Q906.798 1536.63 902.851 1536.63 Q898.109 1536.63 895.371 1539.65 Q892.634 1542.68 892.634 1547.9 L892.634 1568.04 L886.746 1568.04 L886.746 1532.4 L892.634 1532.4 L892.634 1537.93 Q894.735 1534.72 897.568 1533.13 Q900.432 1531.54 904.156 1531.54 Q910.299 1531.54 913.45 1535.36 Q916.601 1539.14 916.601 1546.53 Z" fill="#000000" fill-rule="nonzero" fill-opacity="1" /><path clip-path="url(#clip530)" d="M953.936 1533.76 L953.936 1539.24 Q951.453 1537.87 948.939 1537.2 Q946.456 1536.5 943.91 1536.5 Q938.213 1536.5 935.062 1540.13 Q931.91 1543.73 931.91 1550.25 Q931.91 1556.78 935.062 1560.4 Q938.213 1564 943.91 1564 Q946.456 1564 948.939 1563.33 Q951.453 1562.63 953.936 1561.26 L953.936 1566.68 Q951.485 1567.82 948.843 1568.39 Q946.233 1568.97 943.273 1568.97 Q935.221 1568.97 930.478 1563.91 Q925.736 1558.85 925.736 1550.25 Q925.736 1541.53 930.51 1536.53 Q935.316 1531.54 943.655 1531.54 Q946.361 1531.54 948.939 1532.11 Q951.517 1532.65 953.936 1533.76 Z" fill="#000000" fill-rule="nonzero" fill-opacity="1" /><path clip-path="url(#clip530)" d="M994.613 1548.76 L994.613 1551.62 L967.686 1551.62 Q968.068 1557.67 971.314 1560.85 Q974.593 1564 980.417 1564 Q983.791 1564 986.942 1563.17 Q990.125 1562.35 993.244 1560.69 L993.244 1566.23 Q990.093 1567.57 986.783 1568.27 Q983.473 1568.97 980.067 1568.97 Q971.537 1568.97 966.54 1564 Q961.575 1559.04 961.575 1550.57 Q961.575 1541.82 966.285 1536.69 Q971.028 1531.54 979.049 1531.54 Q986.242 1531.54 990.411 1536.18 Q994.613 1540.8 994.613 1548.76 M988.756 1547.04 Q988.693 1542.23 986.051 1539.37 Q983.441 1536.5 979.112 1536.5 Q974.211 1536.5 971.251 1539.27 Q968.322 1542.04 967.877 1547.07 L988.756 1547.04 Z" fill="#000000" fill-rule="nonzero" fill-opacity="1" /><path clip-path="url(#clip530)" d="M1042.99 1518.52 L1042.99 1523.39 L1037.39 1523.39 Q1034.24 1523.39 1033 1524.66 Q1031.79 1525.93 1031.79 1529.24 L1031.79 1532.4 L1041.43 1532.4 L1041.43 1536.95 L1031.79 1536.95 L1031.79 1568.04 L1025.9 1568.04 L1025.9 1536.95 L1020.3 1536.95 L1020.3 1532.4 L1025.9 1532.4 L1025.9 1529.91 Q1025.9 1523.96 1028.67 1521.26 Q1031.44 1518.52 1037.45 1518.52 L1042.99 1518.52 Z" fill="#000000" fill-rule="nonzero" fill-opacity="1" /><path clip-path="url(#clip530)" d="M1068.55 1537.87 Q1067.56 1537.3 1066.39 1537.04 Q1065.24 1536.76 1063.84 1536.76 Q1058.87 1536.76 1056.2 1540 Q1053.56 1543.22 1053.56 1549.27 L1053.56 1568.04 L1047.67 1568.04 L1047.67 1532.4 L1053.56 1532.4 L1053.56 1537.93 Q1055.41 1534.69 1058.37 1533.13 Q1061.33 1531.54 1065.56 1531.54 Q1066.16 1531.54 1066.9 1531.63 Q1067.63 1531.7 1068.52 1531.85 L1068.55 1537.87 Z" fill="#000000" fill-rule="nonzero" fill-opacity="1" /><path clip-path="url(#clip530)" d="M1087.07 1536.5 Q1082.36 1536.5 1079.63 1540.19 Q1076.89 1543.85 1076.89 1550.25 Q1076.89 1556.65 1079.59 1560.34 Q1082.33 1564 1087.07 1564 Q1091.75 1564 1094.49 1560.31 Q1097.23 1556.62 1097.23 1550.25 Q1097.23 1543.92 1094.49 1540.23 Q1091.75 1536.5 1087.07 1536.5 M1087.07 1531.54 Q1094.71 1531.54 1099.07 1536.5 Q1103.43 1541.47 1103.43 1550.25 Q1103.43 1559 1099.07 1564 Q1094.71 1568.97 1087.07 1568.97 Q1079.4 1568.97 1075.04 1564 Q1070.71 1559 1070.71 1550.25 Q1070.71 1541.47 1075.04 1536.5 Q1079.4 1531.54 1087.07 1531.54 Z" fill="#000000" fill-rule="nonzero" fill-opacity="1" /><path clip-path="url(#clip530)" d="M1140.9 1539.24 Q1143.09 1535.29 1146.15 1533.41 Q1149.2 1531.54 1153.34 1531.54 Q1158.91 1531.54 1161.94 1535.45 Q1164.96 1539.33 1164.96 1546.53 L1164.96 1568.04 L1159.07 1568.04 L1159.07 1546.72 Q1159.07 1541.59 1157.26 1539.11 Q1155.44 1536.63 1151.72 1536.63 Q1147.17 1536.63 1144.53 1539.65 Q1141.88 1542.68 1141.88 1547.9 L1141.88 1568.04 L1136 1568.04 L1136 1546.72 Q1136 1541.56 1134.18 1539.11 Q1132.37 1536.63 1128.58 1536.63 Q1124.09 1536.63 1121.45 1539.68 Q1118.81 1542.71 1118.81 1547.9 L1118.81 1568.04 L1112.92 1568.04 L1112.92 1532.4 L1118.81 1532.4 L1118.81 1537.93 Q1120.81 1534.66 1123.61 1533.1 Q1126.41 1531.54 1130.27 1531.54 Q1134.15 1531.54 1136.85 1533.51 Q1139.59 1535.48 1140.9 1539.24 Z" fill="#000000" fill-rule="nonzero" fill-opacity="1" /><path clip-path="url(#clip530)" d="M1216.9 1524.88 Q1209.9 1524.88 1205.76 1530.1 Q1201.66 1535.32 1201.66 1544.33 Q1201.66 1553.31 1205.76 1558.53 Q1209.9 1563.75 1216.9 1563.75 Q1223.91 1563.75 1227.98 1558.53 Q1232.09 1553.31 1232.09 1544.33 Q1232.09 1535.32 1227.98 1530.1 Q1223.91 1524.88 1216.9 1524.88 M1216.9 1519.66 Q1226.9 1519.66 1232.88 1526.38 Q1238.86 1533.06 1238.86 1544.33 Q1238.86 1555.57 1232.88 1562.28 Q1226.9 1568.97 1216.9 1568.97 Q1206.88 1568.97 1200.86 1562.28 Q1194.88 1555.6 1194.88 1544.33 Q1194.88 1533.06 1200.86 1526.38 Q1206.88 1519.66 1216.9 1519.66 Z" fill="#000000" fill-rule="nonzero" fill-opacity="1" /><path clip-path="url(#clip530)" d="M1269.32 1537.87 Q1268.34 1537.3 1267.16 1537.04 Q1266.01 1536.76 1264.61 1536.76 Q1259.65 1536.76 1256.98 1540 Q1254.33 1543.22 1254.33 1549.27 L1254.33 1568.04 L1248.45 1568.04 L1248.45 1532.4 L1254.33 1532.4 L1254.33 1537.93 Q1256.18 1534.69 1259.14 1533.13 Q1262.1 1531.54 1266.33 1531.54 Q1266.94 1531.54 1267.67 1531.63 Q1268.4 1531.7 1269.29 1531.85 L1269.32 1537.87 Z" fill="#000000" fill-rule="nonzero" fill-opacity="1" /><path clip-path="url(#clip530)" d="M1275.47 1532.4 L1281.32 1532.4 L1281.32 1568.04 L1275.47 1568.04 L1275.47 1532.4 M1275.47 1518.52 L1281.32 1518.52 L1281.32 1525.93 L1275.47 1525.93 L1275.47 1518.52 Z" fill="#000000" fill-rule="nonzero" fill-opacity="1" /><path clip-path="url(#clip530)" d="M1317.04 1549.81 Q1317.04 1543.44 1314.39 1539.94 Q1311.78 1536.44 1307.04 1536.44 Q1302.33 1536.44 1299.69 1539.94 Q1297.08 1543.44 1297.08 1549.81 Q1297.08 1556.14 1299.69 1559.64 Q1302.33 1563.14 1307.04 1563.14 Q1311.78 1563.14 1314.39 1559.64 Q1317.04 1556.14 1317.04 1549.81 M1322.89 1563.62 Q1322.89 1572.72 1318.85 1577.15 Q1314.81 1581.6 1306.47 1581.6 Q1303.38 1581.6 1300.64 1581.13 Q1297.91 1580.68 1295.33 1579.72 L1295.33 1574.03 Q1297.91 1575.43 1300.42 1576.1 Q1302.94 1576.76 1305.55 1576.76 Q1311.31 1576.76 1314.17 1573.74 Q1317.04 1570.75 1317.04 1564.67 L1317.04 1561.77 Q1315.22 1564.92 1312.39 1566.48 Q1309.56 1568.04 1305.61 1568.04 Q1299.05 1568.04 1295.04 1563.05 Q1291.03 1558.05 1291.03 1549.81 Q1291.03 1541.53 1295.04 1536.53 Q1299.05 1531.54 1305.61 1531.54 Q1309.56 1531.54 1312.39 1533.1 Q1315.22 1534.66 1317.04 1537.81 L1317.04 1532.4 L1322.89 1532.4 L1322.89 1563.62 Z" fill="#000000" fill-rule="nonzero" fill-opacity="1" /><path clip-path="url(#clip530)" d="M1334.96 1532.4 L1340.81 1532.4 L1340.81 1568.04 L1334.96 1568.04 L1334.96 1532.4 M1334.96 1518.52 L1340.81 1518.52 L1340.81 1525.93 L1334.96 1525.93 L1334.96 1518.52 Z" fill="#000000" fill-rule="nonzero" fill-opacity="1" /><path clip-path="url(#clip530)" d="M1382.7 1546.53 L1382.7 1568.04 L1376.84 1568.04 L1376.84 1546.72 Q1376.84 1541.66 1374.87 1539.14 Q1372.89 1536.63 1368.95 1536.63 Q1364.21 1536.63 1361.47 1539.65 Q1358.73 1542.68 1358.73 1547.9 L1358.73 1568.04 L1352.84 1568.04 L1352.84 1532.4 L1358.73 1532.4 L1358.73 1537.93 Q1360.83 1534.72 1363.66 1533.13 Q1366.53 1531.54 1370.25 1531.54 Q1376.4 1531.54 1379.55 1535.36 Q1382.7 1539.14 1382.7 1546.53 Z" fill="#000000" fill-rule="nonzero" fill-opacity="1" /><path clip-path="url(#clip530)" d="M1431.24 1526.86 L1422.52 1550.51 L1439.99 1550.51 L1431.24 1526.86 M1427.61 1520.52 L1434.9 1520.52 L1453.01 1568.04 L1446.32 1568.04 L1441.99 1555.85 L1420.57 1555.85 L1416.25 1568.04 L1409.47 1568.04 L1427.61 1520.52 Z" fill="#000000" fill-rule="nonzero" fill-opacity="1" /><path clip-path="url(#clip530)" d="M1459.69 1518.52 L1465.55 1518.52 L1465.55 1568.04 L1459.69 1568.04 L1459.69 1518.52 Z" fill="#000000" fill-rule="nonzero" fill-opacity="1" /><path clip-path="url(#clip530)" d="M1491.62 1536.5 Q1486.9 1536.5 1484.17 1540.19 Q1481.43 1543.85 1481.43 1550.25 Q1481.43 1556.65 1484.14 1560.34 Q1486.87 1564 1491.62 1564 Q1496.29 1564 1499.03 1560.31 Q1501.77 1556.62 1501.77 1550.25 Q1501.77 1543.92 1499.03 1540.23 Q1496.29 1536.5 1491.62 1536.5 M1491.62 1531.54 Q1499.25 1531.54 1503.61 1536.5 Q1507.98 1541.47 1507.98 1550.25 Q1507.98 1559 1503.61 1564 Q1499.25 1568.97 1491.62 1568.97 Q1483.94 1568.97 1479.58 1564 Q1475.26 1559 1475.26 1550.25 Q1475.26 1541.47 1479.58 1536.5 Q1483.94 1531.54 1491.62 1531.54 Z" fill="#000000" fill-rule="nonzero" fill-opacity="1" /><path clip-path="url(#clip530)" d="M1547.32 1546.53 L1547.32 1568.04 L1541.46 1568.04 L1541.46 1546.72 Q1541.46 1541.66 1539.49 1539.14 Q1537.51 1536.63 1533.57 1536.63 Q1528.82 1536.63 1526.09 1539.65 Q1523.35 1542.68 1523.35 1547.9 L1523.35 1568.04 L1517.46 1568.04 L1517.46 1532.4 L1523.35 1532.4 L1523.35 1537.93 Q1525.45 1534.72 1528.28 1533.13 Q1531.15 1531.54 1534.87 1531.54 Q1541.01 1531.54 1544.16 1535.36 Q1547.32 1539.14 1547.32 1546.53 Z" fill="#000000" fill-rule="nonzero" fill-opacity="1" /><path clip-path="url(#clip530)" d="M1582.45 1549.81 Q1582.45 1543.44 1579.81 1539.94 Q1577.2 1536.44 1572.46 1536.44 Q1567.75 1536.44 1565.11 1539.94 Q1562.5 1543.44 1562.5 1549.81 Q1562.5 1556.14 1565.11 1559.64 Q1567.75 1563.14 1572.46 1563.14 Q1577.2 1563.14 1579.81 1559.64 Q1582.45 1556.14 1582.45 1549.81 M1588.31 1563.62 Q1588.31 1572.72 1584.27 1577.15 Q1580.23 1581.6 1571.89 1581.6 Q1568.8 1581.6 1566.06 1581.13 Q1563.32 1580.68 1560.75 1579.72 L1560.75 1574.03 Q1563.32 1575.43 1565.84 1576.1 Q1568.35 1576.76 1570.96 1576.76 Q1576.72 1576.76 1579.59 1573.74 Q1582.45 1570.75 1582.45 1564.67 L1582.45 1561.77 Q1580.64 1564.92 1577.81 1566.48 Q1574.97 1568.04 1571.03 1568.04 Q1564.47 1568.04 1560.46 1563.05 Q1556.45 1558.05 1556.45 1549.81 Q1556.45 1541.53 1560.46 1536.53 Q1564.47 1531.54 1571.03 1531.54 Q1574.97 1531.54 1577.81 1533.1 Q1580.64 1534.66 1582.45 1537.81 L1582.45 1532.4 L1588.31 1532.4 L1588.31 1563.62 Z" fill="#000000" fill-rule="nonzero" fill-opacity="1" /><path clip-path="url(#clip530)" d="M1619.06 1520.52 L1625.96 1520.52 L1637.77 1538.19 L1649.64 1520.52 L1656.55 1520.52 L1641.27 1543.34 L1657.57 1568.04 L1650.66 1568.04 L1637.29 1547.83 L1623.83 1568.04 L1616.89 1568.04 L1633.86 1542.68 L1619.06 1520.52 Z" fill="#000000" fill-rule="nonzero" fill-opacity="1" /><path clip-path="url(#clip530)" d="M1659.54 1547.58 L1676.7 1547.58 L1676.7 1552.8 L1659.54 1552.8 L1659.54 1547.58 Z" fill="#000000" fill-rule="nonzero" fill-opacity="1" /><path clip-path="url(#clip530)" d="M1700.73 1526.86 L1692.01 1550.51 L1709.48 1550.51 L1700.73 1526.86 M1697.1 1520.52 L1704.39 1520.52 L1722.5 1568.04 L1715.82 1568.04 L1711.49 1555.85 L1690.07 1555.85 L1685.74 1568.04 L1678.96 1568.04 L1697.1 1520.52 Z" fill="#000000" fill-rule="nonzero" fill-opacity="1" /><path clip-path="url(#clip530)" d="M1758.82 1532.4 L1745.93 1549.74 L1759.48 1568.04 L1752.58 1568.04 L1742.2 1554.04 L1731.83 1568.04 L1724.92 1568.04 L1738.76 1549.39 L1726.1 1532.4 L1733 1532.4 L1742.46 1545.1 L1751.91 1532.4 L1758.82 1532.4 Z" fill="#000000" fill-rule="nonzero" fill-opacity="1" /><path clip-path="url(#clip530)" d="M1767.76 1532.4 L1773.62 1532.4 L1773.62 1568.04 L1767.76 1568.04 L1767.76 1532.4 M1767.76 1518.52 L1773.62 1518.52 L1773.62 1525.93 L1767.76 1525.93 L1767.76 1518.52 Z" fill="#000000" fill-rule="nonzero" fill-opacity="1" /><path clip-path="url(#clip530)" d="M1808.6 1533.45 L1808.6 1538.98 Q1806.11 1537.71 1803.44 1537.07 Q1800.77 1536.44 1797.9 1536.44 Q1793.54 1536.44 1791.34 1537.77 Q1789.18 1539.11 1789.18 1541.79 Q1789.18 1543.82 1790.74 1545 Q1792.3 1546.15 1797.01 1547.2 L1799.02 1547.64 Q1805.25 1548.98 1807.86 1551.43 Q1810.51 1553.85 1810.51 1558.21 Q1810.51 1563.17 1806.56 1566.07 Q1802.64 1568.97 1795.77 1568.97 Q1792.9 1568.97 1789.78 1568.39 Q1786.7 1567.85 1783.26 1566.74 L1783.26 1560.69 Q1786.51 1562.38 1789.66 1563.24 Q1792.81 1564.07 1795.9 1564.07 Q1800.03 1564.07 1802.26 1562.66 Q1804.49 1561.23 1804.49 1558.65 Q1804.49 1556.27 1802.87 1554.99 Q1801.28 1553.72 1795.83 1552.54 L1793.8 1552.07 Q1788.35 1550.92 1785.93 1548.56 Q1783.51 1546.18 1783.51 1542.04 Q1783.51 1537.01 1787.08 1534.27 Q1790.64 1531.54 1797.2 1531.54 Q1800.45 1531.54 1803.31 1532.01 Q1806.18 1532.49 1808.6 1533.45 Z" fill="#000000" fill-rule="nonzero" fill-opacity="1" /><path clip-path="url(#clip530)" d="M1840.01 1518.52 L1853.51 1518.52 L1853.51 1523.07 L1845.87 1523.07 L1845.87 1572.09 L1853.51 1572.09 L1853.51 1576.64 L1840.01 1576.64 L1840.01 1518.52 Z" fill="#000000" fill-rule="nonzero" fill-opacity="1" /><path clip-path="url(#clip530)" d="M1893.74 1539.24 Q1895.93 1535.29 1898.99 1533.41 Q1902.04 1531.54 1906.18 1531.54 Q1911.75 1531.54 1914.78 1535.45 Q1917.8 1539.33 1917.8 1546.53 L1917.8 1568.04 L1911.91 1568.04 L1911.91 1546.72 Q1911.91 1541.59 1910.1 1539.11 Q1908.28 1536.63 1904.56 1536.63 Q1900.01 1536.63 1897.37 1539.65 Q1894.72 1542.68 1894.72 1547.9 L1894.72 1568.04 L1888.84 1568.04 L1888.84 1546.72 Q1888.84 1541.56 1887.02 1539.11 Q1885.21 1536.63 1881.42 1536.63 Q1876.93 1536.63 1874.29 1539.68 Q1871.65 1542.71 1871.65 1547.9 L1871.65 1568.04 L1865.76 1568.04 L1865.76 1532.4 L1871.65 1532.4 L1871.65 1537.93 Q1873.65 1534.66 1876.45 1533.1 Q1879.25 1531.54 1883.11 1531.54 Q1886.99 1531.54 1889.69 1533.51 Q1892.43 1535.48 1893.74 1539.24 Z" fill="#000000" fill-rule="nonzero" fill-opacity="1" /><path clip-path="url(#clip530)" d="M1943.17 1518.52 L1943.17 1576.64 L1929.67 1576.64 L1929.67 1572.09 L1937.28 1572.09 L1937.28 1523.07 L1929.67 1523.07 L1929.67 1518.52 L1943.17 1518.52 Z" fill="#000000" fill-rule="nonzero" fill-opacity="1" /><polyline clip-path="url(#clip530)" style="stroke:#000000; stroke-linecap:round; stroke-linejoin:round; stroke-width:4; stroke-opacity:1; fill:none" points="309.866,1423.18 309.866,47.2441 "/>
<polyline clip-path="url(#clip530)" style="stroke:#000000; stroke-linecap:round; stroke-linejoin:round; stroke-width:4; stroke-opacity:1; fill:none" points="309.866,1384.24 328.763,1384.24 "/>
<polyline clip-path="url(#clip530)" style="stroke:#000000; stroke-linecap:round; stroke-linejoin:round; stroke-width:4; stroke-opacity:1; fill:none" points="309.866,1059.4 328.763,1059.4 "/>
<polyline clip-path="url(#clip530)" style="stroke:#000000; stroke-linecap:round; stroke-linejoin:round; stroke-width:4; stroke-opacity:1; fill:none" points="309.866,734.562 328.763,734.562 "/>
<polyline clip-path="url(#clip530)" style="stroke:#000000; stroke-linecap:round; stroke-linejoin:round; stroke-width:4; stroke-opacity:1; fill:none" points="309.866,409.724 328.763,409.724 "/>
<polyline clip-path="url(#clip530)" style="stroke:#000000; stroke-linecap:round; stroke-linejoin:round; stroke-width:4; stroke-opacity:1; fill:none" points="309.866,84.8863 328.763,84.8863 "/>
<path clip-path="url(#clip530)" d="M126.205 1370.04 Q122.593 1370.04 120.765 1373.6 Q118.959 1377.14 118.959 1384.27 Q118.959 1391.38 120.765 1394.94 Q122.593 1398.49 126.205 1398.49 Q129.839 1398.49 131.644 1394.94 Q133.473 1391.38 133.473 1384.27 Q133.473 1377.14 131.644 1373.6 Q129.839 1370.04 126.205 1370.04 M126.205 1366.33 Q132.015 1366.33 135.07 1370.94 Q138.149 1375.52 138.149 1384.27 Q138.149 1393 135.07 1397.61 Q132.015 1402.19 126.205 1402.19 Q120.394 1402.19 117.316 1397.61 Q114.26 1393 114.26 1384.27 Q114.26 1375.52 117.316 1370.94 Q120.394 1366.33 126.205 1366.33 Z" fill="#000000" fill-rule="nonzero" fill-opacity="1" /><path clip-path="url(#clip530)" d="M146.366 1395.64 L151.251 1395.64 L151.251 1401.52 L146.366 1401.52 L146.366 1395.64 Z" fill="#000000" fill-rule="nonzero" fill-opacity="1" /><path clip-path="url(#clip530)" d="M171.436 1370.04 Q167.825 1370.04 165.996 1373.6 Q164.19 1377.14 164.19 1384.27 Q164.19 1391.38 165.996 1394.94 Q167.825 1398.49 171.436 1398.49 Q175.07 1398.49 176.876 1394.94 Q178.704 1391.38 178.704 1384.27 Q178.704 1377.14 176.876 1373.6 Q175.07 1370.04 171.436 1370.04 M171.436 1366.33 Q177.246 1366.33 180.301 1370.94 Q183.38 1375.52 183.38 1384.27 Q183.38 1393 180.301 1397.61 Q177.246 1402.19 171.436 1402.19 Q165.626 1402.19 162.547 1397.61 Q159.491 1393 159.491 1384.27 Q159.491 1375.52 162.547 1370.94 Q165.626 1366.33 171.436 1366.33 Z" fill="#000000" fill-rule="nonzero" fill-opacity="1" /><path clip-path="url(#clip530)" d="M201.598 1370.04 Q197.987 1370.04 196.158 1373.6 Q194.352 1377.14 194.352 1384.27 Q194.352 1391.38 196.158 1394.94 Q197.987 1398.49 201.598 1398.49 Q205.232 1398.49 207.037 1394.94 Q208.866 1391.38 208.866 1384.27 Q208.866 1377.14 207.037 1373.6 Q205.232 1370.04 201.598 1370.04 M201.598 1366.33 Q207.408 1366.33 210.463 1370.94 Q213.542 1375.52 213.542 1384.27 Q213.542 1393 210.463 1397.61 Q207.408 1402.19 201.598 1402.19 Q195.787 1402.19 192.709 1397.61 Q189.653 1393 189.653 1384.27 Q189.653 1375.52 192.709 1370.94 Q195.787 1366.33 201.598 1366.33 Z" fill="#000000" fill-rule="nonzero" fill-opacity="1" /><path clip-path="url(#clip530)" d="M231.76 1370.04 Q228.148 1370.04 226.32 1373.6 Q224.514 1377.14 224.514 1384.27 Q224.514 1391.38 226.32 1394.94 Q228.148 1398.49 231.76 1398.49 Q235.394 1398.49 237.199 1394.94 Q239.028 1391.38 239.028 1384.27 Q239.028 1377.14 237.199 1373.6 Q235.394 1370.04 231.76 1370.04 M231.76 1366.33 Q237.57 1366.33 240.625 1370.94 Q243.704 1375.52 243.704 1384.27 Q243.704 1393 240.625 1397.61 Q237.57 1402.19 231.76 1402.19 Q225.949 1402.19 222.871 1397.61 Q219.815 1393 219.815 1384.27 Q219.815 1375.52 222.871 1370.94 Q225.949 1366.33 231.76 1366.33 Z" fill="#000000" fill-rule="nonzero" fill-opacity="1" /><path clip-path="url(#clip530)" d="M261.921 1370.04 Q258.31 1370.04 256.482 1373.6 Q254.676 1377.14 254.676 1384.27 Q254.676 1391.38 256.482 1394.94 Q258.31 1398.49 261.921 1398.49 Q265.556 1398.49 267.361 1394.94 Q269.19 1391.38 269.19 1384.27 Q269.19 1377.14 267.361 1373.6 Q265.556 1370.04 261.921 1370.04 M261.921 1366.33 Q267.732 1366.33 270.787 1370.94 Q273.866 1375.52 273.866 1384.27 Q273.866 1393 270.787 1397.61 Q267.732 1402.19 261.921 1402.19 Q256.111 1402.19 253.033 1397.61 Q249.977 1393 249.977 1384.27 Q249.977 1375.52 253.033 1370.94 Q256.111 1366.33 261.921 1366.33 Z" fill="#000000" fill-rule="nonzero" fill-opacity="1" /><path clip-path="url(#clip530)" d="M127.2 1045.2 Q123.589 1045.2 121.76 1048.76 Q119.955 1052.31 119.955 1059.44 Q119.955 1066.54 121.76 1070.11 Q123.589 1073.65 127.2 1073.65 Q130.834 1073.65 132.64 1070.11 Q134.468 1066.54 134.468 1059.44 Q134.468 1052.31 132.64 1048.76 Q130.834 1045.2 127.2 1045.2 M127.2 1041.5 Q133.01 1041.5 136.066 1046.1 Q139.144 1050.69 139.144 1059.44 Q139.144 1068.16 136.066 1072.77 Q133.01 1077.35 127.2 1077.35 Q121.39 1077.35 118.311 1072.77 Q115.256 1068.16 115.256 1059.44 Q115.256 1050.69 118.311 1046.1 Q121.39 1041.5 127.2 1041.5 Z" fill="#000000" fill-rule="nonzero" fill-opacity="1" /><path clip-path="url(#clip530)" d="M147.362 1070.8 L152.246 1070.8 L152.246 1076.68 L147.362 1076.68 L147.362 1070.8 Z" fill="#000000" fill-rule="nonzero" fill-opacity="1" /><path clip-path="url(#clip530)" d="M172.431 1045.2 Q168.82 1045.2 166.991 1048.76 Q165.186 1052.31 165.186 1059.44 Q165.186 1066.54 166.991 1070.11 Q168.82 1073.65 172.431 1073.65 Q176.065 1073.65 177.871 1070.11 Q179.7 1066.54 179.7 1059.44 Q179.7 1052.31 177.871 1048.76 Q176.065 1045.2 172.431 1045.2 M172.431 1041.5 Q178.241 1041.5 181.297 1046.1 Q184.376 1050.69 184.376 1059.44 Q184.376 1068.16 181.297 1072.77 Q178.241 1077.35 172.431 1077.35 Q166.621 1077.35 163.542 1072.77 Q160.487 1068.16 160.487 1059.44 Q160.487 1050.69 163.542 1046.1 Q166.621 1041.5 172.431 1041.5 Z" fill="#000000" fill-rule="nonzero" fill-opacity="1" /><path clip-path="url(#clip530)" d="M202.593 1045.2 Q198.982 1045.2 197.153 1048.76 Q195.348 1052.31 195.348 1059.44 Q195.348 1066.54 197.153 1070.11 Q198.982 1073.65 202.593 1073.65 Q206.227 1073.65 208.033 1070.11 Q209.861 1066.54 209.861 1059.44 Q209.861 1052.31 208.033 1048.76 Q206.227 1045.2 202.593 1045.2 M202.593 1041.5 Q208.403 1041.5 211.459 1046.1 Q214.537 1050.69 214.537 1059.44 Q214.537 1068.16 211.459 1072.77 Q208.403 1077.35 202.593 1077.35 Q196.783 1077.35 193.704 1072.77 Q190.649 1068.16 190.649 1059.44 Q190.649 1050.69 193.704 1046.1 Q196.783 1041.5 202.593 1041.5 Z" fill="#000000" fill-rule="nonzero" fill-opacity="1" /><path clip-path="url(#clip530)" d="M226.783 1072.75 L243.102 1072.75 L243.102 1076.68 L221.158 1076.68 L221.158 1072.75 Q223.82 1069.99 228.403 1065.36 Q233.01 1060.71 234.19 1059.37 Q236.435 1056.84 237.315 1055.11 Q238.218 1053.35 238.218 1051.66 Q238.218 1048.9 236.273 1047.17 Q234.352 1045.43 231.25 1045.43 Q229.051 1045.43 226.598 1046.19 Q224.167 1046.96 221.389 1048.51 L221.389 1043.79 Q224.213 1042.65 226.667 1042.07 Q229.121 1041.5 231.158 1041.5 Q236.528 1041.5 239.722 1044.18 Q242.917 1046.87 242.917 1051.36 Q242.917 1053.49 242.107 1055.41 Q241.32 1057.31 239.213 1059.9 Q238.634 1060.57 235.533 1063.79 Q232.431 1066.98 226.783 1072.75 Z" fill="#000000" fill-rule="nonzero" fill-opacity="1" /><path clip-path="url(#clip530)" d="M252.963 1042.12 L271.32 1042.12 L271.32 1046.06 L257.246 1046.06 L257.246 1054.53 Q258.264 1054.18 259.283 1054.02 Q260.301 1053.83 261.32 1053.83 Q267.107 1053.83 270.486 1057 Q273.866 1060.18 273.866 1065.59 Q273.866 1071.17 270.394 1074.27 Q266.921 1077.35 260.602 1077.35 Q258.426 1077.35 256.158 1076.98 Q253.912 1076.61 251.505 1075.87 L251.505 1071.17 Q253.588 1072.31 255.81 1072.86 Q258.033 1073.42 260.509 1073.42 Q264.514 1073.42 266.852 1071.31 Q269.19 1069.2 269.19 1065.59 Q269.19 1061.98 266.852 1059.87 Q264.514 1057.77 260.509 1057.77 Q258.634 1057.77 256.759 1058.19 Q254.908 1058.6 252.963 1059.48 L252.963 1042.12 Z" fill="#000000" fill-rule="nonzero" fill-opacity="1" /><path clip-path="url(#clip530)" d="M126.205 720.361 Q122.593 720.361 120.765 723.926 Q118.959 727.467 118.959 734.597 Q118.959 741.703 120.765 745.268 Q122.593 748.81 126.205 748.81 Q129.839 748.81 131.644 745.268 Q133.473 741.703 133.473 734.597 Q133.473 727.467 131.644 723.926 Q129.839 720.361 126.205 720.361 M126.205 716.657 Q132.015 716.657 135.07 721.264 Q138.149 725.847 138.149 734.597 Q138.149 743.324 135.07 747.93 Q132.015 752.514 126.205 752.514 Q120.394 752.514 117.316 747.93 Q114.26 743.324 114.26 734.597 Q114.26 725.847 117.316 721.264 Q120.394 716.657 126.205 716.657 Z" fill="#000000" fill-rule="nonzero" fill-opacity="1" /><path clip-path="url(#clip530)" d="M146.366 745.963 L151.251 745.963 L151.251 751.842 L146.366 751.842 L146.366 745.963 Z" fill="#000000" fill-rule="nonzero" fill-opacity="1" /><path clip-path="url(#clip530)" d="M171.436 720.361 Q167.825 720.361 165.996 723.926 Q164.19 727.467 164.19 734.597 Q164.19 741.703 165.996 745.268 Q167.825 748.81 171.436 748.81 Q175.07 748.81 176.876 745.268 Q178.704 741.703 178.704 734.597 Q178.704 727.467 176.876 723.926 Q175.07 720.361 171.436 720.361 M171.436 716.657 Q177.246 716.657 180.301 721.264 Q183.38 725.847 183.38 734.597 Q183.38 743.324 180.301 747.93 Q177.246 752.514 171.436 752.514 Q165.626 752.514 162.547 747.93 Q159.491 743.324 159.491 734.597 Q159.491 725.847 162.547 721.264 Q165.626 716.657 171.436 716.657 Z" fill="#000000" fill-rule="nonzero" fill-opacity="1" /><path clip-path="url(#clip530)" d="M201.598 720.361 Q197.987 720.361 196.158 723.926 Q194.352 727.467 194.352 734.597 Q194.352 741.703 196.158 745.268 Q197.987 748.81 201.598 748.81 Q205.232 748.81 207.037 745.268 Q208.866 741.703 208.866 734.597 Q208.866 727.467 207.037 723.926 Q205.232 720.361 201.598 720.361 M201.598 716.657 Q207.408 716.657 210.463 721.264 Q213.542 725.847 213.542 734.597 Q213.542 743.324 210.463 747.93 Q207.408 752.514 201.598 752.514 Q195.787 752.514 192.709 747.93 Q189.653 743.324 189.653 734.597 Q189.653 725.847 192.709 721.264 Q195.787 716.657 201.598 716.657 Z" fill="#000000" fill-rule="nonzero" fill-opacity="1" /><path clip-path="url(#clip530)" d="M221.806 717.282 L240.162 717.282 L240.162 721.217 L226.088 721.217 L226.088 729.69 Q227.107 729.342 228.125 729.18 Q229.144 728.995 230.162 728.995 Q235.949 728.995 239.329 732.166 Q242.709 735.338 242.709 740.754 Q242.709 746.333 239.236 749.435 Q235.764 752.514 229.445 752.514 Q227.269 752.514 225 752.143 Q222.755 751.773 220.348 751.032 L220.348 746.333 Q222.431 747.467 224.653 748.023 Q226.875 748.578 229.352 748.578 Q233.357 748.578 235.695 746.472 Q238.033 744.365 238.033 740.754 Q238.033 737.143 235.695 735.037 Q233.357 732.93 229.352 732.93 Q227.477 732.93 225.602 733.347 Q223.75 733.764 221.806 734.643 L221.806 717.282 Z" fill="#000000" fill-rule="nonzero" fill-opacity="1" /><path clip-path="url(#clip530)" d="M261.921 720.361 Q258.31 720.361 256.482 723.926 Q254.676 727.467 254.676 734.597 Q254.676 741.703 256.482 745.268 Q258.31 748.81 261.921 748.81 Q265.556 748.81 267.361 745.268 Q269.19 741.703 269.19 734.597 Q269.19 727.467 267.361 723.926 Q265.556 720.361 261.921 720.361 M261.921 716.657 Q267.732 716.657 270.787 721.264 Q273.866 725.847 273.866 734.597 Q273.866 743.324 270.787 747.93 Q267.732 752.514 261.921 752.514 Q256.111 752.514 253.033 747.93 Q249.977 743.324 249.977 734.597 Q249.977 725.847 253.033 721.264 Q256.111 716.657 261.921 716.657 Z" fill="#000000" fill-rule="nonzero" fill-opacity="1" /><path clip-path="url(#clip530)" d="M127.2 395.523 Q123.589 395.523 121.76 399.088 Q119.955 402.629 119.955 409.759 Q119.955 416.865 121.76 420.43 Q123.589 423.972 127.2 423.972 Q130.834 423.972 132.64 420.43 Q134.468 416.865 134.468 409.759 Q134.468 402.629 132.64 399.088 Q130.834 395.523 127.2 395.523 M127.2 391.819 Q133.01 391.819 136.066 396.426 Q139.144 401.009 139.144 409.759 Q139.144 418.486 136.066 423.092 Q133.01 427.676 127.2 427.676 Q121.39 427.676 118.311 423.092 Q115.256 418.486 115.256 409.759 Q115.256 401.009 118.311 396.426 Q121.39 391.819 127.2 391.819 Z" fill="#000000" fill-rule="nonzero" fill-opacity="1" /><path clip-path="url(#clip530)" d="M147.362 421.125 L152.246 421.125 L152.246 427.004 L147.362 427.004 L147.362 421.125 Z" fill="#000000" fill-rule="nonzero" fill-opacity="1" /><path clip-path="url(#clip530)" d="M172.431 395.523 Q168.82 395.523 166.991 399.088 Q165.186 402.629 165.186 409.759 Q165.186 416.865 166.991 420.43 Q168.82 423.972 172.431 423.972 Q176.065 423.972 177.871 420.43 Q179.7 416.865 179.7 409.759 Q179.7 402.629 177.871 399.088 Q176.065 395.523 172.431 395.523 M172.431 391.819 Q178.241 391.819 181.297 396.426 Q184.376 401.009 184.376 409.759 Q184.376 418.486 181.297 423.092 Q178.241 427.676 172.431 427.676 Q166.621 427.676 163.542 423.092 Q160.487 418.486 160.487 409.759 Q160.487 401.009 163.542 396.426 Q166.621 391.819 172.431 391.819 Z" fill="#000000" fill-rule="nonzero" fill-opacity="1" /><path clip-path="url(#clip530)" d="M202.593 395.523 Q198.982 395.523 197.153 399.088 Q195.348 402.629 195.348 409.759 Q195.348 416.865 197.153 420.43 Q198.982 423.972 202.593 423.972 Q206.227 423.972 208.033 420.43 Q209.861 416.865 209.861 409.759 Q209.861 402.629 208.033 399.088 Q206.227 395.523 202.593 395.523 M202.593 391.819 Q208.403 391.819 211.459 396.426 Q214.537 401.009 214.537 409.759 Q214.537 418.486 211.459 423.092 Q208.403 427.676 202.593 427.676 Q196.783 427.676 193.704 423.092 Q190.649 418.486 190.649 409.759 Q190.649 401.009 193.704 396.426 Q196.783 391.819 202.593 391.819 Z" fill="#000000" fill-rule="nonzero" fill-opacity="1" /><path clip-path="url(#clip530)" d="M221.574 392.444 L243.797 392.444 L243.797 394.435 L231.25 427.004 L226.366 427.004 L238.172 396.379 L221.574 396.379 L221.574 392.444 Z" fill="#000000" fill-rule="nonzero" fill-opacity="1" /><path clip-path="url(#clip530)" d="M252.963 392.444 L271.32 392.444 L271.32 396.379 L257.246 396.379 L257.246 404.852 Q258.264 404.504 259.283 404.342 Q260.301 404.157 261.32 404.157 Q267.107 404.157 270.486 407.328 Q273.866 410.5 273.866 415.916 Q273.866 421.495 270.394 424.597 Q266.921 427.676 260.602 427.676 Q258.426 427.676 256.158 427.305 Q253.912 426.935 251.505 426.194 L251.505 421.495 Q253.588 422.629 255.81 423.185 Q258.033 423.74 260.509 423.74 Q264.514 423.74 266.852 421.634 Q269.19 419.527 269.19 415.916 Q269.19 412.305 266.852 410.199 Q264.514 408.092 260.509 408.092 Q258.634 408.092 256.759 408.509 Q254.908 408.926 252.963 409.805 L252.963 392.444 Z" fill="#000000" fill-rule="nonzero" fill-opacity="1" /><path clip-path="url(#clip530)" d="M126.205 70.685 Q122.593 70.685 120.765 74.2498 Q118.959 77.7915 118.959 84.921 Q118.959 92.0275 120.765 95.5923 Q122.593 99.1339 126.205 99.1339 Q129.839 99.1339 131.644 95.5923 Q133.473 92.0275 133.473 84.921 Q133.473 77.7915 131.644 74.2498 Q129.839 70.685 126.205 70.685 M126.205 66.9813 Q132.015 66.9813 135.07 71.5878 Q138.149 76.1711 138.149 84.921 Q138.149 93.6478 135.07 98.2543 Q132.015 102.838 126.205 102.838 Q120.394 102.838 117.316 98.2543 Q114.26 93.6478 114.26 84.921 Q114.26 76.1711 117.316 71.5878 Q120.394 66.9813 126.205 66.9813 Z" fill="#000000" fill-rule="nonzero" fill-opacity="1" /><path clip-path="url(#clip530)" d="M146.366 96.2867 L151.251 96.2867 L151.251 102.166 L146.366 102.166 L146.366 96.2867 Z" fill="#000000" fill-rule="nonzero" fill-opacity="1" /><path clip-path="url(#clip530)" d="M171.436 70.685 Q167.825 70.685 165.996 74.2498 Q164.19 77.7915 164.19 84.921 Q164.19 92.0275 165.996 95.5923 Q167.825 99.1339 171.436 99.1339 Q175.07 99.1339 176.876 95.5923 Q178.704 92.0275 178.704 84.921 Q178.704 77.7915 176.876 74.2498 Q175.07 70.685 171.436 70.685 M171.436 66.9813 Q177.246 66.9813 180.301 71.5878 Q183.38 76.1711 183.38 84.921 Q183.38 93.6478 180.301 98.2543 Q177.246 102.838 171.436 102.838 Q165.626 102.838 162.547 98.2543 Q159.491 93.6478 159.491 84.921 Q159.491 76.1711 162.547 71.5878 Q165.626 66.9813 171.436 66.9813 Z" fill="#000000" fill-rule="nonzero" fill-opacity="1" /><path clip-path="url(#clip530)" d="M192.408 98.2312 L200.047 98.2312 L200.047 71.8656 L191.737 73.5322 L191.737 69.273 L200 67.6063 L204.676 67.6063 L204.676 98.2312 L212.315 98.2312 L212.315 102.166 L192.408 102.166 L192.408 98.2312 Z" fill="#000000" fill-rule="nonzero" fill-opacity="1" /><path clip-path="url(#clip530)" d="M231.76 70.685 Q228.148 70.685 226.32 74.2498 Q224.514 77.7915 224.514 84.921 Q224.514 92.0275 226.32 95.5923 Q228.148 99.1339 231.76 99.1339 Q235.394 99.1339 237.199 95.5923 Q239.028 92.0275 239.028 84.921 Q239.028 77.7915 237.199 74.2498 Q235.394 70.685 231.76 70.685 M231.76 66.9813 Q237.57 66.9813 240.625 71.5878 Q243.704 76.1711 243.704 84.921 Q243.704 93.6478 240.625 98.2543 Q237.57 102.838 231.76 102.838 Q225.949 102.838 222.871 98.2543 Q219.815 93.6478 219.815 84.921 Q219.815 76.1711 222.871 71.5878 Q225.949 66.9813 231.76 66.9813 Z" fill="#000000" fill-rule="nonzero" fill-opacity="1" /><path clip-path="url(#clip530)" d="M261.921 70.685 Q258.31 70.685 256.482 74.2498 Q254.676 77.7915 254.676 84.921 Q254.676 92.0275 256.482 95.5923 Q258.31 99.1339 261.921 99.1339 Q265.556 99.1339 267.361 95.5923 Q269.19 92.0275 269.19 84.921 Q269.19 77.7915 267.361 74.2498 Q265.556 70.685 261.921 70.685 M261.921 66.9813 Q267.732 66.9813 270.787 71.5878 Q273.866 76.1711 273.866 84.921 Q273.866 93.6478 270.787 98.2543 Q267.732 102.838 261.921 102.838 Q256.111 102.838 253.033 98.2543 Q249.977 93.6478 249.977 84.921 Q249.977 76.1711 253.033 71.5878 Q256.111 66.9813 261.921 66.9813 Z" fill="#000000" fill-rule="nonzero" fill-opacity="1" /><path clip-path="url(#clip530)" d="M16.4842 1223.97 L16.4842 1214.39 L48.8219 1202.26 L16.4842 1190.07 L16.4842 1180.49 L64.0042 1180.49 L64.0042 1186.76 L22.277 1186.76 L54.8694 1199.02 L54.8694 1205.48 L22.277 1217.73 L64.0042 1217.73 L64.0042 1223.97 L16.4842 1223.97 Z" fill="#000000" fill-rule="nonzero" fill-opacity="1" /><path clip-path="url(#clip530)" d="M46.0847 1151.78 Q46.0847 1158.88 47.7079 1161.62 Q49.3312 1164.36 53.2461 1164.36 Q56.3653 1164.36 58.2114 1162.32 Q60.0256 1160.25 60.0256 1156.72 Q60.0256 1151.85 56.5881 1148.92 Q53.1188 1145.96 47.3897 1145.96 L46.0847 1145.96 L46.0847 1151.78 M43.6657 1140.1 L64.0042 1140.1 L64.0042 1145.96 L58.5933 1145.96 Q61.8398 1147.96 63.3994 1150.96 Q64.9272 1153.95 64.9272 1158.28 Q64.9272 1163.75 61.8716 1167 Q58.7843 1170.21 53.6281 1170.21 Q47.6125 1170.21 44.5569 1166.2 Q41.5014 1162.16 41.5014 1154.17 L41.5014 1145.96 L40.9285 1145.96 Q36.8862 1145.96 34.6901 1148.63 Q32.4621 1151.27 32.4621 1156.08 Q32.4621 1159.14 33.1941 1162.03 Q33.9262 1164.93 35.3903 1167.6 L29.9795 1167.6 Q28.7381 1164.39 28.1334 1161.36 Q27.4968 1158.34 27.4968 1155.48 Q27.4968 1147.74 31.5072 1143.92 Q35.5176 1140.1 43.6657 1140.1 Z" fill="#000000" fill-rule="nonzero" fill-opacity="1" /><path clip-path="url(#clip530)" d="M45.7664 1104.58 Q39.4007 1104.58 35.8996 1107.22 Q32.3984 1109.83 32.3984 1114.58 Q32.3984 1119.29 35.8996 1121.93 Q39.4007 1124.54 45.7664 1124.54 Q52.1003 1124.54 55.6014 1121.93 Q59.1026 1119.29 59.1026 1114.58 Q59.1026 1109.83 55.6014 1107.22 Q52.1003 1104.58 45.7664 1104.58 M59.58 1098.73 Q68.683 1098.73 73.1071 1102.77 Q77.5631 1106.81 77.5631 1115.15 Q77.5631 1118.24 77.0857 1120.97 Q76.6401 1123.71 75.6852 1126.29 L69.9879 1126.29 Q71.3884 1123.71 72.0568 1121.2 Q72.7252 1118.68 72.7252 1116.07 Q72.7252 1110.31 69.7015 1107.45 Q66.7096 1104.58 60.6303 1104.58 L57.7339 1104.58 Q60.885 1106.4 62.4446 1109.23 Q64.0042 1112.06 64.0042 1116.01 Q64.0042 1122.57 59.0071 1126.58 Q54.01 1130.59 45.7664 1130.59 Q37.491 1130.59 32.4939 1126.58 Q27.4968 1122.57 27.4968 1116.01 Q27.4968 1112.06 29.0564 1109.23 Q30.616 1106.4 33.7671 1104.58 L28.3562 1104.58 L28.3562 1098.73 L59.58 1098.73 Z" fill="#000000" fill-rule="nonzero" fill-opacity="1" /><path clip-path="url(#clip530)" d="M42.4881 1057.03 L64.0042 1057.03 L64.0042 1062.89 L42.679 1062.89 Q37.6183 1062.89 35.1038 1064.86 Q32.5894 1066.83 32.5894 1070.78 Q32.5894 1075.52 35.6131 1078.26 Q38.6368 1081 43.8567 1081 L64.0042 1081 L64.0042 1086.89 L28.3562 1086.89 L28.3562 1081 L33.8944 1081 Q30.6797 1078.9 29.0883 1076.06 Q27.4968 1073.2 27.4968 1069.48 Q27.4968 1063.33 31.3163 1060.18 Q35.1038 1057.03 42.4881 1057.03 Z" fill="#000000" fill-rule="nonzero" fill-opacity="1" /><path clip-path="url(#clip530)" d="M44.7161 1014.86 L47.5806 1014.86 L47.5806 1041.78 Q53.6281 1041.4 56.8109 1038.16 Q59.9619 1034.88 59.9619 1029.05 Q59.9619 1025.68 59.1344 1022.53 Q58.3069 1019.35 56.6518 1016.23 L62.1899 1016.23 Q63.5267 1019.38 64.227 1022.69 Q64.9272 1026 64.9272 1029.4 Q64.9272 1037.93 59.9619 1042.93 Q54.9967 1047.9 46.5303 1047.9 Q37.7774 1047.9 32.6531 1043.18 Q27.4968 1038.44 27.4968 1030.42 Q27.4968 1023.23 32.1438 1019.06 Q36.7589 1014.86 44.7161 1014.86 M42.9973 1020.71 Q38.1912 1020.78 35.3266 1023.42 Q32.4621 1026.03 32.4621 1030.36 Q32.4621 1035.26 35.2312 1038.22 Q38.0002 1041.15 43.0292 1041.59 L42.9973 1020.71 Z" fill="#000000" fill-rule="nonzero" fill-opacity="1" /><path clip-path="url(#clip530)" d="M18.2347 999.452 L28.3562 999.452 L28.3562 987.389 L32.9077 987.389 L32.9077 999.452 L52.2594 999.452 Q56.6199 999.452 57.8613 998.275 Q59.1026 997.065 59.1026 993.405 L59.1026 987.389 L64.0042 987.389 L64.0042 993.405 Q64.0042 1000.18 61.4897 1002.76 Q58.9434 1005.34 52.2594 1005.34 L32.9077 1005.34 L32.9077 1009.64 L28.3562 1009.64 L28.3562 1005.34 L18.2347 1005.34 L18.2347 999.452 Z" fill="#000000" fill-rule="nonzero" fill-opacity="1" /><path clip-path="url(#clip530)" d="M28.3562 979.687 L28.3562 973.83 L64.0042 973.83 L64.0042 979.687 L28.3562 979.687 M14.479 979.687 L14.479 973.83 L21.895 973.83 L21.895 979.687 L14.479 979.687 Z" fill="#000000" fill-rule="nonzero" fill-opacity="1" /><path clip-path="url(#clip530)" d="M29.7248 935.923 L35.1993 935.923 Q33.8307 938.405 33.1623 940.92 Q32.4621 943.402 32.4621 945.949 Q32.4621 951.646 36.0905 954.797 Q39.6872 957.948 46.212 957.948 Q52.7369 957.948 56.3653 954.797 Q59.9619 951.646 59.9619 945.949 Q59.9619 943.402 59.2935 940.92 Q58.5933 938.405 57.2247 935.923 L62.6355 935.923 Q63.7814 938.373 64.3543 941.015 Q64.9272 943.625 64.9272 946.585 Q64.9272 954.638 59.8664 959.38 Q54.8057 964.123 46.212 964.123 Q37.491 964.123 32.4939 959.348 Q27.4968 954.542 27.4968 946.203 Q27.4968 943.498 28.0697 940.92 Q28.6108 938.342 29.7248 935.923 Z" fill="#000000" fill-rule="nonzero" fill-opacity="1" /><path clip-path="url(#clip530)" d="M16.4842 904.763 L16.4842 877.454 L21.895 877.454 L21.895 898.333 L35.8996 898.333 L35.8996 879.491 L41.3104 879.491 L41.3104 898.333 L64.0042 898.333 L64.0042 904.763 L16.4842 904.763 Z" fill="#000000" fill-rule="nonzero" fill-opacity="1" /><path clip-path="url(#clip530)" d="M14.479 867.523 L14.479 861.667 L64.0042 861.667 L64.0042 867.523 L14.479 867.523 Z" fill="#000000" fill-rule="nonzero" fill-opacity="1" /><path clip-path="url(#clip530)" d="M49.9359 850.017 L28.3562 850.017 L28.3562 844.161 L49.7131 844.161 Q54.7739 844.161 57.3202 842.188 Q59.8346 840.214 59.8346 836.268 Q59.8346 831.525 56.8109 828.788 Q53.7872 826.019 48.5673 826.019 L28.3562 826.019 L28.3562 820.162 L64.0042 820.162 L64.0042 826.019 L58.5296 826.019 Q61.7762 828.151 63.3676 830.984 Q64.9272 833.785 64.9272 837.509 Q64.9272 843.652 61.1078 846.835 Q57.2883 850.017 49.9359 850.017 M27.4968 835.281 L27.4968 835.281 Z" fill="#000000" fill-rule="nonzero" fill-opacity="1" /><path clip-path="url(#clip530)" d="M28.3562 778.467 L45.7028 791.358 L64.0042 777.799 L64.0042 784.705 L49.9996 795.081 L64.0042 805.458 L64.0042 812.364 L45.3526 798.519 L28.3562 811.187 L28.3562 804.28 L41.0558 794.827 L28.3562 785.374 L28.3562 778.467 Z" fill="#000000" fill-rule="nonzero" fill-opacity="1" /><path clip-path="url(#clip530)" d="M21.7677 742.119 L58.7206 742.119 L58.7206 734.353 Q58.7206 724.518 54.2646 719.966 Q49.8086 715.383 40.1964 715.383 Q30.6479 715.383 26.2237 719.966 Q21.7677 724.518 21.7677 734.353 L21.7677 742.119 M16.4842 748.548 L16.4842 735.339 Q16.4842 721.526 22.2451 715.065 Q27.9743 708.603 40.1964 708.603 Q52.4822 708.603 58.2432 715.096 Q64.0042 721.589 64.0042 735.339 L64.0042 748.548 L16.4842 748.548 Z" fill="#000000" fill-rule="nonzero" fill-opacity="1" /><path clip-path="url(#clip530)" d="M44.7161 668.117 L47.5806 668.117 L47.5806 695.044 Q53.6281 694.662 56.8109 691.416 Q59.9619 688.138 59.9619 682.313 Q59.9619 678.939 59.1344 675.788 Q58.3069 672.605 56.6518 669.486 L62.1899 669.486 Q63.5267 672.637 64.227 675.947 Q64.9272 679.257 64.9272 682.663 Q64.9272 691.193 59.9619 696.19 Q54.9967 701.155 46.5303 701.155 Q37.7774 701.155 32.6531 696.445 Q27.4968 691.702 27.4968 683.682 Q27.4968 676.488 32.1438 672.319 Q36.7589 668.117 44.7161 668.117 M42.9973 673.974 Q38.1912 674.038 35.3266 676.679 Q32.4621 679.289 32.4621 683.618 Q32.4621 688.52 35.2312 691.48 Q38.0002 694.408 43.0292 694.853 L42.9973 673.974 Z" fill="#000000" fill-rule="nonzero" fill-opacity="1" /><path clip-path="url(#clip530)" d="M42.4881 628.873 L64.0042 628.873 L64.0042 634.729 L42.679 634.729 Q37.6183 634.729 35.1038 636.703 Q32.5894 638.676 32.5894 642.623 Q32.5894 647.365 35.6131 650.102 Q38.6368 652.84 43.8567 652.84 L64.0042 652.84 L64.0042 658.728 L28.3562 658.728 L28.3562 652.84 L33.8944 652.84 Q30.6797 650.739 29.0883 647.906 Q27.4968 645.042 27.4968 641.318 Q27.4968 635.175 31.3163 632.024 Q35.1038 628.873 42.4881 628.873 Z" fill="#000000" fill-rule="nonzero" fill-opacity="1" /><path clip-path="url(#clip530)" d="M29.4065 594.466 L34.9447 594.466 Q33.6716 596.949 33.035 599.622 Q32.3984 602.296 32.3984 605.161 Q32.3984 609.521 33.7352 611.717 Q35.072 613.882 37.7456 613.882 Q39.7826 613.882 40.9603 612.322 Q42.1061 610.762 43.1565 606.052 L43.6021 604.047 Q44.9389 597.808 47.3897 595.198 Q49.8086 592.556 54.1691 592.556 Q59.1344 592.556 62.0308 596.503 Q64.9272 600.418 64.9272 607.293 Q64.9272 610.158 64.3543 613.277 Q63.8132 616.364 62.6992 619.802 L56.6518 619.802 Q58.3387 616.555 59.198 613.404 Q60.0256 610.253 60.0256 607.166 Q60.0256 603.028 58.6251 600.8 Q57.1929 598.572 54.6147 598.572 Q52.2276 598.572 50.9545 600.195 Q49.6813 601.787 48.5037 607.229 L48.0262 609.266 Q46.8804 614.709 44.5251 617.128 Q42.138 619.547 38.0002 619.547 Q32.9713 619.547 30.2341 615.982 Q27.4968 612.417 27.4968 605.861 Q27.4968 602.614 27.9743 599.75 Q28.4517 596.885 29.4065 594.466 Z" fill="#000000" fill-rule="nonzero" fill-opacity="1" /><path clip-path="url(#clip530)" d="M28.3562 583.231 L28.3562 577.374 L64.0042 577.374 L64.0042 583.231 L28.3562 583.231 M14.479 583.231 L14.479 577.374 L21.895 577.374 L21.895 583.231 L14.479 583.231 Z" fill="#000000" fill-rule="nonzero" fill-opacity="1" /><path clip-path="url(#clip530)" d="M18.2347 559.327 L28.3562 559.327 L28.3562 547.264 L32.9077 547.264 L32.9077 559.327 L52.2594 559.327 Q56.6199 559.327 57.8613 558.15 Q59.1026 556.94 59.1026 553.28 L59.1026 547.264 L64.0042 547.264 L64.0042 553.28 Q64.0042 560.06 61.4897 562.638 Q58.9434 565.216 52.2594 565.216 L32.9077 565.216 L32.9077 569.513 L28.3562 569.513 L28.3562 565.216 L18.2347 565.216 L18.2347 559.327 Z" fill="#000000" fill-rule="nonzero" fill-opacity="1" /><path clip-path="url(#clip530)" d="M67.3143 524.73 Q73.68 527.213 75.6216 529.568 Q77.5631 531.923 77.5631 535.87 L77.5631 540.549 L72.6615 540.549 L72.6615 537.111 Q72.6615 534.692 71.5157 533.355 Q70.3699 532.019 66.1048 530.395 L63.4312 529.345 L28.3562 543.763 L28.3562 537.557 L56.238 526.417 L28.3562 515.277 L28.3562 509.07 L67.3143 524.73 Z" fill="#000000" fill-rule="nonzero" fill-opacity="1" /><path clip-path="url(#clip530)" d="M14.5426 466.197 Q21.8632 470.462 29.0246 472.531 Q36.186 474.6 43.5384 474.6 Q50.8908 474.6 58.1159 472.531 Q65.3091 470.43 72.5979 466.197 L72.5979 471.29 Q65.1182 476.064 57.8931 478.451 Q50.668 480.807 43.5384 480.807 Q36.4406 480.807 29.2474 478.451 Q22.0542 476.096 14.5426 471.29 L14.5426 466.197 Z" fill="#000000" fill-rule="nonzero" fill-opacity="1" /><path clip-path="url(#clip530)" d="M41.3104 448.15 L58.7206 448.15 L58.7206 437.838 Q58.7206 432.65 56.5881 430.167 Q54.4238 427.653 49.9996 427.653 Q45.5436 427.653 43.4429 430.167 Q41.3104 432.65 41.3104 437.838 L41.3104 448.15 M21.7677 448.15 L36.0905 448.15 L36.0905 438.634 Q36.0905 433.923 34.34 431.631 Q32.5576 429.308 28.9291 429.308 Q25.3325 429.308 23.5501 431.631 Q21.7677 433.923 21.7677 438.634 L21.7677 448.15 M16.4842 454.58 L16.4842 438.156 Q16.4842 430.804 19.5397 426.825 Q22.5952 422.847 28.2289 422.847 Q32.5894 422.847 35.1675 424.884 Q37.7456 426.921 38.3822 430.868 Q39.4007 426.125 42.6472 423.515 Q45.8619 420.873 50.6998 420.873 Q57.0655 420.873 60.5348 425.202 Q64.0042 429.531 64.0042 437.52 L64.0042 454.58 L16.4842 454.58 Z" fill="#000000" fill-rule="nonzero" fill-opacity="1" /><path clip-path="url(#clip530)" d="M67.3143 395.283 Q73.68 397.766 75.6216 400.121 Q77.5631 402.476 77.5631 406.423 L77.5631 411.102 L72.6615 411.102 L72.6615 407.665 Q72.6615 405.246 71.5157 403.909 Q70.3699 402.572 66.1048 400.949 L63.4312 399.898 L28.3562 414.317 L28.3562 408.11 L56.238 396.97 L28.3562 385.83 L28.3562 379.624 L67.3143 395.283 Z" fill="#000000" fill-rule="nonzero" fill-opacity="1" /><path clip-path="url(#clip530)" d="M14.5426 372.462 L14.5426 367.37 Q22.0542 362.595 29.2474 360.24 Q36.4406 357.853 43.5384 357.853 Q50.668 357.853 57.8931 360.24 Q65.1182 362.595 72.5979 367.37 L72.5979 372.462 Q65.3091 368.229 58.1159 366.16 Q50.8908 364.059 43.5384 364.059 Q36.186 364.059 29.0246 366.16 Q21.8632 368.229 14.5426 372.462 Z" fill="#000000" fill-rule="nonzero" fill-opacity="1" /><path clip-path="url(#clip530)" d="M14.479 325.929 L14.479 312.434 L19.0304 312.434 L19.0304 320.072 L68.0464 320.072 L68.0464 312.434 L72.5979 312.434 L72.5979 325.929 L14.479 325.929 Z" fill="#000000" fill-rule="nonzero" fill-opacity="1" /><path clip-path="url(#clip530)" d="M16.4842 306.291 L16.4842 266.091 L21.895 266.091 L21.895 282.96 L64.0042 282.96 L64.0042 289.422 L21.895 289.422 L21.895 306.291 L16.4842 306.291 Z" fill="#000000" fill-rule="nonzero" fill-opacity="1" /><path clip-path="url(#clip530)" d="M14.479 246.453 L72.5979 246.453 L72.5979 259.948 L68.0464 259.948 L68.0464 252.341 L19.0304 252.341 L19.0304 259.948 L14.479 259.948 L14.479 246.453 Z" fill="#000000" fill-rule="nonzero" fill-opacity="1" /><polyline clip-path="url(#clip532)" style="stroke:#009af9; stroke-linecap:round; stroke-linejoin:round; stroke-width:4; stroke-opacity:1; fill:none" points="367.683,1384.24 369.613,1371.23 371.542,1358.23 373.471,1345.22 375.4,1332.21 377.329,1319.21 379.259,1306.2 381.188,1293.19 383.117,1280.19 385.046,1267.18 386.975,1254.17 388.904,1241.17 390.834,1228.16 392.763,1215.15 394.692,1202.15 396.621,1189.14 398.55,1176.13 400.48,1163.13 402.409,1150.12 404.338,1137.11 406.267,1124.11 408.196,1111.1 410.125,1098.09 412.055,1085.09 413.984,1072.08 415.913,1059.08 417.842,1046.07 419.771,1033.06 421.701,1020.06 423.63,1007.05 425.559,994.042 427.488,981.036 429.417,968.029 431.347,955.023 433.276,942.016 435.205,929.01 437.134,916.003 439.063,902.997 440.992,889.99 442.922,876.984 444.851,863.977 446.78,850.971 448.709,837.964 450.638,824.958 452.568,811.951 454.497,798.945 456.426,785.938 458.355,772.932 460.284,759.925 462.213,746.918 464.143,733.912 466.072,720.905 468.001,707.899 469.93,694.892 471.859,681.886 473.789,668.879 475.718,655.873 477.647,642.866 479.576,629.86 481.505,616.853 483.434,603.847 485.364,590.84 487.293,577.834 489.222,564.827 491.151,551.821 493.08,538.814 495.01,525.808 496.939,512.801 498.868,499.794 500.797,486.788 502.726,473.781 504.655,460.775 506.585,447.768 508.514,434.762 510.443,421.755 512.372,408.749 514.301,395.742 516.231,382.736 518.16,369.729 520.089,356.723 522.018,343.716 523.947,330.71 525.877,317.703 527.806,304.697 529.735,291.69 531.664,278.684 533.593,265.677 535.522,252.671 537.452,239.664 539.381,226.657 541.31,213.651 543.239,200.644 545.168,187.638 547.098,174.631 549.027,161.625 550.956,148.618 552.885,135.612 554.814,122.605 556.743,109.599 558.673,96.5922 560.602,86.1857 562.531,99.0377 564.46,111.638 566.389,123.993 568.319,136.111 570.248,147.998 572.177,159.66 574.106,171.105 576.035,182.338 577.964,193.364 579.894,204.19 581.823,214.822 583.752,225.263 585.681,235.519 587.61,245.596 589.54,255.497 591.469,265.227 593.398,274.792 595.327,284.194 597.256,293.438 599.186,302.528 601.115,311.468 603.044,320.261 604.973,328.911 606.902,337.422 608.831,345.796 610.761,354.038 612.69,362.15 614.619,370.135 616.548,377.996 618.477,385.736 620.407,393.358 622.336,400.865 624.265,408.259 626.194,415.542 628.123,422.718 630.052,429.788 631.982,436.755 633.911,443.62 635.84,450.387 637.769,457.058 639.698,463.634 641.628,470.117 643.557,476.509 645.486,482.813 647.415,489.03 649.344,495.161 651.273,501.209 653.203,507.176 655.132,513.062 657.061,518.87 658.99,524.601 660.919,530.256 662.849,535.838 664.778,541.347 666.707,546.785 668.636,552.153 670.565,557.453 672.495,562.686 674.424,567.853 676.353,572.955 678.282,577.994 680.211,582.971 682.14,587.887 684.07,592.743 685.999,597.54 687.928,602.279 689.857,606.961 691.786,611.588 693.716,616.16 695.645,620.678 697.574,625.143 699.503,629.557 701.432,633.919 703.361,638.231 705.291,642.494 707.22,646.708 709.149,650.875 711.078,654.995 713.007,659.069 714.937,663.098 716.866,667.082 718.795,671.023 720.724,674.92 722.653,678.775 724.582,682.588 726.512,686.361 728.441,690.092 730.37,693.785 732.299,697.438 734.228,701.053 736.158,704.63 738.087,708.169 740.016,711.672 741.945,715.139 743.874,718.57 745.803,721.967 747.733,725.328 749.662,728.656 751.591,731.951 753.52,735.212 755.449,738.441 757.379,741.638 759.308,744.803 761.237,747.938 763.166,751.042 765.095,754.116 767.025,757.16 768.954,760.175 770.883,763.16 772.812,766.118 774.741,769.047 776.67,771.949 778.6,774.824 780.529,777.672 782.458,780.493 784.387,783.288 786.316,786.057 788.246,788.801 790.175,791.52 792.104,794.214 794.033,796.884 795.962,799.53 797.891,802.152 799.821,804.751 801.75,807.326 803.679,809.879 805.608,812.409 807.537,814.917 809.467,817.403 811.396,819.868 813.325,822.311 815.254,824.733 817.183,827.134 819.112,829.515 821.042,831.875 822.971,834.216 824.9,836.537 826.829,838.838 828.758,841.12 830.688,843.383 832.617,845.627 834.546,847.853 836.475,850.06 838.404,852.249 840.334,854.421 842.263,856.575 844.192,858.711 846.121,860.83 848.05,862.932 849.979,865.017 851.909,867.086 853.838,869.138 855.767,871.174 857.696,873.194 859.625,875.198 861.555,877.186 863.484,879.159 865.413,881.117 867.342,883.06 869.271,884.987 871.2,886.9 873.13,888.798 875.059,890.682 876.988,892.552 878.917,894.407 880.846,896.249 882.776,898.076 884.705,899.89 886.634,901.691 888.563,903.478 890.492,905.252 892.421,907.013 894.351,908.761 896.28,910.496 898.209,912.219 900.138,913.929 902.067,915.627 903.997,917.313 905.926,918.986 907.855,920.648 909.784,922.298 911.713,923.936 913.643,925.562 915.572,927.177 917.501,928.781 919.43,930.374 921.359,931.955 923.288,933.526 925.218,935.085 927.147,936.634 929.076,938.172 931.005,939.7 932.934,941.217 934.864,942.724 936.793,944.22 938.722,945.707 940.651,947.184 942.58,948.65 944.509,950.107 946.439,951.554 948.368,952.992 950.297,954.42 952.226,955.838 954.155,957.247 956.085,958.647 958.014,960.038 959.943,961.42 961.872,962.793 963.801,964.157 965.73,965.512 967.66,966.858 969.589,968.196 971.518,969.525 973.447,970.846 975.376,972.158 977.306,973.462 979.235,974.758 981.164,976.046 983.093,977.325 985.022,978.597 986.951,979.861 988.881,981.116 990.81,982.364 992.739,983.605 994.668,984.837 996.597,986.063 998.527,987.28 1000.46,988.491 1002.38,989.693 1004.31,990.889 1006.24,992.077 1008.17,993.259 1010.1,994.433 1012.03,995.6 1013.96,996.76 1015.89,997.913 1017.82,999.059 1019.75,1000.2 1021.68,1001.33 1023.61,1002.46 1025.54,1003.58 1027.46,1004.69 1029.39,1005.8 1031.32,1006.9 1033.25,1007.99 1035.18,1009.08 1037.11,1010.16 1039.04,1011.23 1040.97,1012.3 1042.9,1013.37 1044.83,1014.42 1046.76,1015.47 1048.69,1016.52 1050.61,1017.56 1052.54,1018.59 1054.47,1019.62 1056.4,1020.64 1058.33,1021.65 1060.26,1022.66 1062.19,1023.67 1064.12,1024.67 1066.05,1025.66 1067.98,1026.65 1069.91,1027.63 1071.84,1028.61 1073.76,1029.58 1075.69,1030.55 1077.62,1031.51 1079.55,1032.46 1081.48,1033.41 1083.41,1034.36 1085.34,1035.3 1087.27,1036.23 1089.2,1037.17 1091.13,1038.09 1093.06,1039.01 1094.99,1039.93 1096.91,1040.84 1098.84,1041.74 1100.77,1042.65 1102.7,1043.54 1104.63,1044.43 1106.56,1045.32 1108.49,1046.2 1110.42,1047.08 1112.35,1047.96 1114.28,1048.82 1116.21,1049.69 1118.14,1050.55 1120.07,1051.4 1121.99,1052.26 1123.92,1053.1 1125.85,1053.94 1127.78,1054.78 1129.71,1055.62 1131.64,1056.45 1133.57,1057.27 1135.5,1058.09 1137.43,1058.91 1139.36,1059.73 1141.29,1060.53 1143.22,1061.34 1145.14,1062.14 1147.07,1062.94 1149,1063.73 1150.93,1064.52 1152.86,1065.31 1154.79,1066.09 1156.72,1066.87 1158.65,1067.64 1160.58,1068.41 1162.51,1069.18 1164.44,1069.94 1166.37,1070.7 1168.29,1071.45 1170.22,1072.21 1172.15,1072.95 1174.08,1073.7 1176.01,1074.44 1177.94,1075.18 1179.87,1075.91 1181.8,1076.64 1183.73,1077.37 1185.66,1078.09 1187.59,1078.81 1189.52,1079.53 1191.45,1080.24 1193.37,1080.95 1195.3,1081.66 1197.23,1082.37 1199.16,1083.07 1201.09,1083.76 1203.02,1084.46 1204.95,1085.15 1206.88,1085.84 1208.81,1086.52 1210.74,1087.2 1212.67,1087.88 1214.6,1088.55 1216.52,1089.23 1218.45,1089.9 1220.38,1090.56 1222.31,1091.22 1224.24,1091.88 1226.17,1092.54 1228.1,1093.2 1230.03,1093.85 1231.96,1094.49 1233.89,1095.14 1235.82,1095.78 1237.75,1096.42 1239.67,1097.06 1241.6,1097.69 1243.53,1098.32 1245.46,1098.95 1247.39,1099.58 1249.32,1100.2 1251.25,1100.82 1253.18,1101.44 1255.11,1102.05 1257.04,1102.67 1258.97,1103.27 1260.9,1103.88 1262.82,1104.49 1264.75,1105.09 1266.68,1105.69 1268.61,1106.28 1270.54,1106.88 1272.47,1107.47 1274.4,1108.06 1276.33,1108.64 1278.26,1109.23 1280.19,1109.81 1282.12,1110.39 1284.05,1110.96 1285.98,1111.54 1287.9,1112.11 1289.83,1112.68 1291.76,1113.25 1293.69,1113.81 1295.62,1114.37 1297.55,1114.93 1299.48,1115.49 1301.41,1116.05 1303.34,1116.6 1305.27,1117.15 1307.2,1117.7 1309.13,1118.24 1311.05,1118.79 1312.98,1119.33 1314.91,1119.87 1316.84,1120.41 1318.77,1120.94 1320.7,1121.47 1322.63,1122.01 1324.56,1122.53 1326.49,1123.06 1328.42,1123.59 1330.35,1124.11 1332.28,1124.63 1334.2,1125.15 1336.13,1125.66 1338.06,1126.18 1339.99,1126.69 1341.92,1127.2 1343.85,1127.71 1345.78,1128.21 1347.71,1128.72 1349.64,1129.22 1351.57,1129.72 1353.5,1130.22 1355.43,1130.71 1357.35,1131.21 1359.28,1131.7 1361.21,1132.19 1363.14,1132.68 1365.07,1133.16 1367,1133.65 1368.93,1134.13 1370.86,1134.61 1372.79,1135.09 1374.72,1135.57 1376.65,1136.04 1378.58,1136.52 1380.51,1136.99 1382.43,1137.46 1384.36,1137.93 1386.29,1138.39 1388.22,1138.86 1390.15,1139.32 1392.08,1139.78 1394.01,1140.24 1395.94,1140.7 1397.87,1141.16 1399.8,1141.61 1401.73,1142.06 1403.66,1142.52 1405.58,1142.96 1407.51,1143.41 1409.44,1143.86 1411.37,1144.3 1413.3,1144.75 1415.23,1145.19 1417.16,1145.63 1419.09,1146.06 1421.02,1146.5 1422.95,1146.93 1424.88,1147.37 1426.81,1147.8 1428.73,1148.23 1430.66,1148.66 1432.59,1149.08 1434.52,1149.51 1436.45,1149.93 1438.38,1150.35 1440.31,1150.78 1442.24,1151.19 1444.17,1151.61 1446.1,1152.03 1448.03,1152.44 1449.96,1152.86 1451.88,1153.27 1453.81,1153.68 1455.74,1154.09 1457.67,1154.49 1459.6,1154.9 1461.53,1155.3 1463.46,1155.71 1465.39,1156.11 1467.32,1156.51 1469.25,1156.91 1471.18,1157.31 1473.11,1157.7 1475.04,1158.1 1476.96,1158.49 1478.89,1158.88 1480.82,1159.27 1482.75,1159.66 1484.68,1160.05 1486.61,1160.44 1488.54,1160.82 1490.47,1161.21 1492.4,1161.59 1494.33,1161.97 1496.26,1162.35 1498.19,1162.73 1500.11,1163.1 1502.04,1163.48 1503.97,1163.86 1505.9,1164.23 1507.83,1164.6 1509.76,1164.97 1511.69,1165.34 1513.62,1165.71 1515.55,1166.08 1517.48,1166.44 1519.41,1166.81 1521.34,1167.17 1523.26,1167.53 1525.19,1167.9 1527.12,1168.26 1529.05,1168.61 1530.98,1168.97 1532.91,1169.33 1534.84,1169.68 1536.77,1170.04 1538.7,1170.39 1540.63,1170.74 1542.56,1171.09 1544.49,1171.44 1546.41,1171.79 1548.34,1172.14 1550.27,1172.48 1552.2,1172.83 1554.13,1173.17 1556.06,1173.52 1557.99,1173.86 1559.92,1174.2 1561.85,1174.54 1563.78,1174.87 1565.71,1175.21 1567.64,1175.55 1569.57,1175.88 1571.49,1176.22 1573.42,1176.55 1575.35,1176.88 1577.28,1177.21 1579.21,1177.54 1581.14,1177.87 1583.07,1178.2 1585,1178.52 1586.93,1178.85 1588.86,1179.17 1590.79,1179.5 1592.72,1179.82 1594.64,1180.14 1596.57,1180.46 1598.5,1180.78 1600.43,1181.1 1602.36,1181.42 1604.29,1181.73 1606.22,1182.05 1608.15,1182.36 1610.08,1182.68 1612.01,1182.99 1613.94,1183.3 1615.87,1183.61 1617.79,1183.92 1619.72,1184.23 1621.65,1184.54 1623.58,1184.84 1625.51,1185.15 1627.44,1185.46 1629.37,1185.76 1631.3,1186.06 1633.23,1186.36 1635.16,1186.67 1637.09,1186.97 1639.02,1187.27 1640.94,1187.56 1642.87,1187.86 1644.8,1188.16 1646.73,1188.45 1648.66,1188.75 1650.59,1189.04 1652.52,1189.34 1654.45,1189.63 1656.38,1189.92 1658.31,1190.21 1660.24,1190.5 1662.17,1190.79 1664.1,1191.08 1666.02,1191.36 1667.95,1191.65 1669.88,1191.93 1671.81,1192.22 1673.74,1192.5 1675.67,1192.79 1677.6,1193.07 1679.53,1193.35 1681.46,1193.63 1683.39,1193.91 1685.32,1194.19 1687.25,1194.46 1689.17,1194.74 1691.1,1195.02 1693.03,1195.29 1694.96,1195.57 1696.89,1195.84 1698.82,1196.11 1700.75,1196.39 1702.68,1196.66 1704.61,1196.93 1706.54,1197.2 1708.47,1197.47 1710.4,1197.74 1712.32,1198 1714.25,1198.27 1716.18,1198.54 1718.11,1198.8 1720.04,1199.07 1721.97,1199.33 1723.9,1199.59 1725.83,1199.86 1727.76,1200.12 1729.69,1200.38 1731.62,1200.64 1733.55,1200.9 1735.47,1201.16 1737.4,1201.41 1739.33,1201.67 1741.26,1201.93 1743.19,1202.18 1745.12,1202.44 1747.05,1202.69 1748.98,1202.95 1750.91,1203.2 1752.84,1203.45 1754.77,1203.7 1756.7,1203.95 1758.63,1204.2 1760.55,1204.45 1762.48,1204.7 1764.41,1204.95 1766.34,1205.2 1768.27,1205.44 1770.2,1205.69 1772.13,1205.93 1774.06,1206.18 1775.99,1206.42 1777.92,1206.67 1779.85,1206.91 1781.78,1207.15 1783.7,1207.39 1785.63,1207.63 1787.56,1207.87 1789.49,1208.11 1791.42,1208.35 1793.35,1208.59 1795.28,1208.83 1797.21,1209.06 1799.14,1209.3 1801.07,1209.53 1803,1209.77 1804.93,1210 1806.85,1210.24 1808.78,1210.47 1810.71,1210.7 1812.64,1210.93 1814.57,1211.16 1816.5,1211.4 1818.43,1211.62 1820.36,1211.85 1822.29,1212.08 1824.22,1212.31 1826.15,1212.54 1828.08,1212.77 1830,1212.99 1831.93,1213.22 1833.86,1213.44 1835.79,1213.67 1837.72,1213.89 1839.65,1214.11 1841.58,1214.34 1843.51,1214.56 1845.44,1214.78 1847.37,1215 1849.3,1215.22 1851.23,1215.44 1853.16,1215.66 1855.08,1215.88 1857.01,1216.1 1858.94,1216.31 1860.87,1216.53 1862.8,1216.75 1864.73,1216.96 1866.66,1217.18 1868.59,1217.39 1870.52,1217.61 1872.45,1217.82 1874.38,1218.03 1876.31,1218.25 1878.23,1218.46 1880.16,1218.67 1882.09,1218.88 1884.02,1219.09 1885.95,1219.3 1887.88,1219.51 1889.81,1219.72 1891.74,1219.93 1893.67,1220.14 1895.6,1220.34 1897.53,1220.55 1899.46,1220.76 1901.38,1220.96 1903.31,1221.17 1905.24,1221.37 1907.17,1221.58 1909.1,1221.78 1911.03,1221.98 1912.96,1222.18 1914.89,1222.39 1916.82,1222.59 1918.75,1222.79 1920.68,1222.99 1922.61,1223.19 1924.53,1223.39 1926.46,1223.59 1928.39,1223.79 1930.32,1223.98 1932.25,1224.18 1934.18,1224.38 1936.11,1224.58 1938.04,1224.77 1939.97,1224.97 1941.9,1225.16 1943.83,1225.36 1945.76,1225.55 1947.69,1225.75 1949.61,1225.94 1951.54,1226.13 1953.47,1226.32 1955.4,1226.52 1957.33,1226.71 1959.26,1226.9 1961.19,1227.09 1963.12,1227.28 1965.05,1227.47 1966.98,1227.66 1968.91,1227.85 1970.84,1228.03 1972.76,1228.22 1974.69,1228.41 1976.62,1228.6 1978.55,1228.78 1980.48,1228.97 1982.41,1229.15 1984.34,1229.34 1986.27,1229.52 1988.2,1229.71 1990.13,1229.89 1992.06,1230.08 1993.99,1230.26 1995.91,1230.44 1997.84,1230.62 1999.77,1230.8 2001.7,1230.99 2003.63,1231.17 2005.56,1231.35 2007.49,1231.53 2009.42,1231.71 2011.35,1231.88 2013.28,1232.06 2015.21,1232.24 2017.14,1232.42 2019.06,1232.6 2020.99,1232.77 2022.92,1232.95 2024.85,1233.13 2026.78,1233.3 2028.71,1233.48 2030.64,1233.65 2032.57,1233.83 2034.5,1234 2036.43,1234.17 2038.36,1234.35 2040.29,1234.52 2042.22,1234.69 2044.14,1234.87 2046.07,1235.04 2048,1235.21 2049.93,1235.38 2051.86,1235.55 2053.79,1235.72 2055.72,1235.89 2057.65,1236.06 2059.58,1236.23 2061.51,1236.4 2063.44,1236.56 2065.37,1236.73 2067.29,1236.9 2069.22,1237.07 2071.15,1237.23 2073.08,1237.4 2075.01,1237.57 2076.94,1237.73 2078.87,1237.9 2080.8,1238.06 2082.73,1238.23 2084.66,1238.39 2086.59,1238.55 2088.52,1238.72 2090.44,1238.88 2092.37,1239.04 2094.3,1239.2 2096.23,1239.37 2098.16,1239.53 2100.09,1239.69 2102.02,1239.85 2103.95,1240.01 2105.88,1240.17 2107.81,1240.33 2109.74,1240.49 2111.67,1240.65 2113.59,1240.81 2115.52,1240.97 2117.45,1241.12 2119.38,1241.28 2121.31,1241.44 2123.24,1241.6 2125.17,1241.75 2127.1,1241.91 2129.03,1242.06 2130.96,1242.22 2132.89,1242.37 2134.82,1242.53 2136.75,1242.68 2138.67,1242.84 2140.6,1242.99 2142.53,1243.15 2144.46,1243.3 2146.39,1243.45 2148.32,1243.6 2150.25,1243.76 2152.18,1243.91 2154.11,1244.06 2156.04,1244.21 2157.97,1244.36 2159.9,1244.51 2161.82,1244.66 2163.75,1244.81 2165.68,1244.96 2167.61,1245.11 2169.54,1245.26 2171.47,1245.41 2173.4,1245.56 2175.33,1245.71 2177.26,1245.85 2179.19,1246 2181.12,1246.15 2183.05,1246.29 2184.97,1246.44 2186.9,1246.59 2188.83,1246.73 2190.76,1246.88 2192.69,1247.02 2194.62,1247.17 2196.55,1247.31 2198.48,1247.46 2200.41,1247.6 2202.34,1247.74 2204.27,1247.89 2206.2,1248.03 2208.12,1248.17 2210.05,1248.32 2211.98,1248.46 2213.91,1248.6 2215.84,1248.74 2217.77,1248.88 2219.7,1249.02 2221.63,1249.17 2223.56,1249.31 2225.49,1249.45 2227.42,1249.59 2229.35,1249.73 2231.28,1249.86 2233.2,1250 2235.13,1250.14 2237.06,1250.28 2238.99,1250.42 2240.92,1250.56 2242.85,1250.69 2244.78,1250.83 2246.71,1250.97 2248.64,1251.1 2250.57,1251.24 2252.5,1251.38 2254.43,1251.51 2256.35,1251.65 2258.28,1251.78 2260.21,1251.92 2262.14,1252.05 2264.07,1252.19 2266,1252.32 2267.93,1252.46 2269.86,1252.59 2271.79,1252.72 2273.72,1252.86 2275.65,1252.99 2277.58,1253.12 2279.5,1253.25 2281.43,1253.39 2283.36,1253.52 2285.29,1253.65 2287.22,1253.78 2289.15,1253.91 2291.08,1254.04 2293.01,1254.17 2294.94,1254.3 "/>
<path clip-path="url(#clip530)" d="M2027.94 196.789 L2284.66 196.789 L2284.66 93.1086 L2027.94 93.1086  Z" fill="#ffffff" fill-rule="evenodd" fill-opacity="1"/>
<polyline clip-path="url(#clip530)" style="stroke:#000000; stroke-linecap:round; stroke-linejoin:round; stroke-width:4; stroke-opacity:1; fill:none" points="2027.94,196.789 2284.66,196.789 2284.66,93.1086 2027.94,93.1086 2027.94,196.789 "/>
<polyline clip-path="url(#clip530)" style="stroke:#009af9; stroke-linecap:round; stroke-linejoin:round; stroke-width:4; stroke-opacity:1; fill:none" points="2050.64,144.949 2186.83,144.949 "/>
<path clip-path="url(#clip530)" d="M2223.37 164.636 Q2221.57 169.266 2219.85 170.678 Q2218.14 172.09 2215.27 172.09 L2211.87 172.09 L2211.87 168.525 L2214.37 168.525 Q2216.13 168.525 2217.1 167.692 Q2218.07 166.858 2219.25 163.756 L2220.02 161.812 L2209.53 136.303 L2214.04 136.303 L2222.15 156.581 L2230.25 136.303 L2234.76 136.303 L2223.37 164.636 Z" fill="#000000" fill-rule="nonzero" fill-opacity="1" /><path clip-path="url(#clip530)" d="M2242.05 158.293 L2249.69 158.293 L2249.69 131.928 L2241.38 133.595 L2241.38 129.335 L2249.65 127.669 L2254.32 127.669 L2254.32 158.293 L2261.96 158.293 L2261.96 162.229 L2242.05 162.229 L2242.05 158.293 Z" fill="#000000" fill-rule="nonzero" fill-opacity="1" /></svg>
