<?xml version="1.0" encoding="utf-8"?>
<svg xmlns="http://www.w3.org/2000/svg" xmlns:xlink="http://www.w3.org/1999/xlink" width="600" height="400" viewBox="0 0 2400 1600">
<defs>
  <clipPath id="clip210">
    <rect x="0" y="0" width="2400" height="1600"/>
  </clipPath>
</defs>
<path clip-path="url(#clip210)" d="M0 1600 L2400 1600 L2400 8.88178e-14 L0 8.88178e-14  Z" fill="#ffffff" fill-rule="evenodd" fill-opacity="1"/>
<defs>
  <clipPath id="clip211">
    <rect x="480" y="0" width="1681" height="1600"/>
  </clipPath>
</defs>
<path clip-path="url(#clip210)" d="M235.283 1423.18 L2352.76 1423.18 L2352.76 183.952 L235.283 183.952  Z" fill="#ffffff" fill-rule="evenodd" fill-opacity="1"/>
<defs>
  <clipPath id="clip212">
    <rect x="235" y="183" width="2118" height="1240"/>
  </clipPath>
</defs>
<polyline clip-path="url(#clip212)" style="stroke:#000000; stroke-linecap:round; stroke-linejoin:round; stroke-width:2; stroke-opacity:0.1; fill:none" points="580.585,1423.18 580.585,183.952 "/>
<polyline clip-path="url(#clip212)" style="stroke:#000000; stroke-linecap:round; stroke-linejoin:round; stroke-width:2; stroke-opacity:0.1; fill:none" points="1151.33,1423.18 1151.33,183.952 "/>
<polyline clip-path="url(#clip212)" style="stroke:#000000; stroke-linecap:round; stroke-linejoin:round; stroke-width:2; stroke-opacity:0.1; fill:none" points="1722.08,1423.18 1722.08,183.952 "/>
<polyline clip-path="url(#clip212)" style="stroke:#000000; stroke-linecap:round; stroke-linejoin:round; stroke-width:2; stroke-opacity:0.1; fill:none" points="2292.83,1423.18 2292.83,183.952 "/>
<polyline clip-path="url(#clip212)" style="stroke:#000000; stroke-linecap:round; stroke-linejoin:round; stroke-width:2; stroke-opacity:0.1; fill:none" points="235.283,1392.6 2352.76,1392.6 "/>
<polyline clip-path="url(#clip212)" style="stroke:#000000; stroke-linecap:round; stroke-linejoin:round; stroke-width:2; stroke-opacity:0.1; fill:none" points="235.283,1154.99 2352.76,1154.99 "/>
<polyline clip-path="url(#clip212)" style="stroke:#000000; stroke-linecap:round; stroke-linejoin:round; stroke-width:2; stroke-opacity:0.1; fill:none" points="235.283,917.381 2352.76,917.381 "/>
<polyline clip-path="url(#clip212)" style="stroke:#000000; stroke-linecap:round; stroke-linejoin:round; stroke-width:2; stroke-opacity:0.1; fill:none" points="235.283,679.773 2352.76,679.773 "/>
<polyline clip-path="url(#clip212)" style="stroke:#000000; stroke-linecap:round; stroke-linejoin:round; stroke-width:2; stroke-opacity:0.1; fill:none" points="235.283,442.165 2352.76,442.165 "/>
<polyline clip-path="url(#clip212)" style="stroke:#000000; stroke-linecap:round; stroke-linejoin:round; stroke-width:2; stroke-opacity:0.1; fill:none" points="235.283,204.556 2352.76,204.556 "/>
<polyline clip-path="url(#clip210)" style="stroke:#000000; stroke-linecap:round; stroke-linejoin:round; stroke-width:4; stroke-opacity:1; fill:none" points="235.283,1423.18 2352.76,1423.18 "/>
<polyline clip-path="url(#clip210)" style="stroke:#000000; stroke-linecap:round; stroke-linejoin:round; stroke-width:4; stroke-opacity:1; fill:none" points="580.585,1423.18 580.585,1404.28 "/>
<polyline clip-path="url(#clip210)" style="stroke:#000000; stroke-linecap:round; stroke-linejoin:round; stroke-width:4; stroke-opacity:1; fill:none" points="1151.33,1423.18 1151.33,1404.28 "/>
<polyline clip-path="url(#clip210)" style="stroke:#000000; stroke-linecap:round; stroke-linejoin:round; stroke-width:4; stroke-opacity:1; fill:none" points="1722.08,1423.18 1722.08,1404.28 "/>
<polyline clip-path="url(#clip210)" style="stroke:#000000; stroke-linecap:round; stroke-linejoin:round; stroke-width:4; stroke-opacity:1; fill:none" points="2292.83,1423.18 2292.83,1404.28 "/>
<path clip-path="url(#clip210)" d="M529.196 1481.64 L545.516 1481.64 L545.516 1485.58 L523.571 1485.58 L523.571 1481.64 Q526.233 1478.89 530.817 1474.26 Q535.423 1469.61 536.604 1468.27 Q538.849 1465.74 539.729 1464.01 Q540.632 1462.25 540.632 1460.56 Q540.632 1457.8 538.687 1456.07 Q536.766 1454.33 533.664 1454.33 Q531.465 1454.33 529.011 1455.09 Q526.581 1455.86 523.803 1457.41 L523.803 1452.69 Q526.627 1451.55 529.081 1450.97 Q531.534 1450.39 533.571 1450.39 Q538.942 1450.39 542.136 1453.08 Q545.331 1455.77 545.331 1460.26 Q545.331 1462.39 544.52 1464.31 Q543.733 1466.2 541.627 1468.8 Q541.048 1469.47 537.946 1472.69 Q534.845 1475.88 529.196 1481.64 Z" fill="#000000" fill-rule="nonzero" fill-opacity="1" /><path clip-path="url(#clip210)" d="M565.331 1454.1 Q561.719 1454.1 559.891 1457.66 Q558.085 1461.2 558.085 1468.33 Q558.085 1475.44 559.891 1479.01 Q561.719 1482.55 565.331 1482.55 Q568.965 1482.55 570.77 1479.01 Q572.599 1475.44 572.599 1468.33 Q572.599 1461.2 570.77 1457.66 Q568.965 1454.1 565.331 1454.1 M565.331 1450.39 Q571.141 1450.39 574.196 1455 Q577.275 1459.58 577.275 1468.33 Q577.275 1477.06 574.196 1481.67 Q571.141 1486.25 565.331 1486.25 Q559.52 1486.25 556.442 1481.67 Q553.386 1477.06 553.386 1468.33 Q553.386 1459.58 556.442 1455 Q559.52 1450.39 565.331 1450.39 Z" fill="#000000" fill-rule="nonzero" fill-opacity="1" /><path clip-path="url(#clip210)" d="M595.492 1454.1 Q591.881 1454.1 590.053 1457.66 Q588.247 1461.2 588.247 1468.33 Q588.247 1475.44 590.053 1479.01 Q591.881 1482.55 595.492 1482.55 Q599.127 1482.55 600.932 1479.01 Q602.761 1475.44 602.761 1468.33 Q602.761 1461.2 600.932 1457.66 Q599.127 1454.1 595.492 1454.1 M595.492 1450.39 Q601.303 1450.39 604.358 1455 Q607.437 1459.58 607.437 1468.33 Q607.437 1477.06 604.358 1481.67 Q601.303 1486.25 595.492 1486.25 Q589.682 1486.25 586.604 1481.67 Q583.548 1477.06 583.548 1468.33 Q583.548 1459.58 586.604 1455 Q589.682 1450.39 595.492 1450.39 Z" fill="#000000" fill-rule="nonzero" fill-opacity="1" /><path clip-path="url(#clip210)" d="M625.654 1454.1 Q622.043 1454.1 620.214 1457.66 Q618.409 1461.2 618.409 1468.33 Q618.409 1475.44 620.214 1479.01 Q622.043 1482.55 625.654 1482.55 Q629.289 1482.55 631.094 1479.01 Q632.923 1475.44 632.923 1468.33 Q632.923 1461.2 631.094 1457.66 Q629.289 1454.1 625.654 1454.1 M625.654 1450.39 Q631.464 1450.39 634.52 1455 Q637.599 1459.58 637.599 1468.33 Q637.599 1477.06 634.52 1481.67 Q631.464 1486.25 625.654 1486.25 Q619.844 1486.25 616.765 1481.67 Q613.71 1477.06 613.71 1468.33 Q613.71 1459.58 616.765 1455 Q619.844 1450.39 625.654 1450.39 Z" fill="#000000" fill-rule="nonzero" fill-opacity="1" /><path clip-path="url(#clip210)" d="M1109.34 1455.09 L1097.54 1473.54 L1109.34 1473.54 L1109.34 1455.09 M1108.12 1451.02 L1113.99 1451.02 L1113.99 1473.54 L1118.93 1473.54 L1118.93 1477.43 L1113.99 1477.43 L1113.99 1485.58 L1109.34 1485.58 L1109.34 1477.43 L1093.74 1477.43 L1093.74 1472.92 L1108.12 1451.02 Z" fill="#000000" fill-rule="nonzero" fill-opacity="1" /><path clip-path="url(#clip210)" d="M1136.66 1454.1 Q1133.05 1454.1 1131.22 1457.66 Q1129.41 1461.2 1129.41 1468.33 Q1129.41 1475.44 1131.22 1479.01 Q1133.05 1482.55 1136.66 1482.55 Q1140.29 1482.55 1142.1 1479.01 Q1143.93 1475.44 1143.93 1468.33 Q1143.93 1461.2 1142.1 1457.66 Q1140.29 1454.1 1136.66 1454.1 M1136.66 1450.39 Q1142.47 1450.39 1145.52 1455 Q1148.6 1459.58 1148.6 1468.33 Q1148.6 1477.06 1145.52 1481.67 Q1142.47 1486.25 1136.66 1486.25 Q1130.85 1486.25 1127.77 1481.67 Q1124.71 1477.06 1124.71 1468.33 Q1124.71 1459.58 1127.77 1455 Q1130.85 1450.39 1136.66 1450.39 Z" fill="#000000" fill-rule="nonzero" fill-opacity="1" /><path clip-path="url(#clip210)" d="M1166.82 1454.1 Q1163.21 1454.1 1161.38 1457.66 Q1159.57 1461.2 1159.57 1468.33 Q1159.57 1475.44 1161.38 1479.01 Q1163.21 1482.55 1166.82 1482.55 Q1170.45 1482.55 1172.26 1479.01 Q1174.09 1475.44 1174.09 1468.33 Q1174.09 1461.2 1172.26 1457.66 Q1170.45 1454.1 1166.82 1454.1 M1166.82 1450.39 Q1172.63 1450.39 1175.68 1455 Q1178.76 1459.58 1178.76 1468.33 Q1178.76 1477.06 1175.68 1481.67 Q1172.63 1486.25 1166.82 1486.25 Q1161.01 1486.25 1157.93 1481.67 Q1154.87 1477.06 1154.87 1468.33 Q1154.87 1459.58 1157.93 1455 Q1161.01 1450.39 1166.82 1450.39 Z" fill="#000000" fill-rule="nonzero" fill-opacity="1" /><path clip-path="url(#clip210)" d="M1196.98 1454.1 Q1193.37 1454.1 1191.54 1457.66 Q1189.74 1461.2 1189.74 1468.33 Q1189.74 1475.44 1191.54 1479.01 Q1193.37 1482.55 1196.98 1482.55 Q1200.61 1482.55 1202.42 1479.01 Q1204.25 1475.44 1204.25 1468.33 Q1204.25 1461.2 1202.42 1457.66 Q1200.61 1454.1 1196.98 1454.1 M1196.98 1450.39 Q1202.79 1450.39 1205.85 1455 Q1208.92 1459.58 1208.92 1468.33 Q1208.92 1477.06 1205.85 1481.67 Q1202.79 1486.25 1196.98 1486.25 Q1191.17 1486.25 1188.09 1481.67 Q1185.04 1477.06 1185.04 1468.33 Q1185.04 1459.58 1188.09 1455 Q1191.17 1450.39 1196.98 1450.39 Z" fill="#000000" fill-rule="nonzero" fill-opacity="1" /><path clip-path="url(#clip210)" d="M1677.32 1466.44 Q1674.18 1466.44 1672.32 1468.59 Q1670.49 1470.74 1670.49 1474.49 Q1670.49 1478.22 1672.32 1480.39 Q1674.18 1482.55 1677.32 1482.55 Q1680.47 1482.55 1682.3 1480.39 Q1684.15 1478.22 1684.15 1474.49 Q1684.15 1470.74 1682.3 1468.59 Q1680.47 1466.44 1677.32 1466.44 M1686.61 1451.78 L1686.61 1456.04 Q1684.85 1455.21 1683.04 1454.77 Q1681.26 1454.33 1679.5 1454.33 Q1674.87 1454.33 1672.42 1457.45 Q1669.99 1460.58 1669.64 1466.9 Q1671 1464.89 1673.06 1463.82 Q1675.12 1462.73 1677.6 1462.73 Q1682.81 1462.73 1685.82 1465.9 Q1688.85 1469.05 1688.85 1474.49 Q1688.85 1479.82 1685.7 1483.03 Q1682.55 1486.25 1677.32 1486.25 Q1671.33 1486.25 1668.16 1481.67 Q1664.99 1477.06 1664.99 1468.33 Q1664.99 1460.14 1668.87 1455.28 Q1672.76 1450.39 1679.31 1450.39 Q1681.07 1450.39 1682.86 1450.74 Q1684.66 1451.09 1686.61 1451.78 Z" fill="#000000" fill-rule="nonzero" fill-opacity="1" /><path clip-path="url(#clip210)" d="M1706.91 1454.1 Q1703.3 1454.1 1701.47 1457.66 Q1699.66 1461.2 1699.66 1468.33 Q1699.66 1475.44 1701.47 1479.01 Q1703.3 1482.55 1706.91 1482.55 Q1710.54 1482.55 1712.35 1479.01 Q1714.17 1475.44 1714.17 1468.33 Q1714.17 1461.2 1712.35 1457.66 Q1710.54 1454.1 1706.91 1454.1 M1706.91 1450.39 Q1712.72 1450.39 1715.77 1455 Q1718.85 1459.58 1718.85 1468.33 Q1718.85 1477.06 1715.77 1481.67 Q1712.72 1486.25 1706.91 1486.25 Q1701.1 1486.25 1698.02 1481.67 Q1694.96 1477.06 1694.96 1468.33 Q1694.96 1459.58 1698.02 1455 Q1701.1 1450.39 1706.91 1450.39 Z" fill="#000000" fill-rule="nonzero" fill-opacity="1" /><path clip-path="url(#clip210)" d="M1737.07 1454.1 Q1733.46 1454.1 1731.63 1457.66 Q1729.82 1461.2 1729.82 1468.33 Q1729.82 1475.44 1731.63 1479.01 Q1733.46 1482.55 1737.07 1482.55 Q1740.7 1482.55 1742.51 1479.01 Q1744.34 1475.44 1744.34 1468.33 Q1744.34 1461.2 1742.51 1457.66 Q1740.7 1454.1 1737.07 1454.1 M1737.07 1450.39 Q1742.88 1450.39 1745.93 1455 Q1749.01 1459.58 1749.01 1468.33 Q1749.01 1477.06 1745.93 1481.67 Q1742.88 1486.25 1737.07 1486.25 Q1731.26 1486.25 1728.18 1481.67 Q1725.12 1477.06 1725.12 1468.33 Q1725.12 1459.58 1728.18 1455 Q1731.26 1450.39 1737.07 1450.39 Z" fill="#000000" fill-rule="nonzero" fill-opacity="1" /><path clip-path="url(#clip210)" d="M1767.23 1454.1 Q1763.62 1454.1 1761.79 1457.66 Q1759.98 1461.2 1759.98 1468.33 Q1759.98 1475.44 1761.79 1479.01 Q1763.62 1482.55 1767.23 1482.55 Q1770.86 1482.55 1772.67 1479.01 Q1774.5 1475.44 1774.5 1468.33 Q1774.5 1461.2 1772.67 1457.66 Q1770.86 1454.1 1767.23 1454.1 M1767.23 1450.39 Q1773.04 1450.39 1776.1 1455 Q1779.17 1459.58 1779.17 1468.33 Q1779.17 1477.06 1776.1 1481.67 Q1773.04 1486.25 1767.23 1486.25 Q1761.42 1486.25 1758.34 1481.67 Q1755.29 1477.06 1755.29 1468.33 Q1755.29 1459.58 1758.34 1455 Q1761.42 1450.39 1767.23 1450.39 Z" fill="#000000" fill-rule="nonzero" fill-opacity="1" /><path clip-path="url(#clip210)" d="M2247.54 1469.17 Q2244.2 1469.17 2242.28 1470.95 Q2240.39 1472.73 2240.39 1475.86 Q2240.39 1478.98 2242.28 1480.77 Q2244.2 1482.55 2247.54 1482.55 Q2250.87 1482.55 2252.79 1480.77 Q2254.71 1478.96 2254.71 1475.86 Q2254.71 1472.73 2252.79 1470.95 Q2250.89 1469.17 2247.54 1469.17 M2242.86 1467.18 Q2239.85 1466.44 2238.16 1464.38 Q2236.5 1462.32 2236.5 1459.35 Q2236.5 1455.21 2239.44 1452.8 Q2242.4 1450.39 2247.54 1450.39 Q2252.7 1450.39 2255.64 1452.8 Q2258.58 1455.21 2258.58 1459.35 Q2258.58 1462.32 2256.89 1464.38 Q2255.22 1466.44 2252.24 1467.18 Q2255.62 1467.96 2257.49 1470.26 Q2259.39 1472.55 2259.39 1475.86 Q2259.39 1480.88 2256.31 1483.57 Q2253.26 1486.25 2247.54 1486.25 Q2241.82 1486.25 2238.74 1483.57 Q2235.69 1480.88 2235.69 1475.86 Q2235.69 1472.55 2237.58 1470.26 Q2239.48 1467.96 2242.86 1467.18 M2241.15 1459.79 Q2241.15 1462.48 2242.82 1463.98 Q2244.51 1465.49 2247.54 1465.49 Q2250.55 1465.49 2252.24 1463.98 Q2253.95 1462.48 2253.95 1459.79 Q2253.95 1457.11 2252.24 1455.6 Q2250.55 1454.1 2247.54 1454.1 Q2244.51 1454.1 2242.82 1455.6 Q2241.15 1457.11 2241.15 1459.79 Z" fill="#000000" fill-rule="nonzero" fill-opacity="1" /><path clip-path="url(#clip210)" d="M2277.7 1454.1 Q2274.09 1454.1 2272.26 1457.66 Q2270.45 1461.2 2270.45 1468.33 Q2270.45 1475.44 2272.26 1479.01 Q2274.09 1482.55 2277.7 1482.55 Q2281.33 1482.55 2283.14 1479.01 Q2284.97 1475.44 2284.97 1468.33 Q2284.97 1461.2 2283.14 1457.66 Q2281.33 1454.1 2277.7 1454.1 M2277.7 1450.39 Q2283.51 1450.39 2286.57 1455 Q2289.64 1459.58 2289.64 1468.33 Q2289.64 1477.06 2286.57 1481.67 Q2283.51 1486.25 2277.7 1486.25 Q2271.89 1486.25 2268.81 1481.67 Q2265.76 1477.06 2265.76 1468.33 Q2265.76 1459.58 2268.81 1455 Q2271.89 1450.39 2277.7 1450.39 Z" fill="#000000" fill-rule="nonzero" fill-opacity="1" /><path clip-path="url(#clip210)" d="M2307.86 1454.1 Q2304.25 1454.1 2302.42 1457.66 Q2300.62 1461.2 2300.62 1468.33 Q2300.62 1475.44 2302.42 1479.01 Q2304.25 1482.55 2307.86 1482.55 Q2311.5 1482.55 2313.3 1479.01 Q2315.13 1475.44 2315.13 1468.33 Q2315.13 1461.2 2313.3 1457.66 Q2311.5 1454.1 2307.86 1454.1 M2307.86 1450.39 Q2313.67 1450.39 2316.73 1455 Q2319.81 1459.58 2319.81 1468.33 Q2319.81 1477.06 2316.73 1481.67 Q2313.67 1486.25 2307.86 1486.25 Q2302.05 1486.25 2298.97 1481.67 Q2295.92 1477.06 2295.92 1468.33 Q2295.92 1459.58 2298.97 1455 Q2302.05 1450.39 2307.86 1450.39 Z" fill="#000000" fill-rule="nonzero" fill-opacity="1" /><path clip-path="url(#clip210)" d="M2338.02 1454.1 Q2334.41 1454.1 2332.58 1457.66 Q2330.78 1461.2 2330.78 1468.33 Q2330.78 1475.44 2332.58 1479.01 Q2334.41 1482.55 2338.02 1482.55 Q2341.66 1482.55 2343.46 1479.01 Q2345.29 1475.44 2345.29 1468.33 Q2345.29 1461.2 2343.46 1457.66 Q2341.66 1454.1 2338.02 1454.1 M2338.02 1450.39 Q2343.83 1450.39 2346.89 1455 Q2349.97 1459.58 2349.97 1468.33 Q2349.97 1477.06 2346.89 1481.67 Q2343.83 1486.25 2338.02 1486.25 Q2332.21 1486.25 2329.14 1481.67 Q2326.08 1477.06 2326.08 1468.33 Q2326.08 1459.58 2329.14 1455 Q2332.21 1450.39 2338.02 1450.39 Z" fill="#000000" fill-rule="nonzero" fill-opacity="1" /><path clip-path="url(#clip210)" d="M1276.04 1520.52 L1284.69 1520.52 L1305.76 1560.28 L1305.76 1520.52 L1312 1520.52 L1312 1568.04 L1303.35 1568.04 L1282.27 1528.29 L1282.27 1568.04 L1276.04 1568.04 L1276.04 1520.52 Z" fill="#000000" fill-rule="nonzero" fill-opacity="1" /><polyline clip-path="url(#clip210)" style="stroke:#000000; stroke-linecap:round; stroke-linejoin:round; stroke-width:4; stroke-opacity:1; fill:none" points="235.283,1423.18 235.283,183.952 "/>
<polyline clip-path="url(#clip210)" style="stroke:#000000; stroke-linecap:round; stroke-linejoin:round; stroke-width:4; stroke-opacity:1; fill:none" points="235.283,1392.6 254.18,1392.6 "/>
<polyline clip-path="url(#clip210)" style="stroke:#000000; stroke-linecap:round; stroke-linejoin:round; stroke-width:4; stroke-opacity:1; fill:none" points="235.283,1154.99 254.18,1154.99 "/>
<polyline clip-path="url(#clip210)" style="stroke:#000000; stroke-linecap:round; stroke-linejoin:round; stroke-width:4; stroke-opacity:1; fill:none" points="235.283,917.381 254.18,917.381 "/>
<polyline clip-path="url(#clip210)" style="stroke:#000000; stroke-linecap:round; stroke-linejoin:round; stroke-width:4; stroke-opacity:1; fill:none" points="235.283,679.773 254.18,679.773 "/>
<polyline clip-path="url(#clip210)" style="stroke:#000000; stroke-linecap:round; stroke-linejoin:round; stroke-width:4; stroke-opacity:1; fill:none" points="235.283,442.165 254.18,442.165 "/>
<polyline clip-path="url(#clip210)" style="stroke:#000000; stroke-linecap:round; stroke-linejoin:round; stroke-width:4; stroke-opacity:1; fill:none" points="235.283,204.556 254.18,204.556 "/>
<path clip-path="url(#clip210)" d="M187.338 1378.4 Q183.727 1378.4 181.899 1381.96 Q180.093 1385.5 180.093 1392.63 Q180.093 1399.74 181.899 1403.3 Q183.727 1406.85 187.338 1406.85 Q190.973 1406.85 192.778 1403.3 Q194.607 1399.74 194.607 1392.63 Q194.607 1385.5 192.778 1381.96 Q190.973 1378.4 187.338 1378.4 M187.338 1374.69 Q193.149 1374.69 196.204 1379.3 Q199.283 1383.88 199.283 1392.63 Q199.283 1401.36 196.204 1405.97 Q193.149 1410.55 187.338 1410.55 Q181.528 1410.55 178.45 1405.97 Q175.394 1401.36 175.394 1392.63 Q175.394 1383.88 178.45 1379.3 Q181.528 1374.69 187.338 1374.69 Z" fill="#000000" fill-rule="nonzero" fill-opacity="1" /><path clip-path="url(#clip210)" d="M117.825 1168.33 L125.464 1168.33 L125.464 1141.97 L117.154 1143.64 L117.154 1139.38 L125.418 1137.71 L130.093 1137.71 L130.093 1168.33 L137.732 1168.33 L137.732 1172.27 L117.825 1172.27 L117.825 1168.33 Z" fill="#000000" fill-rule="nonzero" fill-opacity="1" /><path clip-path="url(#clip210)" d="M157.177 1140.79 Q153.566 1140.79 151.737 1144.35 Q149.931 1147.89 149.931 1155.02 Q149.931 1162.13 151.737 1165.7 Q153.566 1169.24 157.177 1169.24 Q160.811 1169.24 162.616 1165.7 Q164.445 1162.13 164.445 1155.02 Q164.445 1147.89 162.616 1144.35 Q160.811 1140.79 157.177 1140.79 M157.177 1137.08 Q162.987 1137.08 166.042 1141.69 Q169.121 1146.27 169.121 1155.02 Q169.121 1163.75 166.042 1168.36 Q162.987 1172.94 157.177 1172.94 Q151.366 1172.94 148.288 1168.36 Q145.232 1163.75 145.232 1155.02 Q145.232 1146.27 148.288 1141.69 Q151.366 1137.08 157.177 1137.08 Z" fill="#000000" fill-rule="nonzero" fill-opacity="1" /><path clip-path="url(#clip210)" d="M187.338 1140.79 Q183.727 1140.79 181.899 1144.35 Q180.093 1147.89 180.093 1155.02 Q180.093 1162.13 181.899 1165.7 Q183.727 1169.24 187.338 1169.24 Q190.973 1169.24 192.778 1165.7 Q194.607 1162.13 194.607 1155.02 Q194.607 1147.89 192.778 1144.35 Q190.973 1140.79 187.338 1140.79 M187.338 1137.08 Q193.149 1137.08 196.204 1141.69 Q199.283 1146.27 199.283 1155.02 Q199.283 1163.75 196.204 1168.36 Q193.149 1172.94 187.338 1172.94 Q181.528 1172.94 178.45 1168.36 Q175.394 1163.75 175.394 1155.02 Q175.394 1146.27 178.45 1141.69 Q181.528 1137.08 187.338 1137.08 Z" fill="#000000" fill-rule="nonzero" fill-opacity="1" /><path clip-path="url(#clip210)" d="M121.043 930.726 L137.362 930.726 L137.362 934.661 L115.418 934.661 L115.418 930.726 Q118.08 927.972 122.663 923.342 Q127.269 918.689 128.45 917.347 Q130.695 914.823 131.575 913.087 Q132.478 911.328 132.478 909.638 Q132.478 906.884 130.533 905.148 Q128.612 903.412 125.51 903.412 Q123.311 903.412 120.857 904.175 Q118.427 904.939 115.649 906.49 L115.649 901.768 Q118.473 900.634 120.927 900.055 Q123.38 899.476 125.418 899.476 Q130.788 899.476 133.982 902.162 Q137.177 904.847 137.177 909.337 Q137.177 911.467 136.367 913.388 Q135.579 915.286 133.473 917.879 Q132.894 918.55 129.792 921.768 Q126.691 924.962 121.043 930.726 Z" fill="#000000" fill-rule="nonzero" fill-opacity="1" /><path clip-path="url(#clip210)" d="M157.177 903.18 Q153.566 903.18 151.737 906.745 Q149.931 910.286 149.931 917.416 Q149.931 924.522 151.737 928.087 Q153.566 931.629 157.177 931.629 Q160.811 931.629 162.616 928.087 Q164.445 924.522 164.445 917.416 Q164.445 910.286 162.616 906.745 Q160.811 903.18 157.177 903.18 M157.177 899.476 Q162.987 899.476 166.042 904.083 Q169.121 908.666 169.121 917.416 Q169.121 926.143 166.042 930.749 Q162.987 935.333 157.177 935.333 Q151.366 935.333 148.288 930.749 Q145.232 926.143 145.232 917.416 Q145.232 908.666 148.288 904.083 Q151.366 899.476 157.177 899.476 Z" fill="#000000" fill-rule="nonzero" fill-opacity="1" /><path clip-path="url(#clip210)" d="M187.338 903.18 Q183.727 903.18 181.899 906.745 Q180.093 910.286 180.093 917.416 Q180.093 924.522 181.899 928.087 Q183.727 931.629 187.338 931.629 Q190.973 931.629 192.778 928.087 Q194.607 924.522 194.607 917.416 Q194.607 910.286 192.778 906.745 Q190.973 903.18 187.338 903.18 M187.338 899.476 Q193.149 899.476 196.204 904.083 Q199.283 908.666 199.283 917.416 Q199.283 926.143 196.204 930.749 Q193.149 935.333 187.338 935.333 Q181.528 935.333 178.45 930.749 Q175.394 926.143 175.394 917.416 Q175.394 908.666 178.45 904.083 Q181.528 899.476 187.338 899.476 Z" fill="#000000" fill-rule="nonzero" fill-opacity="1" /><path clip-path="url(#clip210)" d="M131.181 678.419 Q134.538 679.136 136.413 681.405 Q138.311 683.673 138.311 687.007 Q138.311 692.122 134.792 694.923 Q131.274 697.724 124.793 697.724 Q122.617 697.724 120.302 697.284 Q118.01 696.868 115.556 696.011 L115.556 691.497 Q117.501 692.632 119.816 693.21 Q122.13 693.789 124.654 693.789 Q129.052 693.789 131.343 692.053 Q133.658 690.317 133.658 687.007 Q133.658 683.951 131.505 682.238 Q129.376 680.502 125.556 680.502 L121.529 680.502 L121.529 676.66 L125.742 676.66 Q129.191 676.66 131.019 675.294 Q132.848 673.905 132.848 671.312 Q132.848 668.65 130.95 667.238 Q129.075 665.803 125.556 665.803 Q123.635 665.803 121.436 666.22 Q119.237 666.636 116.598 667.516 L116.598 663.349 Q119.26 662.609 121.575 662.238 Q123.913 661.868 125.973 661.868 Q131.297 661.868 134.399 664.299 Q137.501 666.706 137.501 670.826 Q137.501 673.697 135.857 675.687 Q134.214 677.655 131.181 678.419 Z" fill="#000000" fill-rule="nonzero" fill-opacity="1" /><path clip-path="url(#clip210)" d="M157.177 665.572 Q153.566 665.572 151.737 669.136 Q149.931 672.678 149.931 679.808 Q149.931 686.914 151.737 690.479 Q153.566 694.021 157.177 694.021 Q160.811 694.021 162.616 690.479 Q164.445 686.914 164.445 679.808 Q164.445 672.678 162.616 669.136 Q160.811 665.572 157.177 665.572 M157.177 661.868 Q162.987 661.868 166.042 666.474 Q169.121 671.058 169.121 679.808 Q169.121 688.534 166.042 693.141 Q162.987 697.724 157.177 697.724 Q151.366 697.724 148.288 693.141 Q145.232 688.534 145.232 679.808 Q145.232 671.058 148.288 666.474 Q151.366 661.868 157.177 661.868 Z" fill="#000000" fill-rule="nonzero" fill-opacity="1" /><path clip-path="url(#clip210)" d="M187.338 665.572 Q183.727 665.572 181.899 669.136 Q180.093 672.678 180.093 679.808 Q180.093 686.914 181.899 690.479 Q183.727 694.021 187.338 694.021 Q190.973 694.021 192.778 690.479 Q194.607 686.914 194.607 679.808 Q194.607 672.678 192.778 669.136 Q190.973 665.572 187.338 665.572 M187.338 661.868 Q193.149 661.868 196.204 666.474 Q199.283 671.058 199.283 679.808 Q199.283 688.534 196.204 693.141 Q193.149 697.724 187.338 697.724 Q181.528 697.724 178.45 693.141 Q175.394 688.534 175.394 679.808 Q175.394 671.058 178.45 666.474 Q181.528 661.868 187.338 661.868 Z" fill="#000000" fill-rule="nonzero" fill-opacity="1" /><path clip-path="url(#clip210)" d="M129.862 428.959 L118.056 447.408 L129.862 447.408 L129.862 428.959 M128.635 424.885 L134.515 424.885 L134.515 447.408 L139.445 447.408 L139.445 451.297 L134.515 451.297 L134.515 459.445 L129.862 459.445 L129.862 451.297 L114.26 451.297 L114.26 446.783 L128.635 424.885 Z" fill="#000000" fill-rule="nonzero" fill-opacity="1" /><path clip-path="url(#clip210)" d="M157.177 427.963 Q153.566 427.963 151.737 431.528 Q149.931 435.07 149.931 442.199 Q149.931 449.306 151.737 452.871 Q153.566 456.412 157.177 456.412 Q160.811 456.412 162.616 452.871 Q164.445 449.306 164.445 442.199 Q164.445 435.07 162.616 431.528 Q160.811 427.963 157.177 427.963 M157.177 424.26 Q162.987 424.26 166.042 428.866 Q169.121 433.449 169.121 442.199 Q169.121 450.926 166.042 455.533 Q162.987 460.116 157.177 460.116 Q151.366 460.116 148.288 455.533 Q145.232 450.926 145.232 442.199 Q145.232 433.449 148.288 428.866 Q151.366 424.26 157.177 424.26 Z" fill="#000000" fill-rule="nonzero" fill-opacity="1" /><path clip-path="url(#clip210)" d="M187.338 427.963 Q183.727 427.963 181.899 431.528 Q180.093 435.07 180.093 442.199 Q180.093 449.306 181.899 452.871 Q183.727 456.412 187.338 456.412 Q190.973 456.412 192.778 452.871 Q194.607 449.306 194.607 442.199 Q194.607 435.07 192.778 431.528 Q190.973 427.963 187.338 427.963 M187.338 424.26 Q193.149 424.26 196.204 428.866 Q199.283 433.449 199.283 442.199 Q199.283 450.926 196.204 455.533 Q193.149 460.116 187.338 460.116 Q181.528 460.116 178.45 455.533 Q175.394 450.926 175.394 442.199 Q175.394 433.449 178.45 428.866 Q181.528 424.26 187.338 424.26 Z" fill="#000000" fill-rule="nonzero" fill-opacity="1" /><path clip-path="url(#clip210)" d="M117.061 187.276 L135.417 187.276 L135.417 191.211 L121.343 191.211 L121.343 199.684 Q122.362 199.336 123.38 199.174 Q124.399 198.989 125.418 198.989 Q131.205 198.989 134.584 202.16 Q137.964 205.332 137.964 210.748 Q137.964 216.327 134.492 219.429 Q131.019 222.508 124.7 222.508 Q122.524 222.508 120.255 222.137 Q118.01 221.767 115.603 221.026 L115.603 216.327 Q117.686 217.461 119.908 218.017 Q122.13 218.572 124.607 218.572 Q128.612 218.572 130.95 216.466 Q133.288 214.359 133.288 210.748 Q133.288 207.137 130.95 205.031 Q128.612 202.924 124.607 202.924 Q122.732 202.924 120.857 203.341 Q119.006 203.758 117.061 204.637 L117.061 187.276 Z" fill="#000000" fill-rule="nonzero" fill-opacity="1" /><path clip-path="url(#clip210)" d="M157.177 190.355 Q153.566 190.355 151.737 193.92 Q149.931 197.461 149.931 204.591 Q149.931 211.697 151.737 215.262 Q153.566 218.804 157.177 218.804 Q160.811 218.804 162.616 215.262 Q164.445 211.697 164.445 204.591 Q164.445 197.461 162.616 193.92 Q160.811 190.355 157.177 190.355 M157.177 186.651 Q162.987 186.651 166.042 191.258 Q169.121 195.841 169.121 204.591 Q169.121 213.318 166.042 217.924 Q162.987 222.508 157.177 222.508 Q151.366 222.508 148.288 217.924 Q145.232 213.318 145.232 204.591 Q145.232 195.841 148.288 191.258 Q151.366 186.651 157.177 186.651 Z" fill="#000000" fill-rule="nonzero" fill-opacity="1" /><path clip-path="url(#clip210)" d="M187.338 190.355 Q183.727 190.355 181.899 193.92 Q180.093 197.461 180.093 204.591 Q180.093 211.697 181.899 215.262 Q183.727 218.804 187.338 218.804 Q190.973 218.804 192.778 215.262 Q194.607 211.697 194.607 204.591 Q194.607 197.461 192.778 193.92 Q190.973 190.355 187.338 190.355 M187.338 186.651 Q193.149 186.651 196.204 191.258 Q199.283 195.841 199.283 204.591 Q199.283 213.318 196.204 217.924 Q193.149 222.508 187.338 222.508 Q181.528 222.508 178.45 217.924 Q175.394 213.318 175.394 204.591 Q175.394 195.841 178.45 191.258 Q181.528 186.651 187.338 186.651 Z" fill="#000000" fill-rule="nonzero" fill-opacity="1" /><path clip-path="url(#clip210)" d="M20.1444 1146.23 L26.9239 1146.23 Q23.9002 1149.48 22.4043 1153.17 Q20.9083 1156.83 20.9083 1160.97 Q20.9083 1169.12 25.9054 1173.45 Q30.8707 1177.77 40.2919 1177.77 Q49.6813 1177.77 54.6784 1173.45 Q59.6436 1169.12 59.6436 1160.97 Q59.6436 1156.83 58.1477 1153.17 Q56.6518 1149.48 53.6281 1146.23 L60.3439 1146.23 Q62.6355 1149.61 63.7814 1153.39 Q64.9272 1157.15 64.9272 1161.35 Q64.9272 1172.14 58.3387 1178.35 Q51.7183 1184.55 40.2919 1184.55 Q28.8336 1184.55 22.2451 1178.35 Q15.6248 1172.14 15.6248 1161.35 Q15.6248 1157.09 16.7706 1153.33 Q17.8846 1149.54 20.1444 1146.23 Z" fill="#000000" fill-rule="nonzero" fill-opacity="1" /><path clip-path="url(#clip210)" d="M32.4621 1122.74 Q32.4621 1127.45 36.1542 1130.19 Q39.8145 1132.93 46.212 1132.93 Q52.6095 1132.93 56.3017 1130.22 Q59.9619 1127.48 59.9619 1122.74 Q59.9619 1118.06 56.2698 1115.33 Q52.5777 1112.59 46.212 1112.59 Q39.8781 1112.59 36.186 1115.33 Q32.4621 1118.06 32.4621 1122.74 M27.4968 1122.74 Q27.4968 1115.1 32.4621 1110.74 Q37.4273 1106.38 46.212 1106.38 Q54.9649 1106.38 59.9619 1110.74 Q64.9272 1115.1 64.9272 1122.74 Q64.9272 1130.41 59.9619 1134.77 Q54.9649 1139.1 46.212 1139.1 Q37.4273 1139.1 32.4621 1134.77 Q27.4968 1130.41 27.4968 1122.74 Z" fill="#000000" fill-rule="nonzero" fill-opacity="1" /><path clip-path="url(#clip210)" d="M35.1993 1068.92 Q31.2526 1066.72 29.3747 1063.67 Q27.4968 1060.61 27.4968 1056.48 Q27.4968 1050.91 31.4117 1047.88 Q35.2948 1044.86 42.4881 1044.86 L64.0042 1044.86 L64.0042 1050.75 L42.679 1050.75 Q37.5546 1050.75 35.072 1052.56 Q32.5894 1054.37 32.5894 1058.1 Q32.5894 1062.65 35.6131 1065.29 Q38.6368 1067.93 43.8567 1067.93 L64.0042 1067.93 L64.0042 1073.82 L42.679 1073.82 Q37.5228 1073.82 35.072 1075.64 Q32.5894 1077.45 32.5894 1081.24 Q32.5894 1085.73 35.6449 1088.37 Q38.6686 1091.01 43.8567 1091.01 L64.0042 1091.01 L64.0042 1096.9 L28.3562 1096.9 L28.3562 1091.01 L33.8944 1091.01 Q30.616 1089 29.0564 1086.2 Q27.4968 1083.4 27.4968 1079.55 Q27.4968 1075.67 29.4702 1072.96 Q31.4436 1070.23 35.1993 1068.92 Z" fill="#000000" fill-rule="nonzero" fill-opacity="1" /><path clip-path="url(#clip210)" d="M58.657 1027.51 L77.5631 1027.51 L77.5631 1033.4 L28.3562 1033.4 L28.3562 1027.51 L33.7671 1027.51 Q30.5842 1025.67 29.0564 1022.86 Q27.4968 1020.03 27.4968 1016.12 Q27.4968 1009.62 32.6531 1005.58 Q37.8093 1001.51 46.212 1001.51 Q54.6147 1001.51 59.771 1005.58 Q64.9272 1009.62 64.9272 1016.12 Q64.9272 1020.03 63.3994 1022.86 Q61.8398 1025.67 58.657 1027.51 M46.212 1007.59 Q39.7508 1007.59 36.0905 1010.26 Q32.3984 1012.9 32.3984 1017.55 Q32.3984 1022.2 36.0905 1024.87 Q39.7508 1027.51 46.212 1027.51 Q52.6732 1027.51 56.3653 1024.87 Q60.0256 1022.2 60.0256 1017.55 Q60.0256 1012.9 56.3653 1010.26 Q52.6732 1007.59 46.212 1007.59 Z" fill="#000000" fill-rule="nonzero" fill-opacity="1" /><path clip-path="url(#clip210)" d="M49.9359 992.405 L28.3562 992.405 L28.3562 986.548 L49.7131 986.548 Q54.7739 986.548 57.3202 984.575 Q59.8346 982.601 59.8346 978.655 Q59.8346 973.912 56.8109 971.175 Q53.7872 968.406 48.5673 968.406 L28.3562 968.406 L28.3562 962.55 L64.0042 962.55 L64.0042 968.406 L58.5296 968.406 Q61.7762 970.538 63.3676 973.371 Q64.9272 976.172 64.9272 979.896 Q64.9272 986.039 61.1078 989.222 Q57.2883 992.405 49.9359 992.405 M27.4968 977.668 L27.4968 977.668 Z" fill="#000000" fill-rule="nonzero" fill-opacity="1" /><path clip-path="url(#clip210)" d="M18.2347 944.694 L28.3562 944.694 L28.3562 932.631 L32.9077 932.631 L32.9077 944.694 L52.2594 944.694 Q56.6199 944.694 57.8613 943.516 Q59.1026 942.307 59.1026 938.646 L59.1026 932.631 L64.0042 932.631 L64.0042 938.646 Q64.0042 945.426 61.4897 948.004 Q58.9434 950.582 52.2594 950.582 L32.9077 950.582 L32.9077 954.879 L28.3562 954.879 L28.3562 950.582 L18.2347 950.582 L18.2347 944.694 Z" fill="#000000" fill-rule="nonzero" fill-opacity="1" /><path clip-path="url(#clip210)" d="M46.0847 908.727 Q46.0847 915.825 47.7079 918.562 Q49.3312 921.3 53.2461 921.3 Q56.3653 921.3 58.2114 919.263 Q60.0256 917.194 60.0256 913.661 Q60.0256 908.791 56.5881 905.863 Q53.1188 902.903 47.3897 902.903 L46.0847 902.903 L46.0847 908.727 M43.6657 897.046 L64.0042 897.046 L64.0042 902.903 L58.5933 902.903 Q61.8398 904.908 63.3994 907.9 Q64.9272 910.892 64.9272 915.22 Q64.9272 920.695 61.8716 923.941 Q58.7843 927.156 53.6281 927.156 Q47.6125 927.156 44.5569 923.146 Q41.5014 919.104 41.5014 911.115 L41.5014 902.903 L40.9285 902.903 Q36.8862 902.903 34.6901 905.576 Q32.4621 908.218 32.4621 913.024 Q32.4621 916.08 33.1941 918.976 Q33.9262 921.873 35.3903 924.546 L29.9795 924.546 Q28.7381 921.332 28.1334 918.308 Q27.4968 915.284 27.4968 912.42 Q27.4968 904.685 31.5072 900.866 Q35.5176 897.046 43.6657 897.046 Z" fill="#000000" fill-rule="nonzero" fill-opacity="1" /><path clip-path="url(#clip210)" d="M18.2347 879.191 L28.3562 879.191 L28.3562 867.128 L32.9077 867.128 L32.9077 879.191 L52.2594 879.191 Q56.6199 879.191 57.8613 878.013 Q59.1026 876.803 59.1026 873.143 L59.1026 867.128 L64.0042 867.128 L64.0042 873.143 Q64.0042 879.923 61.4897 882.501 Q58.9434 885.079 52.2594 885.079 L32.9077 885.079 L32.9077 889.376 L28.3562 889.376 L28.3562 885.079 L18.2347 885.079 L18.2347 879.191 Z" fill="#000000" fill-rule="nonzero" fill-opacity="1" /><path clip-path="url(#clip210)" d="M28.3562 859.425 L28.3562 853.569 L64.0042 853.569 L64.0042 859.425 L28.3562 859.425 M14.479 859.425 L14.479 853.569 L21.895 853.569 L21.895 859.425 L14.479 859.425 Z" fill="#000000" fill-rule="nonzero" fill-opacity="1" /><path clip-path="url(#clip210)" d="M32.4621 827.501 Q32.4621 832.212 36.1542 834.949 Q39.8145 837.686 46.212 837.686 Q52.6095 837.686 56.3017 834.981 Q59.9619 832.243 59.9619 827.501 Q59.9619 822.822 56.2698 820.085 Q52.5777 817.348 46.212 817.348 Q39.8781 817.348 36.186 820.085 Q32.4621 822.822 32.4621 827.501 M27.4968 827.501 Q27.4968 819.862 32.4621 815.502 Q37.4273 811.141 46.212 811.141 Q54.9649 811.141 59.9619 815.502 Q64.9272 819.862 64.9272 827.501 Q64.9272 835.172 59.9619 839.532 Q54.9649 843.861 46.212 843.861 Q37.4273 843.861 32.4621 839.532 Q27.4968 835.172 27.4968 827.501 Z" fill="#000000" fill-rule="nonzero" fill-opacity="1" /><path clip-path="url(#clip210)" d="M42.4881 771.801 L64.0042 771.801 L64.0042 777.658 L42.679 777.658 Q37.6183 777.658 35.1038 779.631 Q32.5894 781.604 32.5894 785.551 Q32.5894 790.293 35.6131 793.031 Q38.6368 795.768 43.8567 795.768 L64.0042 795.768 L64.0042 801.656 L28.3562 801.656 L28.3562 795.768 L33.8944 795.768 Q30.6797 793.667 29.0883 790.835 Q27.4968 787.97 27.4968 784.246 Q27.4968 778.103 31.3163 774.952 Q35.1038 771.801 42.4881 771.801 Z" fill="#000000" fill-rule="nonzero" fill-opacity="1" /><path clip-path="url(#clip210)" d="M16.4842 745.734 L16.4842 705.534 L21.895 705.534 L21.895 722.403 L64.0042 722.403 L64.0042 728.864 L21.895 728.864 L21.895 745.734 L16.4842 745.734 Z" fill="#000000" fill-rule="nonzero" fill-opacity="1" /><path clip-path="url(#clip210)" d="M28.3562 701.587 L28.3562 695.731 L64.0042 695.731 L64.0042 701.587 L28.3562 701.587 M14.479 701.587 L14.479 695.731 L21.895 695.731 L21.895 701.587 L14.479 701.587 Z" fill="#000000" fill-rule="nonzero" fill-opacity="1" /><path clip-path="url(#clip210)" d="M35.1993 655.722 Q31.2526 653.526 29.3747 650.471 Q27.4968 647.415 27.4968 643.277 Q27.4968 637.707 31.4117 634.684 Q35.2948 631.66 42.4881 631.66 L64.0042 631.66 L64.0042 637.548 L42.679 637.548 Q37.5546 637.548 35.072 639.363 Q32.5894 641.177 32.5894 644.901 Q32.5894 649.452 35.6131 652.094 Q38.6368 654.736 43.8567 654.736 L64.0042 654.736 L64.0042 660.624 L42.679 660.624 Q37.5228 660.624 35.072 662.438 Q32.5894 664.252 32.5894 668.04 Q32.5894 672.528 35.6449 675.17 Q38.6686 677.811 43.8567 677.811 L64.0042 677.811 L64.0042 683.7 L28.3562 683.7 L28.3562 677.811 L33.8944 677.811 Q30.616 675.806 29.0564 673.005 Q27.4968 670.204 27.4968 666.353 Q27.4968 662.47 29.4702 659.765 Q31.4436 657.027 35.1993 655.722 Z" fill="#000000" fill-rule="nonzero" fill-opacity="1" /><path clip-path="url(#clip210)" d="M44.7161 589.487 L47.5806 589.487 L47.5806 616.414 Q53.6281 616.032 56.8109 612.786 Q59.9619 609.507 59.9619 603.683 Q59.9619 600.309 59.1344 597.158 Q58.3069 593.975 56.6518 590.856 L62.1899 590.856 Q63.5267 594.007 64.227 597.317 Q64.9272 600.627 64.9272 604.033 Q64.9272 612.563 59.9619 617.56 Q54.9967 622.525 46.5303 622.525 Q37.7774 622.525 32.6531 617.815 Q27.4968 613.072 27.4968 605.051 Q27.4968 597.858 32.1438 593.689 Q36.7589 589.487 44.7161 589.487 M42.9973 595.344 Q38.1912 595.407 35.3266 598.049 Q32.4621 600.659 32.4621 604.988 Q32.4621 609.889 35.2312 612.849 Q38.0002 615.778 43.0292 616.223 L42.9973 595.344 Z" fill="#000000" fill-rule="nonzero" fill-opacity="1" /><path clip-path="url(#clip210)" d="M14.479 559.696 L14.479 546.2 L19.0304 546.2 L19.0304 553.839 L68.0464 553.839 L68.0464 546.2 L72.5979 546.2 L72.5979 559.696 L14.479 559.696 Z" fill="#000000" fill-rule="nonzero" fill-opacity="1" /><path clip-path="url(#clip210)" d="M35.1993 505.969 Q31.2526 503.773 29.3747 500.717 Q27.4968 497.662 27.4968 493.524 Q27.4968 487.954 31.4117 484.931 Q35.2948 481.907 42.4881 481.907 L64.0042 481.907 L64.0042 487.795 L42.679 487.795 Q37.5546 487.795 35.072 489.609 Q32.5894 491.424 32.5894 495.147 Q32.5894 499.699 35.6131 502.341 Q38.6368 504.983 43.8567 504.983 L64.0042 504.983 L64.0042 510.871 L42.679 510.871 Q37.5228 510.871 35.072 512.685 Q32.5894 514.499 32.5894 518.287 Q32.5894 522.775 35.6449 525.416 Q38.6686 528.058 43.8567 528.058 L64.0042 528.058 L64.0042 533.946 L28.3562 533.946 L28.3562 528.058 L33.8944 528.058 Q30.616 526.053 29.0564 523.252 Q27.4968 520.451 27.4968 516.6 Q27.4968 512.717 29.4702 510.011 Q31.4436 507.274 35.1993 505.969 Z" fill="#000000" fill-rule="nonzero" fill-opacity="1" /><path clip-path="url(#clip210)" d="M29.4065 447.5 L34.9447 447.5 Q33.6716 449.983 33.035 452.656 Q32.3984 455.33 32.3984 458.195 Q32.3984 462.555 33.7352 464.751 Q35.072 466.916 37.7456 466.916 Q39.7826 466.916 40.9603 465.356 Q42.1061 463.796 43.1565 459.086 L43.6021 457.081 Q44.9389 450.842 47.3897 448.232 Q49.8086 445.59 54.1691 445.59 Q59.1344 445.59 62.0308 449.537 Q64.9272 453.452 64.9272 460.327 Q64.9272 463.192 64.3543 466.311 Q63.8132 469.398 62.6992 472.836 L56.6518 472.836 Q58.3387 469.589 59.198 466.438 Q60.0256 463.287 60.0256 460.2 Q60.0256 456.062 58.6251 453.834 Q57.1929 451.606 54.6147 451.606 Q52.2276 451.606 50.9545 453.229 Q49.6813 454.821 48.5037 460.263 L48.0262 462.3 Q46.8804 467.743 44.5251 470.162 Q42.138 472.581 38.0002 472.581 Q32.9713 472.581 30.2341 469.016 Q27.4968 465.451 27.4968 458.895 Q27.4968 455.648 27.9743 452.784 Q28.4517 449.919 29.4065 447.5 Z" fill="#000000" fill-rule="nonzero" fill-opacity="1" /><path clip-path="url(#clip210)" d="M14.479 422.578 L72.5979 422.578 L72.5979 436.074 L68.0464 436.074 L68.0464 428.467 L19.0304 428.467 L19.0304 436.074 L14.479 436.074 L14.479 422.578 Z" fill="#000000" fill-rule="nonzero" fill-opacity="1" /><path clip-path="url(#clip210)" d="M749.254 33.264 L757.518 33.264 L770.237 84.3864 L782.917 33.264 L792.112 33.264 L804.832 84.3864 L817.512 33.264 L825.816 33.264 L810.625 93.744 L800.336 93.744 L787.575 41.2443 L774.693 93.744 L764.404 93.744 L749.254 33.264 Z" fill="#000000" fill-rule="nonzero" fill-opacity="1" /><path clip-path="url(#clip210)" d="M834.525 48.3739 L841.979 48.3739 L841.979 93.744 L834.525 93.744 L834.525 48.3739 M834.525 30.7119 L841.979 30.7119 L841.979 40.1505 L834.525 40.1505 L834.525 30.7119 Z" fill="#000000" fill-rule="nonzero" fill-opacity="1" /><path clip-path="url(#clip210)" d="M883.865 55.3414 Q882.61 54.6123 881.111 54.2882 Q879.652 53.9236 877.87 53.9236 Q871.551 53.9236 868.148 58.0555 Q864.786 62.1469 864.786 69.8437 L864.786 93.744 L857.291 93.744 L857.291 48.3739 L864.786 48.3739 L864.786 55.4224 Q867.135 51.2905 870.902 49.3056 Q874.67 47.2801 880.057 47.2801 Q880.827 47.2801 881.759 47.4017 Q882.691 47.4827 883.825 47.6852 L883.865 55.3414 Z" fill="#000000" fill-rule="nonzero" fill-opacity="1" /><path clip-path="url(#clip210)" d="M928.668 69.1955 L928.668 72.8413 L894.398 72.8413 Q894.884 80.5381 899.016 84.589 Q903.188 88.5994 910.601 88.5994 Q914.895 88.5994 918.906 87.5461 Q922.957 86.4929 926.926 84.3864 L926.926 91.435 Q922.916 93.1364 918.703 94.0276 Q914.49 94.9188 910.156 94.9188 Q899.299 94.9188 892.939 88.5994 Q886.62 82.2799 886.62 71.5045 Q886.62 60.3645 892.615 53.8426 Q898.651 47.2801 908.859 47.2801 Q918.014 47.2801 923.321 53.1944 Q928.668 59.0683 928.668 69.1955 M921.215 67.008 Q921.134 60.8912 917.771 57.2454 Q914.45 53.5995 908.94 53.5995 Q902.702 53.5995 898.935 57.1238 Q895.208 60.6481 894.641 67.0485 L921.215 67.008 Z" fill="#000000" fill-rule="nonzero" fill-opacity="1" /><path clip-path="url(#clip210)" d="M1003.85 35.2489 L1003.85 43.2292 Q999.195 41.0012 995.063 39.9075 Q990.931 38.8137 987.082 38.8137 Q980.398 38.8137 976.753 41.4063 Q973.147 43.9989 973.147 48.779 Q973.147 52.7894 975.537 54.8553 Q977.968 56.8808 984.692 58.1366 L989.634 59.1493 Q998.789 60.8912 1003.12 65.3067 Q1007.5 69.6816 1007.5 77.0543 Q1007.5 85.8447 1001.58 90.3817 Q995.711 94.9188 984.328 94.9188 Q980.034 94.9188 975.173 93.9465 Q970.352 92.9743 965.167 91.0704 L965.167 82.6445 Q970.15 85.4396 974.93 86.8575 Q979.71 88.2753 984.328 88.2753 Q991.336 88.2753 995.144 85.5207 Q998.952 82.766 998.952 77.6619 Q998.952 73.2059 996.197 70.6944 Q993.483 68.1828 987.244 66.927 L982.262 65.9548 Q973.107 64.1319 969.015 60.243 Q964.924 56.3542 964.924 49.4271 Q964.924 41.4063 970.555 36.7883 Q976.226 32.1703 986.151 32.1703 Q990.404 32.1703 994.82 32.9399 Q999.235 33.7096 1003.85 35.2489 Z" fill="#000000" fill-rule="nonzero" fill-opacity="1" /><path clip-path="url(#clip210)" d="M1037.52 53.5995 Q1031.52 53.5995 1028.04 58.2986 Q1024.55 62.9571 1024.55 71.0994 Q1024.55 79.2418 1028 83.9408 Q1031.48 88.5994 1037.52 88.5994 Q1043.47 88.5994 1046.95 83.9003 Q1050.44 79.2013 1050.44 71.0994 Q1050.44 63.0381 1046.95 58.3391 Q1043.47 53.5995 1037.52 53.5995 M1037.52 47.2801 Q1047.24 47.2801 1052.79 53.5995 Q1058.34 59.9189 1058.34 71.0994 Q1058.34 82.2394 1052.79 88.5994 Q1047.24 94.9188 1037.52 94.9188 Q1027.75 94.9188 1022.2 88.5994 Q1016.69 82.2394 1016.69 71.0994 Q1016.69 59.9189 1022.2 53.5995 Q1027.75 47.2801 1037.52 47.2801 Z" fill="#000000" fill-rule="nonzero" fill-opacity="1" /><path clip-path="url(#clip210)" d="M1069.92 75.839 L1069.92 48.3739 L1077.38 48.3739 L1077.38 75.5554 Q1077.38 81.9964 1079.89 85.2371 Q1082.4 88.4373 1087.42 88.4373 Q1093.46 88.4373 1096.94 84.589 Q1100.47 80.7406 1100.47 74.0971 L1100.47 48.3739 L1107.92 48.3739 L1107.92 93.744 L1100.47 93.744 L1100.47 86.7764 Q1097.75 90.9084 1094.15 92.9338 Q1090.58 94.9188 1085.84 94.9188 Q1078.03 94.9188 1073.97 90.0577 Q1069.92 85.1966 1069.92 75.839 M1088.68 47.2801 L1088.68 47.2801 Z" fill="#000000" fill-rule="nonzero" fill-opacity="1" /><path clip-path="url(#clip210)" d="M1149.56 55.3414 Q1148.31 54.6123 1146.81 54.2882 Q1145.35 53.9236 1143.57 53.9236 Q1137.25 53.9236 1133.85 58.0555 Q1130.48 62.1469 1130.48 69.8437 L1130.48 93.744 L1122.99 93.744 L1122.99 48.3739 L1130.48 48.3739 L1130.48 55.4224 Q1132.83 51.2905 1136.6 49.3056 Q1140.37 47.2801 1145.76 47.2801 Q1146.53 47.2801 1147.46 47.4017 Q1148.39 47.4827 1149.52 47.6852 L1149.56 55.3414 Z" fill="#000000" fill-rule="nonzero" fill-opacity="1" /><path clip-path="url(#clip210)" d="M1188.21 50.1158 L1188.21 57.0833 Q1185.05 55.3414 1181.85 54.4907 Q1178.69 53.5995 1175.45 53.5995 Q1168.2 53.5995 1164.19 58.2176 Q1160.18 62.7951 1160.18 71.0994 Q1160.18 79.4038 1164.19 84.0218 Q1168.2 88.5994 1175.45 88.5994 Q1178.69 88.5994 1181.85 87.7487 Q1185.05 86.8575 1188.21 85.1156 L1188.21 92.0021 Q1185.09 93.4604 1181.73 94.1896 Q1178.41 94.9188 1174.64 94.9188 Q1164.39 94.9188 1158.35 88.4778 Q1152.32 82.0369 1152.32 71.0994 Q1152.32 60 1158.4 53.64 Q1164.51 47.2801 1175.13 47.2801 Q1178.57 47.2801 1181.85 48.0093 Q1185.13 48.6979 1188.21 50.1158 Z" fill="#000000" fill-rule="nonzero" fill-opacity="1" /><path clip-path="url(#clip210)" d="M1239.98 69.1955 L1239.98 72.8413 L1205.71 72.8413 Q1206.2 80.5381 1210.33 84.589 Q1214.5 88.5994 1221.91 88.5994 Q1226.21 88.5994 1230.22 87.5461 Q1234.27 86.4929 1238.24 84.3864 L1238.24 91.435 Q1234.23 93.1364 1230.02 94.0276 Q1225.8 94.9188 1221.47 94.9188 Q1210.61 94.9188 1204.25 88.5994 Q1197.93 82.2799 1197.93 71.5045 Q1197.93 60.3645 1203.93 53.8426 Q1209.96 47.2801 1220.17 47.2801 Q1229.33 47.2801 1234.63 53.1944 Q1239.98 59.0683 1239.98 69.1955 M1232.53 67.008 Q1232.45 60.8912 1229.08 57.2454 Q1225.76 53.5995 1220.25 53.5995 Q1214.01 53.5995 1210.25 57.1238 Q1206.52 60.6481 1205.95 67.0485 L1232.53 67.008 Z" fill="#000000" fill-rule="nonzero" fill-opacity="1" /><path clip-path="url(#clip210)" d="M1274.82 67.6967 L1296.65 67.6967 L1296.65 74.3402 L1274.82 74.3402 L1274.82 67.6967 Z" fill="#000000" fill-rule="nonzero" fill-opacity="1" /><path clip-path="url(#clip210)" d="M1343.4 64.8611 L1343.4 87.0195 L1356.52 87.0195 Q1363.13 87.0195 1366.29 84.3054 Q1369.49 81.5508 1369.49 75.92 Q1369.49 70.2488 1366.29 67.5752 Q1363.13 64.8611 1356.52 64.8611 L1343.4 64.8611 M1343.4 39.9885 L1343.4 58.2176 L1355.51 58.2176 Q1361.51 58.2176 1364.42 55.9896 Q1367.38 53.7211 1367.38 49.103 Q1367.38 44.5255 1364.42 42.257 Q1361.51 39.9885 1355.51 39.9885 L1343.4 39.9885 M1335.22 33.264 L1356.12 33.264 Q1365.48 33.264 1370.54 37.1529 Q1375.6 41.0417 1375.6 48.2118 Q1375.6 53.7616 1373.01 57.0428 Q1370.42 60.324 1365.4 61.1342 Q1371.43 62.4305 1374.75 66.5624 Q1378.12 70.6538 1378.12 76.8112 Q1378.12 84.913 1372.61 89.3285 Q1367.1 93.744 1356.93 93.744 L1335.22 93.744 L1335.22 33.264 Z" fill="#000000" fill-rule="nonzero" fill-opacity="1" /><path clip-path="url(#clip210)" d="M1430.62 69.1955 L1430.62 72.8413 L1396.35 72.8413 Q1396.83 80.5381 1400.96 84.589 Q1405.14 88.5994 1412.55 88.5994 Q1416.84 88.5994 1420.85 87.5461 Q1424.9 86.4929 1428.87 84.3864 L1428.87 91.435 Q1424.86 93.1364 1420.65 94.0276 Q1416.44 94.9188 1412.1 94.9188 Q1401.25 94.9188 1394.89 88.5994 Q1388.57 82.2799 1388.57 71.5045 Q1388.57 60.3645 1394.56 53.8426 Q1400.6 47.2801 1410.81 47.2801 Q1419.96 47.2801 1425.27 53.1944 Q1430.62 59.0683 1430.62 69.1955 M1423.16 67.008 Q1423.08 60.8912 1419.72 57.2454 Q1416.4 53.5995 1410.89 53.5995 Q1404.65 53.5995 1400.88 57.1238 Q1397.16 60.6481 1396.59 67.0485 L1423.16 67.008 Z" fill="#000000" fill-rule="nonzero" fill-opacity="1" /><path clip-path="url(#clip210)" d="M1480.56 66.3599 L1480.56 93.744 L1473.11 93.744 L1473.11 66.6029 Q1473.11 60.162 1470.6 56.9618 Q1468.09 53.7616 1463.06 53.7616 Q1457.03 53.7616 1453.54 57.6099 Q1450.06 61.4583 1450.06 68.1018 L1450.06 93.744 L1442.57 93.744 L1442.57 48.3739 L1450.06 48.3739 L1450.06 55.4224 Q1452.73 51.331 1456.34 49.3056 Q1459.98 47.2801 1464.72 47.2801 Q1472.54 47.2801 1476.55 52.1412 Q1480.56 56.9618 1480.56 66.3599 Z" fill="#000000" fill-rule="nonzero" fill-opacity="1" /><path clip-path="url(#clip210)" d="M1528.08 50.1158 L1528.08 57.0833 Q1524.92 55.3414 1521.72 54.4907 Q1518.56 53.5995 1515.32 53.5995 Q1508.07 53.5995 1504.06 58.2176 Q1500.05 62.7951 1500.05 71.0994 Q1500.05 79.4038 1504.06 84.0218 Q1508.07 88.5994 1515.32 88.5994 Q1518.56 88.5994 1521.72 87.7487 Q1524.92 86.8575 1528.08 85.1156 L1528.08 92.0021 Q1524.96 93.4604 1521.6 94.1896 Q1518.28 94.9188 1514.51 94.9188 Q1504.26 94.9188 1498.23 88.4778 Q1492.19 82.0369 1492.19 71.0994 Q1492.19 60 1498.27 53.64 Q1504.38 47.2801 1515 47.2801 Q1518.44 47.2801 1521.72 48.0093 Q1525 48.6979 1528.08 50.1158 Z" fill="#000000" fill-rule="nonzero" fill-opacity="1" /><path clip-path="url(#clip210)" d="M1578.76 66.3599 L1578.76 93.744 L1571.3 93.744 L1571.3 66.6029 Q1571.3 60.162 1568.79 56.9618 Q1566.28 53.7616 1561.26 53.7616 Q1555.22 53.7616 1551.74 57.6099 Q1548.25 61.4583 1548.25 68.1018 L1548.25 93.744 L1540.76 93.744 L1540.76 30.7119 L1548.25 30.7119 L1548.25 55.4224 Q1550.93 51.331 1554.53 49.3056 Q1558.18 47.2801 1562.92 47.2801 Q1570.74 47.2801 1574.75 52.1412 Q1578.76 56.9618 1578.76 66.3599 Z" fill="#000000" fill-rule="nonzero" fill-opacity="1" /><path clip-path="url(#clip210)" d="M1628.95 57.0833 Q1631.74 52.0602 1635.63 49.6702 Q1639.52 47.2801 1644.79 47.2801 Q1651.88 47.2801 1655.72 52.2627 Q1659.57 57.2048 1659.57 66.3599 L1659.57 93.744 L1652.08 93.744 L1652.08 66.6029 Q1652.08 60.081 1649.77 56.9213 Q1647.46 53.7616 1642.72 53.7616 Q1636.93 53.7616 1633.57 57.6099 Q1630.2 61.4583 1630.2 68.1018 L1630.2 93.744 L1622.71 93.744 L1622.71 66.6029 Q1622.71 60.0405 1620.4 56.9213 Q1618.09 53.7616 1613.27 53.7616 Q1607.56 53.7616 1604.2 57.6504 Q1600.83 61.4988 1600.83 68.1018 L1600.83 93.744 L1593.34 93.744 L1593.34 48.3739 L1600.83 48.3739 L1600.83 55.4224 Q1603.39 51.25 1606.95 49.2651 Q1610.52 47.2801 1615.42 47.2801 Q1620.36 47.2801 1623.8 49.7917 Q1627.29 52.3032 1628.95 57.0833 Z" fill="#000000" fill-rule="nonzero" fill-opacity="1" /><path clip-path="url(#clip210)" d="M1695.06 70.9374 Q1686.03 70.9374 1682.54 73.0034 Q1679.06 75.0693 1679.06 80.0519 Q1679.06 84.0218 1681.65 86.3714 Q1684.28 88.6804 1688.78 88.6804 Q1694.98 88.6804 1698.7 84.3054 Q1702.47 79.8899 1702.47 72.5983 L1702.47 70.9374 L1695.06 70.9374 M1709.93 67.8587 L1709.93 93.744 L1702.47 93.744 L1702.47 86.8575 Q1699.92 90.9894 1696.11 92.9743 Q1692.3 94.9188 1686.8 94.9188 Q1679.83 94.9188 1675.7 91.0299 Q1671.6 87.1005 1671.6 80.5381 Q1671.6 72.8818 1676.71 68.993 Q1681.85 65.1041 1692.02 65.1041 L1702.47 65.1041 L1702.47 64.3749 Q1702.47 59.2303 1699.07 56.4352 Q1695.71 53.5995 1689.59 53.5995 Q1685.7 53.5995 1682.01 54.5312 Q1678.33 55.463 1674.93 57.3264 L1674.93 50.4398 Q1679.02 48.86 1682.87 48.0903 Q1686.71 47.2801 1690.36 47.2801 Q1700.2 47.2801 1705.06 52.3843 Q1709.93 57.4884 1709.93 67.8587 Z" fill="#000000" fill-rule="nonzero" fill-opacity="1" /><path clip-path="url(#clip210)" d="M1751.57 55.3414 Q1750.31 54.6123 1748.81 54.2882 Q1747.36 53.9236 1745.57 53.9236 Q1739.25 53.9236 1735.85 58.0555 Q1732.49 62.1469 1732.49 69.8437 L1732.49 93.744 L1725 93.744 L1725 48.3739 L1732.49 48.3739 L1732.49 55.4224 Q1734.84 51.2905 1738.61 49.3056 Q1742.37 47.2801 1747.76 47.2801 Q1748.53 47.2801 1749.46 47.4017 Q1750.39 47.4827 1751.53 47.6852 L1751.57 55.3414 Z" fill="#000000" fill-rule="nonzero" fill-opacity="1" /><path clip-path="url(#clip210)" d="M1759.1 30.7119 L1766.6 30.7119 L1766.6 67.9397 L1788.84 48.3739 L1798.36 48.3739 L1774.29 69.6006 L1799.37 93.744 L1789.65 93.744 L1766.6 71.5856 L1766.6 93.744 L1759.1 93.744 L1759.1 30.7119 Z" fill="#000000" fill-rule="nonzero" fill-opacity="1" /><path clip-path="url(#clip210)" d="M1836.35 49.7107 L1836.35 56.7592 Q1833.19 55.1389 1829.79 54.3287 Q1826.39 53.5185 1822.74 53.5185 Q1817.19 53.5185 1814.4 55.2199 Q1811.64 56.9213 1811.64 60.324 Q1811.64 62.9166 1813.63 64.4155 Q1815.61 65.8738 1821.61 67.2106 L1824.16 67.7777 Q1832.1 69.4791 1835.42 72.5983 Q1838.78 75.677 1838.78 81.2267 Q1838.78 87.5461 1833.76 91.2324 Q1828.78 94.9188 1820.03 94.9188 Q1816.38 94.9188 1812.41 94.1896 Q1808.48 93.5009 1804.11 92.0831 L1804.11 84.3864 Q1808.24 86.5334 1812.25 87.6271 Q1816.26 88.6804 1820.19 88.6804 Q1825.46 88.6804 1828.29 86.898 Q1831.13 85.0751 1831.13 81.7938 Q1831.13 78.7557 1829.06 77.1353 Q1827.04 75.5149 1820.11 74.0161 L1817.52 73.4085 Q1810.59 71.9501 1807.51 68.9525 Q1804.43 65.9143 1804.43 60.6481 Q1804.43 54.2477 1808.97 50.7639 Q1813.51 47.2801 1821.85 47.2801 Q1825.98 47.2801 1829.63 47.8878 Q1833.28 48.4954 1836.35 49.7107 Z" fill="#000000" fill-rule="nonzero" fill-opacity="1" /><path clip-path="url(#clip210)" d="M762.156 121.513 Q756.728 130.83 754.095 139.945 Q751.462 149.059 751.462 158.417 Q751.462 167.774 754.095 176.97 Q756.768 186.125 762.156 195.401 L755.674 195.401 Q749.598 185.882 746.56 176.686 Q743.562 167.491 743.562 158.417 Q743.562 149.383 746.56 140.228 Q749.558 131.073 755.674 121.513 L762.156 121.513 Z" fill="#000000" fill-rule="nonzero" fill-opacity="1" /><path clip-path="url(#clip210)" d="M794.199 144.32 Q788.203 144.32 784.719 149.019 Q781.236 153.677 781.236 161.819 Q781.236 169.962 784.679 174.661 Q788.163 179.319 794.199 179.319 Q800.153 179.319 803.637 174.62 Q807.121 169.921 807.121 161.819 Q807.121 153.758 803.637 149.059 Q800.153 144.32 794.199 144.32 M794.199 138 Q803.921 138 809.47 144.32 Q815.02 150.639 815.02 161.819 Q815.02 172.959 809.47 179.319 Q803.921 185.639 794.199 185.639 Q784.436 185.639 778.886 179.319 Q773.377 172.959 773.377 161.819 Q773.377 150.639 778.886 144.32 Q784.436 138 794.199 138 Z" fill="#000000" fill-rule="nonzero" fill-opacity="1" /><path clip-path="url(#clip210)" d="M865.089 157.08 L865.089 184.464 L857.636 184.464 L857.636 157.323 Q857.636 150.882 855.124 147.682 Q852.613 144.482 847.589 144.482 Q841.554 144.482 838.07 148.33 Q834.586 152.178 834.586 158.822 L834.586 184.464 L827.092 184.464 L827.092 139.094 L834.586 139.094 L834.586 146.142 Q837.26 142.051 840.865 140.026 Q844.511 138 849.25 138 Q857.069 138 861.079 142.861 Q865.089 147.682 865.089 157.08 Z" fill="#000000" fill-rule="nonzero" fill-opacity="1" /><path clip-path="url(#clip210)" d="M914.429 177.577 L942.988 177.577 L942.988 184.464 L904.586 184.464 L904.586 177.577 Q909.244 172.757 917.265 164.655 Q925.326 156.513 927.392 154.163 Q931.322 149.748 932.861 146.71 Q934.441 143.631 934.441 140.674 Q934.441 135.853 931.038 132.815 Q927.676 129.777 922.248 129.777 Q918.399 129.777 914.105 131.114 Q909.852 132.45 904.991 135.164 L904.991 126.901 Q909.933 124.916 914.227 123.903 Q918.521 122.89 922.086 122.89 Q931.484 122.89 937.074 127.589 Q942.664 132.288 942.664 140.147 Q942.664 143.874 941.246 147.236 Q939.869 150.558 936.183 155.095 Q935.17 156.27 929.742 161.9 Q924.314 167.491 914.429 177.577 Z" fill="#000000" fill-rule="nonzero" fill-opacity="1" /><path clip-path="url(#clip210)" d="M977.664 129.372 Q971.345 129.372 968.144 135.61 Q964.985 141.808 964.985 154.285 Q964.985 166.721 968.144 172.959 Q971.345 179.157 977.664 179.157 Q984.024 179.157 987.184 172.959 Q990.384 166.721 990.384 154.285 Q990.384 141.808 987.184 135.61 Q984.024 129.372 977.664 129.372 M977.664 122.89 Q987.832 122.89 993.179 130.952 Q998.567 138.972 998.567 154.285 Q998.567 169.557 993.179 177.618 Q987.832 185.639 977.664 185.639 Q967.496 185.639 962.109 177.618 Q956.761 169.557 956.761 154.285 Q956.761 138.972 962.109 130.952 Q967.496 122.89 977.664 122.89 Z" fill="#000000" fill-rule="nonzero" fill-opacity="1" /><path clip-path="url(#clip210)" d="M1020 177.577 L1048.55 177.577 L1048.55 184.464 L1010.15 184.464 L1010.15 177.577 Q1014.81 172.757 1022.83 164.655 Q1030.89 156.513 1032.96 154.163 Q1036.89 149.748 1038.43 146.71 Q1040.01 143.631 1040.01 140.674 Q1040.01 135.853 1036.6 132.815 Q1033.24 129.777 1027.81 129.777 Q1023.97 129.777 1019.67 131.114 Q1015.42 132.45 1010.56 135.164 L1010.56 126.901 Q1015.5 124.916 1019.79 123.903 Q1024.09 122.89 1027.65 122.89 Q1037.05 122.89 1042.64 127.589 Q1048.23 132.288 1048.23 140.147 Q1048.23 143.874 1046.81 147.236 Q1045.44 150.558 1041.75 155.095 Q1040.74 156.27 1035.31 161.9 Q1029.88 167.491 1020 177.577 Z" fill="#000000" fill-rule="nonzero" fill-opacity="1" /><path clip-path="url(#clip210)" d="M1067.15 177.577 L1080.52 177.577 L1080.52 131.438 L1065.97 134.354 L1065.97 126.901 L1080.44 123.984 L1088.62 123.984 L1088.62 177.577 L1101.99 177.577 L1101.99 184.464 L1067.15 184.464 L1067.15 177.577 Z" fill="#000000" fill-rule="nonzero" fill-opacity="1" /><path clip-path="url(#clip210)" d="M1144.16 123.984 L1156.35 123.984 L1171.78 165.141 L1187.3 123.984 L1199.49 123.984 L1199.49 184.464 L1191.51 184.464 L1191.51 131.357 L1175.92 172.838 L1167.69 172.838 L1152.1 131.357 L1152.1 184.464 L1144.16 184.464 L1144.16 123.984 Z" fill="#000000" fill-rule="nonzero" fill-opacity="1" /><path clip-path="url(#clip210)" d="M1217.88 177.577 L1231.25 177.577 L1231.25 131.438 L1216.71 134.354 L1216.71 126.901 L1231.17 123.984 L1239.35 123.984 L1239.35 177.577 L1252.72 177.577 L1252.72 184.464 L1217.88 184.464 L1217.88 177.577 Z" fill="#000000" fill-rule="nonzero" fill-opacity="1" /><path clip-path="url(#clip210)" d="M1294.89 123.984 L1307.08 123.984 L1322.52 165.141 L1338.03 123.984 L1350.23 123.984 L1350.23 184.464 L1342.25 184.464 L1342.25 131.357 L1326.65 172.838 L1318.43 172.838 L1302.83 131.357 L1302.83 184.464 L1294.89 184.464 L1294.89 123.984 Z" fill="#000000" fill-rule="nonzero" fill-opacity="1" /><path clip-path="url(#clip210)" d="M1386.76 161.657 Q1377.73 161.657 1374.25 163.723 Q1370.76 165.789 1370.76 170.772 Q1370.76 174.742 1373.36 177.091 Q1375.99 179.4 1380.49 179.4 Q1386.68 179.4 1390.41 175.025 Q1394.18 170.61 1394.18 163.318 L1394.18 161.657 L1386.76 161.657 M1401.63 158.579 L1401.63 184.464 L1394.18 184.464 L1394.18 177.577 Q1391.63 181.709 1387.82 183.694 Q1384.01 185.639 1378.5 185.639 Q1371.53 185.639 1367.4 181.75 Q1363.31 177.821 1363.31 171.258 Q1363.31 163.602 1368.41 159.713 Q1373.56 155.824 1383.73 155.824 L1394.18 155.824 L1394.18 155.095 Q1394.18 149.95 1390.78 147.155 Q1387.41 144.32 1381.3 144.32 Q1377.41 144.32 1373.72 145.251 Q1370.03 146.183 1366.63 148.046 L1366.63 141.16 Q1370.72 139.58 1374.57 138.81 Q1378.42 138 1382.07 138 Q1391.91 138 1396.77 143.104 Q1401.63 148.208 1401.63 158.579 Z" fill="#000000" fill-rule="nonzero" fill-opacity="1" /><path clip-path="url(#clip210)" d="M1449.63 140.836 L1449.63 147.803 Q1446.48 146.061 1443.27 145.211 Q1440.12 144.32 1436.87 144.32 Q1429.62 144.32 1425.61 148.938 Q1421.6 153.515 1421.6 161.819 Q1421.6 170.124 1425.61 174.742 Q1429.62 179.319 1436.87 179.319 Q1440.12 179.319 1443.27 178.469 Q1446.48 177.577 1449.63 175.836 L1449.63 182.722 Q1446.52 184.18 1443.15 184.91 Q1439.83 185.639 1436.06 185.639 Q1425.82 185.639 1419.78 179.198 Q1413.74 172.757 1413.74 161.819 Q1413.74 150.72 1419.82 144.36 Q1425.94 138 1436.55 138 Q1439.99 138 1443.27 138.729 Q1446.56 139.418 1449.63 140.836 Z" fill="#000000" fill-rule="nonzero" fill-opacity="1" /><path clip-path="url(#clip210)" d="M1471.1 155.581 L1471.1 177.739 L1484.23 177.739 Q1490.83 177.739 1493.99 175.025 Q1497.19 172.271 1497.19 166.64 Q1497.19 160.969 1493.99 158.295 Q1490.83 155.581 1484.23 155.581 L1471.1 155.581 M1471.1 130.709 L1471.1 148.938 L1483.22 148.938 Q1489.21 148.938 1492.13 146.71 Q1495.09 144.441 1495.09 139.823 Q1495.09 135.246 1492.13 132.977 Q1489.21 130.709 1483.22 130.709 L1471.1 130.709 M1462.92 123.984 L1483.82 123.984 Q1493.18 123.984 1498.25 127.873 Q1503.31 131.762 1503.31 138.932 Q1503.31 144.482 1500.72 147.763 Q1498.12 151.044 1493.1 151.854 Q1499.14 153.151 1502.46 157.282 Q1505.82 161.374 1505.82 167.531 Q1505.82 175.633 1500.31 180.049 Q1494.8 184.464 1484.63 184.464 L1462.92 184.464 L1462.92 123.984 Z" fill="#000000" fill-rule="nonzero" fill-opacity="1" /><path clip-path="url(#clip210)" d="M1537.09 144.32 Q1531.1 144.32 1527.61 149.019 Q1524.13 153.677 1524.13 161.819 Q1524.13 169.962 1527.57 174.661 Q1531.06 179.319 1537.09 179.319 Q1543.05 179.319 1546.53 174.62 Q1550.02 169.921 1550.02 161.819 Q1550.02 153.758 1546.53 149.059 Q1543.05 144.32 1537.09 144.32 M1537.09 138 Q1546.82 138 1552.37 144.32 Q1557.92 150.639 1557.92 161.819 Q1557.92 172.959 1552.37 179.319 Q1546.82 185.639 1537.09 185.639 Q1527.33 185.639 1521.78 179.319 Q1516.27 172.959 1516.27 161.819 Q1516.27 150.639 1521.78 144.32 Q1527.33 138 1537.09 138 Z" fill="#000000" fill-rule="nonzero" fill-opacity="1" /><path clip-path="url(#clip210)" d="M1587.85 144.32 Q1581.86 144.32 1578.37 149.019 Q1574.89 153.677 1574.89 161.819 Q1574.89 169.962 1578.33 174.661 Q1581.82 179.319 1587.85 179.319 Q1593.81 179.319 1597.29 174.62 Q1600.77 169.921 1600.77 161.819 Q1600.77 153.758 1597.29 149.059 Q1593.81 144.32 1587.85 144.32 M1587.85 138 Q1597.57 138 1603.12 144.32 Q1608.67 150.639 1608.67 161.819 Q1608.67 172.959 1603.12 179.319 Q1597.57 185.639 1587.85 185.639 Q1578.09 185.639 1572.54 179.319 Q1567.03 172.959 1567.03 161.819 Q1567.03 150.639 1572.54 144.32 Q1578.09 138 1587.85 138 Z" fill="#000000" fill-rule="nonzero" fill-opacity="1" /><path clip-path="url(#clip210)" d="M1620.75 121.432 L1628.24 121.432 L1628.24 158.66 L1650.48 139.094 L1660 139.094 L1635.94 160.321 L1661.01 184.464 L1651.29 184.464 L1628.24 162.306 L1628.24 184.464 L1620.75 184.464 L1620.75 121.432 Z" fill="#000000" fill-rule="nonzero" fill-opacity="1" /><path clip-path="url(#clip210)" d="M1703.95 130.709 L1703.95 153.434 L1714.24 153.434 Q1719.95 153.434 1723.07 150.477 Q1726.19 147.52 1726.19 142.051 Q1726.19 136.623 1723.07 133.666 Q1719.95 130.709 1714.24 130.709 L1703.95 130.709 M1695.77 123.984 L1714.24 123.984 Q1724.41 123.984 1729.59 128.602 Q1734.82 133.18 1734.82 142.051 Q1734.82 151.004 1729.59 155.581 Q1724.41 160.159 1714.24 160.159 L1703.95 160.159 L1703.95 184.464 L1695.77 184.464 L1695.77 123.984 Z" fill="#000000" fill-rule="nonzero" fill-opacity="1" /><path clip-path="url(#clip210)" d="M1770.3 146.061 Q1769.05 145.332 1767.55 145.008 Q1766.09 144.644 1764.31 144.644 Q1757.99 144.644 1754.59 148.776 Q1751.22 152.867 1751.22 160.564 L1751.22 184.464 L1743.73 184.464 L1743.73 139.094 L1751.22 139.094 L1751.22 146.142 Q1753.57 142.011 1757.34 140.026 Q1761.11 138 1766.5 138 Q1767.27 138 1768.2 138.122 Q1769.13 138.203 1770.26 138.405 L1770.3 146.061 Z" fill="#000000" fill-rule="nonzero" fill-opacity="1" /><path clip-path="url(#clip210)" d="M1793.88 144.32 Q1787.89 144.32 1784.4 149.019 Q1780.92 153.677 1780.92 161.819 Q1780.92 169.962 1784.36 174.661 Q1787.84 179.319 1793.88 179.319 Q1799.84 179.319 1803.32 174.62 Q1806.8 169.921 1806.8 161.819 Q1806.8 153.758 1803.32 149.059 Q1799.84 144.32 1793.88 144.32 M1793.88 138 Q1803.6 138 1809.15 144.32 Q1814.7 150.639 1814.7 161.819 Q1814.7 172.959 1809.15 179.319 Q1803.6 185.639 1793.88 185.639 Q1784.12 185.639 1778.57 179.319 Q1773.06 172.959 1773.06 161.819 Q1773.06 150.639 1778.57 144.32 Q1784.12 138 1793.88 138 Z" fill="#000000" fill-rule="nonzero" fill-opacity="1" /><path clip-path="url(#clip210)" d="M1825.88 121.513 L1832.36 121.513 Q1838.44 131.073 1841.44 140.228 Q1844.48 149.383 1844.48 158.417 Q1844.48 167.491 1841.44 176.686 Q1838.44 185.882 1832.36 195.401 L1825.88 195.401 Q1831.27 186.125 1833.9 176.97 Q1836.58 167.774 1836.58 158.417 Q1836.58 149.059 1833.9 139.945 Q1831.27 130.83 1825.88 121.513 Z" fill="#000000" fill-rule="nonzero" fill-opacity="1" /><polyline clip-path="url(#clip212)" style="stroke:#009af9; stroke-linecap:round; stroke-linejoin:round; stroke-width:4; stroke-opacity:1; fill:none" points="295.211,1374.76 580.585,1322.71 1151.33,1116.83 2292.83,219.025 "/>
<polyline clip-path="url(#clip212)" style="stroke:#e26f46; stroke-linecap:round; stroke-linejoin:round; stroke-width:4; stroke-opacity:1; fill:none" points="295.211,1383.35 580.585,1356.9 1151.33,1253.14 2292.83,802.48 "/>
<polyline clip-path="url(#clip212)" style="stroke:#3da44d; stroke-linecap:round; stroke-linejoin:round; stroke-width:4; stroke-opacity:1; fill:none" points="295.211,1387.65 580.585,1374.26 1151.33,1320.08 2292.83,1096.48 "/>
<polyline clip-path="url(#clip212)" style="stroke:#c271d2; stroke-linecap:round; stroke-linejoin:round; stroke-width:4; stroke-opacity:1; fill:none" points="295.211,1388.11 580.585,1377.37 1151.33,1340.99 2292.83,1180.64 "/>
<path clip-path="url(#clip210)" d="M305.865 484.46 L634.232 484.46 L634.232 225.26 L305.865 225.26  Z" fill="#ffffff" fill-rule="evenodd" fill-opacity="1"/>
<polyline clip-path="url(#clip210)" style="stroke:#000000; stroke-linecap:round; stroke-linejoin:round; stroke-width:4; stroke-opacity:1; fill:none" points="305.865,484.46 634.232,484.46 634.232,225.26 305.865,225.26 305.865,484.46 "/>
<polyline clip-path="url(#clip210)" style="stroke:#009af9; stroke-linecap:round; stroke-linejoin:round; stroke-width:4; stroke-opacity:1; fill:none" points="329.393,277.1 470.558,277.1 "/>
<path clip-path="url(#clip210)" d="M494.085 259.82 L500.381 259.82 L515.705 288.732 L515.705 259.82 L520.242 259.82 L520.242 294.38 L513.946 294.38 L498.622 265.468 L498.622 294.38 L494.085 294.38 L494.085 259.82 Z" fill="#000000" fill-rule="nonzero" fill-opacity="1" /><path clip-path="url(#clip210)" d="M533.576 261.093 L533.576 268.454 L542.349 268.454 L542.349 271.764 L533.576 271.764 L533.576 285.838 Q533.576 289.009 534.432 289.912 Q535.312 290.815 537.974 290.815 L542.349 290.815 L542.349 294.38 L537.974 294.38 Q533.043 294.38 531.168 292.551 Q529.293 290.699 529.293 285.838 L529.293 271.764 L526.168 271.764 L526.168 268.454 L529.293 268.454 L529.293 261.093 L533.576 261.093 Z" fill="#000000" fill-rule="nonzero" fill-opacity="1" /><path clip-path="url(#clip210)" d="M548.506 272.852 L578.182 272.852 L578.182 276.741 L548.506 276.741 L548.506 272.852 M548.506 282.296 L578.182 282.296 L578.182 286.232 L548.506 286.232 L548.506 282.296 Z" fill="#000000" fill-rule="nonzero" fill-opacity="1" /><path clip-path="url(#clip210)" d="M589.085 290.445 L596.723 290.445 L596.723 264.079 L588.413 265.746 L588.413 261.486 L596.677 259.82 L601.353 259.82 L601.353 290.445 L608.992 290.445 L608.992 294.38 L589.085 294.38 L589.085 290.445 Z" fill="#000000" fill-rule="nonzero" fill-opacity="1" /><polyline clip-path="url(#clip210)" style="stroke:#e26f46; stroke-linecap:round; stroke-linejoin:round; stroke-width:4; stroke-opacity:1; fill:none" points="329.393,328.94 470.558,328.94 "/>
<path clip-path="url(#clip210)" d="M494.085 311.66 L500.381 311.66 L515.705 340.572 L515.705 311.66 L520.242 311.66 L520.242 346.22 L513.946 346.22 L498.622 317.308 L498.622 346.22 L494.085 346.22 L494.085 311.66 Z" fill="#000000" fill-rule="nonzero" fill-opacity="1" /><path clip-path="url(#clip210)" d="M533.576 312.933 L533.576 320.294 L542.349 320.294 L542.349 323.604 L533.576 323.604 L533.576 337.678 Q533.576 340.849 534.432 341.752 Q535.312 342.655 537.974 342.655 L542.349 342.655 L542.349 346.22 L537.974 346.22 Q533.043 346.22 531.168 344.391 Q529.293 342.539 529.293 337.678 L529.293 323.604 L526.168 323.604 L526.168 320.294 L529.293 320.294 L529.293 312.933 L533.576 312.933 Z" fill="#000000" fill-rule="nonzero" fill-opacity="1" /><path clip-path="url(#clip210)" d="M548.506 324.692 L578.182 324.692 L578.182 328.581 L548.506 328.581 L548.506 324.692 M548.506 334.136 L578.182 334.136 L578.182 338.072 L548.506 338.072 L548.506 334.136 Z" fill="#000000" fill-rule="nonzero" fill-opacity="1" /><path clip-path="url(#clip210)" d="M592.302 342.285 L608.622 342.285 L608.622 346.22 L586.677 346.22 L586.677 342.285 Q589.339 339.53 593.923 334.9 Q598.529 330.248 599.71 328.905 Q601.955 326.382 602.835 324.646 Q603.737 322.887 603.737 321.197 Q603.737 318.442 601.793 316.706 Q599.872 314.97 596.77 314.97 Q594.571 314.97 592.117 315.734 Q589.686 316.498 586.909 318.049 L586.909 313.326 Q589.733 312.192 592.186 311.613 Q594.64 311.035 596.677 311.035 Q602.047 311.035 605.242 313.72 Q608.436 316.405 608.436 320.896 Q608.436 323.025 607.626 324.947 Q606.839 326.845 604.733 329.437 Q604.154 330.109 601.052 333.326 Q597.95 336.521 592.302 342.285 Z" fill="#000000" fill-rule="nonzero" fill-opacity="1" /><polyline clip-path="url(#clip210)" style="stroke:#3da44d; stroke-linecap:round; stroke-linejoin:round; stroke-width:4; stroke-opacity:1; fill:none" points="329.393,380.78 470.558,380.78 "/>
<path clip-path="url(#clip210)" d="M494.085 363.5 L500.381 363.5 L515.705 392.412 L515.705 363.5 L520.242 363.5 L520.242 398.06 L513.946 398.06 L498.622 369.148 L498.622 398.06 L494.085 398.06 L494.085 363.5 Z" fill="#000000" fill-rule="nonzero" fill-opacity="1" /><path clip-path="url(#clip210)" d="M533.576 364.773 L533.576 372.134 L542.349 372.134 L542.349 375.444 L533.576 375.444 L533.576 389.518 Q533.576 392.689 534.432 393.592 Q535.312 394.495 537.974 394.495 L542.349 394.495 L542.349 398.06 L537.974 398.06 Q533.043 398.06 531.168 396.231 Q529.293 394.379 529.293 389.518 L529.293 375.444 L526.168 375.444 L526.168 372.134 L529.293 372.134 L529.293 364.773 L533.576 364.773 Z" fill="#000000" fill-rule="nonzero" fill-opacity="1" /><path clip-path="url(#clip210)" d="M548.506 376.532 L578.182 376.532 L578.182 380.421 L548.506 380.421 L548.506 376.532 M548.506 385.976 L578.182 385.976 L578.182 389.912 L548.506 389.912 L548.506 385.976 Z" fill="#000000" fill-rule="nonzero" fill-opacity="1" /><path clip-path="url(#clip210)" d="M601.122 367.574 L589.316 386.023 L601.122 386.023 L601.122 367.574 M599.895 363.5 L605.774 363.5 L605.774 386.023 L610.705 386.023 L610.705 389.912 L605.774 389.912 L605.774 398.06 L601.122 398.06 L601.122 389.912 L585.52 389.912 L585.52 385.398 L599.895 363.5 Z" fill="#000000" fill-rule="nonzero" fill-opacity="1" /><polyline clip-path="url(#clip210)" style="stroke:#c271d2; stroke-linecap:round; stroke-linejoin:round; stroke-width:4; stroke-opacity:1; fill:none" points="329.393,432.62 470.558,432.62 "/>
<path clip-path="url(#clip210)" d="M494.085 415.34 L500.381 415.34 L515.705 444.252 L515.705 415.34 L520.242 415.34 L520.242 449.9 L513.946 449.9 L498.622 420.988 L498.622 449.9 L494.085 449.9 L494.085 415.34 Z" fill="#000000" fill-rule="nonzero" fill-opacity="1" /><path clip-path="url(#clip210)" d="M533.576 416.613 L533.576 423.974 L542.349 423.974 L542.349 427.284 L533.576 427.284 L533.576 441.358 Q533.576 444.529 534.432 445.432 Q535.312 446.335 537.974 446.335 L542.349 446.335 L542.349 449.9 L537.974 449.9 Q533.043 449.9 531.168 448.071 Q529.293 446.219 529.293 441.358 L529.293 427.284 L526.168 427.284 L526.168 423.974 L529.293 423.974 L529.293 416.613 L533.576 416.613 Z" fill="#000000" fill-rule="nonzero" fill-opacity="1" /><path clip-path="url(#clip210)" d="M548.506 428.372 L578.182 428.372 L578.182 432.261 L548.506 432.261 L548.506 428.372 M548.506 437.816 L578.182 437.816 L578.182 441.752 L548.506 441.752 L548.506 437.816 Z" fill="#000000" fill-rule="nonzero" fill-opacity="1" /><path clip-path="url(#clip210)" d="M598.853 430.756 Q595.705 430.756 593.853 432.909 Q592.024 435.062 592.024 438.812 Q592.024 442.539 593.853 444.715 Q595.705 446.867 598.853 446.867 Q602.001 446.867 603.83 444.715 Q605.682 442.539 605.682 438.812 Q605.682 435.062 603.83 432.909 Q602.001 430.756 598.853 430.756 M608.135 416.104 L608.135 420.363 Q606.376 419.53 604.571 419.09 Q602.788 418.65 601.029 418.65 Q596.399 418.65 593.946 421.775 Q591.515 424.9 591.168 431.219 Q592.534 429.205 594.594 428.141 Q596.654 427.053 599.131 427.053 Q604.339 427.053 607.348 430.224 Q610.381 433.372 610.381 438.812 Q610.381 444.136 607.233 447.353 Q604.085 450.571 598.853 450.571 Q592.858 450.571 589.686 445.988 Q586.515 441.381 586.515 432.654 Q586.515 424.46 590.404 419.599 Q594.293 414.715 600.844 414.715 Q602.603 414.715 604.385 415.062 Q606.191 415.409 608.135 416.104 Z" fill="#000000" fill-rule="nonzero" fill-opacity="1" /></svg>
